<svg xmlns="http://www.w3.org/2000/svg" xmlns:xlink="http://www.w3.org/1999/xlink" version="1.1" id="layer" x="0px" y="0px" style="enable-background:new 0 0 652 652;" xml:space="preserve" viewBox="21 222.3 600.1 199.5">
<style type="text/css">
	.st0{fill:#234C64;}
</style>
<g>
	<path class="st0" d="M612,323.6c-0.2-0.6-0.6-1.2-1.2-1.5l-17.4-9.3l15.3-6c0.9-0.5,1.2-1.6,0.8-2.5l-2.2-4.1c-0.3-0.6-1-1-1.6-1   c-0.3,0-0.6,0.1-0.9,0.2l-18.1,9.7L562.3,296l24.4-13.1l18.1,9.7c0.3,0.1,0.6,0.2,0.9,0.2c0.7,0,1.3-0.4,1.6-1l2.2-4.1   c0.5-0.9,0.2-2-0.8-2.6l-15.2-5.9l17.3-9.3c0.6-0.4,1-0.9,1.2-1.5c0.2-0.6,0.1-1.3-0.2-1.9l-2.3-4.1c-0.4-0.8-1.3-1.2-2.1-1.2   c-0.4,0-0.9,0.1-1.3,0.3l-16.8,10.3l2.5-16.2c0-0.5-0.2-1-0.5-1.3c-0.3-0.4-0.8-0.6-1.3-0.6l-4.7-0.2c-1,0-1.8,0.8-1.9,1.8   l-0.7,20.5L559,290.4l0.8-27.7l17.5-10.8c0.9-0.5,1.1-1.7,0.6-2.6l-2.5-4c-0.3-0.5-1-0.9-1.6-0.9c-0.3,0-0.7,0.1-1,0.3l-12.7,10.2   l0.6-19.7c0-1.4-1.1-2.5-2.5-2.5h-4.7c-1.4,0-2.5,1.1-2.5,2.5l0.6,19.7l-12.8-10.2c-0.3-0.2-0.6-0.3-1-0.3c-0.7,0-1.2,0.3-1.6,0.9   l-2.5,4c-0.5,0.9-0.3,2,0.6,2.6l17.5,10.8l0.8,27.7L529,275.8l-0.7-20.5c-0.1-1-0.9-1.8-1.9-1.8l-4.7,0.2c-1,0-1.8,0.9-1.8,2   l2.5,16.1l-16.8-10.3c-0.4-0.2-0.8-0.3-1.3-0.3c-0.9,0-1.7,0.5-2.2,1.2l-2.3,4.1c-0.7,1.2-0.3,2.7,0.9,3.4l17.4,9.3l-15.3,6   c-0.9,0.5-1.2,1.6-0.7,2.5l2.2,4.1c0.3,0.6,0.9,1,1.7,1c0.3,0,0.6-0.1,0.9-0.2l18.1-9.7l24.4,13.1l-24.4,13.1l-18.1-9.7   c-0.3-0.1-0.6-0.2-0.9-0.2c-0.7,0-1.3,0.4-1.6,1l-2.2,4.1c-0.5,0.9-0.1,2,0.8,2.6l15.2,5.9l-17.4,9.3c-0.6,0.3-1,0.9-1.2,1.5   c-0.2,0.6-0.1,1.3,0.2,1.9l2.3,4.1c0.4,0.8,1.3,1.3,2.2,1.3c0.4,0,0.9-0.1,1.2-0.3l16.8-10.3l-2.5,16.2c0,1,0.8,1.9,1.8,1.9   l4.7,0.2h0c1,0,1.8-0.8,1.9-1.8l0.7-20.5l23.6-14.5l-0.8,27.7l-17.5,10.8c-0.4,0.3-0.7,0.7-0.8,1.2c-0.1,0.5,0,1,0.2,1.4l2.5,4   c0.3,0.5,0.9,0.9,1.6,0.9c0.3,0,0.7-0.1,1.1-0.3l12.7-10.2l-0.6,19.7c0,1.4,1.1,2.5,2.5,2.5h4.7c1.4,0,2.5-1.1,2.5-2.5l-0.6-19.7   l12.8,10.2c0.3,0.2,0.6,0.3,1,0.3c0.6,0,1.2-0.3,1.6-0.9l2.5-4c0.3-0.4,0.3-0.9,0.2-1.4c-0.1-0.5-0.4-0.9-0.8-1.2l-17.5-10.8   l-0.8-27.7l23.6,14.5l0.7,20.5c0.1,1,0.9,1.8,1.9,1.8h0l4.7-0.2c1,0,1.8-0.9,1.8-2l-2.5-16.1l16.8,10.3c0.4,0.2,0.8,0.4,1.2,0.4   c0.9,0,1.7-0.5,2.2-1.3l2.3-4.1C612.1,324.9,612.2,324.2,612,323.6 M621,364.2c0,1.4-1.2,2.6-2.6,2.6H493.2c-1.4,0-2.6-1.2-2.6-2.6   V227.8c0-1.4,1.2-2.6,2.6-2.6h125.1c1.4,0,2.6,1.1,2.6,2.6V364.2z"/>
	<path class="st0" d="M239.6,295.9c0,20.3-14.3,37.6-35.9,37.6c-21.3,0-36-17.7-36-38v-0.4c0-20.3,14.3-37.7,35.6-37.7   c21.5,0,36.2,17.7,36.2,38.1V295.9z M101.1,276.8c0,11.1-8.5,18.3-22.4,18.3H60.2v-37.2h18.3c14.1,0,22.6,6.4,22.6,18.5V276.8z    M436.5,225.1l-24.6,81.5l-27.2-81.9h-33.6l-27.2,81.9l-24.6-81.5h-41.3l10.7,32.2c-12.9-21-36.5-35-65.1-35   c-29.1,0-53.3,14.7-66.1,36.6c-6.6-21.4-27-33.8-56.1-33.8H21.1V366h39v-40.3h19.3c20.9,0,38.3-6.3,49.1-18.3   c5.5,34.9,35.4,61.4,74.7,61.4c43.5,0,76.1-32.8,76.1-73.3v-0.4c0-2.3-0.1-4.5-0.3-6.8l26.1,78.7h34l28.2-81.1l28.4,81.1h34   l47.1-141.9H436.5z"/>
	<path class="st0" d="M34.3,404.4c4.7,0,7.6-2.6,7.6-6.3V398c0-4.1-3-6.3-7.6-6.3h-7.1v12.6H34.3z M21,386.1h13.8   c8.1,0,13.3,4.7,13.3,11.7v0.1c0,7.9-6.3,12-14,12h-7v11.3H21V386.1z"/>
	<path class="st0" d="M69.6,403.5c4.4,0,7.2-2.3,7.2-5.9v-0.1c0-3.8-2.7-5.8-7.3-5.8h-8.9v11.8H69.6z M54.5,386.1h15.6   c4.4,0,7.9,1.3,10.1,3.5c1.8,1.9,2.9,4.5,2.9,7.6v0.1c0,5.8-3.4,9.2-8.4,10.6l9.5,13.3h-7.3L68.3,409h-7.7v12.2h-6.2V386.1z"/>
	<path class="st0" d="M118.3,403.7v-0.1c0-6.8-5-12.5-11.9-12.5c-7,0-11.8,5.6-11.8,12.4v0.1c0,6.8,5,12.5,11.9,12.5   C113.4,416.1,118.3,410.6,118.3,403.7 M88.1,403.7v-0.1c0-9.9,7.6-18.1,18.3-18.1c10.8,0,18.3,8.2,18.3,18v0.1   c0,9.9-7.6,18.1-18.4,18.1C95.6,421.8,88.1,413.6,88.1,403.7"/>
	<polygon class="st0" points="134.9,391.8 123.8,391.8 123.8,386.1 152.2,386.1 152.2,391.8 141.1,391.8 141.1,421.2 134.9,421.2     "/>
	<polygon class="st0" points="158.7,386.1 184.7,386.1 184.7,391.6 164.9,391.6 164.9,400.7 182.5,400.7 182.5,406.3 164.9,406.3    164.9,415.7 185,415.7 185,421.2 158.7,421.2  "/>
	<path class="st0" d="M188.7,403.7v-0.1c0-10,7.5-18.1,18.1-18.1c6.5,0,10.4,2.3,13.7,5.5l-4,4.6c-2.8-2.6-5.8-4.4-9.8-4.4   c-6.7,0-11.6,5.5-11.6,12.4v0.1c0,6.9,4.9,12.5,11.6,12.5c4.3,0,7.1-1.7,10.1-4.6l4,4c-3.7,3.8-7.7,6.2-14.2,6.2   C196.3,421.8,188.7,413.8,188.7,403.7"/>
	<polygon class="st0" points="234.8,391.8 223.7,391.8 223.7,386.1 252.1,386.1 252.1,391.8 241,391.8 241,421.2 234.8,421.2  "/>
	<path class="st0" d="M294.4,403.7v-0.1c0-6.8-4.9-12.5-11.9-12.5c-7,0-11.8,5.6-11.8,12.4v0.1c0,6.8,4.9,12.5,11.9,12.5   C289.5,416.1,294.4,410.6,294.4,403.7 M264.2,403.7v-0.1c0-9.9,7.6-18.1,18.4-18.1c10.8,0,18.3,8.2,18.3,18v0.1   c0,9.9-7.6,18.1-18.4,18.1C271.7,421.8,264.2,413.6,264.2,403.7"/>
	<path class="st0" d="M305.7,406.3v-20.2h6.1V406c0,6.5,3.4,10,8.9,10c5.4,0,8.8-3.3,8.8-9.8v-20.2h6.2V406   c0,10.5-5.9,15.7-15.1,15.7C311.5,421.7,305.7,416.5,305.7,406.3"/>
	<path class="st0" d="M359.4,403.5c4.4,0,7.2-2.3,7.2-5.9v-0.1c0-3.8-2.7-5.8-7.3-5.8h-8.9v11.8H359.4z M344.2,386.1h15.6   c4.4,0,7.9,1.3,10.1,3.5c1.8,1.9,2.9,4.5,2.9,7.6v0.1c0,5.8-3.5,9.2-8.3,10.6l9.4,13.3h-7.3l-8.6-12.2h-7.7v12.2h-6.2V386.1z"/>
	<polygon class="st0" points="386,386.1 392.7,386.1 401,412.1 409.6,386 414.9,386 423.5,412.1 431.8,386.1 438.3,386.1    426.1,421.4 420.8,421.4 412.2,396.2 403.6,421.4 398.2,421.4  "/>
	<rect x="443" y="386.1" class="st0" width="6.1" height="35"/>
	<polygon class="st0" points="458.5,386.1 464.2,386.1 482.9,410.3 482.9,386.1 489,386.1 489,421.2 483.9,421.2 464.5,396.2    464.5,421.2 458.5,421.2  "/>
	<polygon class="st0" points="504.6,391.8 493.5,391.8 493.5,386.1 522,386.1 522,391.8 510.9,391.8 510.9,421.2 504.6,421.2  "/>
	<polygon class="st0" points="526.5,386.1 552.5,386.1 552.5,391.6 532.6,391.6 532.6,400.7 550.2,400.7 550.2,406.3 532.6,406.3    532.6,415.7 552.7,415.7 552.7,421.2 526.5,421.2  "/>
	<path class="st0" d="M575.2,403.5c4.4,0,7.2-2.3,7.2-5.9v-0.1c0-3.8-2.7-5.8-7.3-5.8h-8.9v11.8H575.2z M560,386.1h15.6   c4.4,0,7.9,1.3,10.1,3.5c1.8,1.9,2.9,4.5,2.9,7.6v0.1c0,5.8-3.4,9.2-8.4,10.6l9.4,13.3h-7.2l-8.6-12.2h-7.7v12.2H560V386.1z"/>
	<path class="st0" d="M593.9,416.1l3.7-4.4c3.4,2.9,6.7,4.6,11.1,4.6c3.8,0,6.2-1.8,6.2-4.4v-0.1c0-2.5-1.4-3.9-7.9-5.3   c-7.5-1.8-11.7-4-11.7-10.5v-0.1c0-6,5-10.2,12-10.2c5.1,0,9.1,1.6,12.7,4.4l-3.3,4.6c-3.1-2.3-6.3-3.6-9.5-3.6   c-3.6,0-5.7,1.9-5.7,4.2v0.1c0,2.7,1.6,3.9,8.3,5.5c7.4,1.8,11.3,4.5,11.3,10.3v0.1c0,6.6-5.1,10.5-12.5,10.5   C603.1,421.7,598.1,419.8,593.9,416.1"/>
</g>
</svg>