<?xml version="1.0" encoding="utf-8"?>
<!-- Generator: Adobe Illustrator 21.0.2, SVG Export Plug-In . SVG Version: 6.00 Build 0)  -->
<svg version="1.1" id="Layer_1" xmlns="http://www.w3.org/2000/svg" xmlns:xlink="http://www.w3.org/1999/xlink" x="0px" y="0px"
	 viewBox="0 0 500 500" style="enable-background:new 0 0 500 500;" xml:space="preserve">
<style type="text/css">
	.st0{display:none;}
	.st1{display:inline;}
	.st2{fill:#FFFFFF;}
	.st3{fill:#FDE0AB;}
	.st4{fill:#ED6D67;}
	.st5{fill:#333333;}
	.st6{fill:#40D9AC;}
</style>
<g id="Layer_1_1_" class="st0">
	<g class="st1">
		<path class="st2" d="M336.1,310.8c31.8,0,98.5-3.2,98.5-3.2s3.2-25.8-7-29.6c-10.2-3.8-24.8-14-24.8-14s-9.2,10.2-17.8,7.5
			c-8.6-2.7-2.7-10.2-2.7-10.2s-9.7,2.7-11.8,0.5c-2.2-2.2-3.2-7-3.2-7s-13.5,11.3-15.1,5.9s-1.1-21.5,9.7-36.6
			c10.8-15.1,34.4-26,60.8-23.2c86.7,9.2,63.6,114.3,44.7,139.5c-16.2,21.5-37.7,34.5-70,39.8c-61.9,10.2-149.7-30.7-149.7-30.7
			l19.4-39.8C267.2,309.7,304.4,310.8,336.1,310.8z"/>
		<path class="st2" d="M154.1,157.3C76.6,156.6,21,210.1,19.5,280.4c-1.4,70.2,49.3,132.8,136.2,126.3s96.7-47.4,108.2-68.4
			c11.6-21,3.6-27.4-2.2-31.8c-5.8-4.3-10.8,3.2-10.8,3.2s9.7-15.1-4.3-17.8c-5.7-1.1-10.8,5.9-10.8,5.9s6.4-5-1.6-10.8
			s-28.8,35.3-78.7,28.8c-50-6.5-46.3-39.1-46.3-39.1l35.5-71.7c0,0,21.1-0.4,48.7-0.4c27.5,0,43.3,0.4,53.4,2.5
			c10.1,2.2,42.6,0.5,46.2,1.2C296.7,209.2,231.6,158,154.1,157.3z"/>
		<path class="st3" d="M330.3,140.2c0,0-13.5-3.2-13.2-11.4s1.8-14.9,12.6-13.8c10.8,1.2,10.5,7.6,10.5,13.8
			C340.3,135,332.9,140.8,330.3,140.2z"/>
		<path class="st3" d="M275.1,109.4c0,0-11.6-2.8-11.3-9.8c0.3-7.1,1.5-12.8,10.8-11.8s9.1,6.5,9.1,11.8S277.4,109.9,275.1,109.4z"
			/>
		<path class="st3" d="M208.1,93.2c0,0-11.6-2.8-11.3-9.8c0.3-7.1,1.5-12.8,10.8-11.8s9.1,6.5,9.1,11.8S210.4,93.7,208.1,93.2z"/>
		<path class="st3" d="M239.6,78.7c0,0-11.6-2.8-11.3-9.8c0.3-7.1,1.5-12.8,10.8-11.8s9.1,6.5,9.1,11.8
			C248.2,74.2,241.9,79.2,239.6,78.7z"/>
		<path class="st3" d="M102.3,127.2c0,0-11.6-2.8-11.3-9.8c0.3-7.1,1.5-12.8,10.8-11.8s9.1,6.5,9.1,11.8S104.6,127.7,102.3,127.2z"
			/>
		<path class="st2" d="M267.8,311.8c0,0,0.5-5.4-7.5-5.9c-8.1-0.5-9.2,3.8-9.2,3.8s1.6-4.8,1.1-12.9s-3.8-8.1-3.8-8.1
			s12.2-28.5,25.8-50.1c10-15.9,21.5-28.5,21.5-28.5s13.5,8.6,27.5,35s29.1,63,29.1,63L267.8,311.8z"/>
		<path class="st4" d="M296.3,206.8l-49.5,85.1l-7,0.5c0,0-1.6-6.5-8.1-6.5s-44.7,43.1-77,40.9s-53.8-16.7-49.5-50.6
			s39.6-71.3,39.6-71.3L296.3,206.8z"/>
		<path class="st4" d="M302.8,210.6c0,0,23.2,1.1,33.4,1.1c10.2,0,11.8,11.3,16.2,12.4c4.3,1.1,8.6,2.7,8.6,2.7
			s-10.2,14.5-10.2,23.2c0,8.6-0.5,11.8,4.3,11.8s10.8-5.4,10.8-5.4s0.5,7.5,7,7.5s9.2,0,9.2,0s1.1,9.7,7,9.7s14-9.7,14-9.7
			s6.5,8.1,12.4,8.1s16.2,5.9,17.8,15.1c1.6,9.2,1.6,20.5,1.6,20.5l-82.4,0.5L302.8,210.6z"/>
	</g>
	<g class="st1">
		<path class="st5" d="M473.2,279.5c-0.9-2.5-1.1-3.9-1.2-11.7c-0.1-7.8-0.2-9.2-1.2-11.6c-0.6-1.5-1.1-3.2-1.1-3.7
			s-0.3-1.6-0.7-2.4c-0.8-1.5-2.3-6.8-2.4-8.4c0-0.6-0.2-1.2-0.4-1.5c-0.2-0.3-0.9-1.9-1.6-3.7s-1.6-3.9-2-4.7s-0.8-2.2-0.8-3
			s-0.4-2.1-1-2.8c-0.5-0.7-1-1.5-1-1.7c0-1.1-8.1-9.6-9.8-10.2c-0.5-0.2-1.6-1.4-2.6-2.8c-1-1.4-2.2-2.7-2.7-2.9
			c-0.5-0.3-1.3-0.7-1.7-0.9c-0.4-0.2-1.7-0.9-3-1.5c-1.2-0.6-3.1-1.6-4.2-2.3s-2.3-1.4-2.7-1.5c-1.5-0.6-2.7-1.2-4.2-2.2
			c-0.8-0.5-2-1-2.7-1s-3.9-0.6-7.1-1.3c-5.7-1.3-7-1.4-12.2-1.6l-2.4-0.1l0.3-2.1c0.4-2.9,0.5-3.6,0.3-7c-0.2-3.9,0.4-8.6,1.1-8.9
			c0.3-0.1,2.1,0.7,4,1.8c3.6,2.1,7,2.7,8.7,1.3c2-1.6,0.7-3.2-2.9-3.5c-2.4-0.2-5.6-1.9-8.4-4.5c-1.2-1.1-1.7-2.9-1.3-4.3
			c0.2-0.7,0.5-0.7,1.3-0.3c0.6,0.3,1.9,0.6,3.1,0.7c1.1,0.1,3.1,0.3,4.4,0.5l2.3,0.3v-1.5c0-1.7-1.1-2.8-2.9-2.9
			c-1.9-0.1-8.1-1.6-8.5-2.1c-0.7-0.7,0.1-7.5,0.9-7.5c0.4,0,0.7,0.2,0.7,0.5s0.4,0.5,0.9,0.5s1.4,0.5,2,1.2
			c1.4,1.6,3.3,1.6,4.3,0.1c0.5-0.7,0.7-1.4,0.5-1.7c-0.4-0.6-3.2-2-4-2c-0.3,0-0.7-0.3-0.9-0.7c-0.1-0.4-0.6-0.7-1-0.7
			c-1.2,0-2.8-2.8-2.8-4.9c0-2.3-1.2-4.4-2.4-4.4c-1,0-3.5,2.3-3.5,3.2c0,0.4-0.5,0.8-1,1s-1.4,0.9-1.8,1.5s-1,1.2-1.2,1.2
			c-0.3,0-1.2,0.5-2,1.1c-2.8,2-3,2.7-0.8,3.9c1.4,0.8,1.5,0.8,2.1-0.1c0.7-1.1,1.9-1.3,1.9-0.3c0,0.8-3.1,3.7-6,5.7
			c-1.3,0.9-2.4,1.9-2.4,2.2c0,0.9,1,1.8,2.1,1.8c1.4,0,4.3-2.1,4.6-3.4c0.3-1,0.7-1.3,1.9-1.1c0.3,0,0.9-0.6,1.5-1.4
			c0.6-0.8,1.1-1.5,1.4-1.5c0.2,0,0.4,1.6,0.4,3.5c0,2.9-0.1,3.5-0.9,3.7c-0.5,0.1-1.3,1-1.9,1.8c-1.6,2.5-6.3,5.4-9.1,5.6
			c-1.3,0.1-2.4,0.5-2.4,0.8c0,0.9,2.6,3.3,3.5,3.3c1.8,0,5.1-1.7,7.2-3.7c1.2-1.1,2.3-2,2.5-2.1c0.5-0.2,1.1,3.3,0.7,4.7
			c-0.2,0.6-0.6,1.1-0.9,1.1s-1.1,0.6-1.8,1.4c-0.7,0.8-2.1,1.9-3.2,2.4c-7.6,3.8-9.5,4.9-10.2,5.8c-1,1.2-1,1.5,0,2.5
			c1.1,1.1,3.6,0.5,7-1.7c2.5-1.6,7.8-4.5,8.3-4.5c0.1,0,0.1,3.3,0,7.3l-0.2,7.3l-3.4,0.5c-1.9,0.3-3.9,0.8-4.5,1.1
			s-1.3,0.5-1.6,0.3c-0.2-0.2-1.1,0-1.9,0.4c-3.4,1.6-6.2,2.7-7,2.7c-0.5,0-1.2,0.3-1.5,0.7s-0.8,0.7-1,0.7c-1.2,0-5,2.1-6.7,3.7
			c-1,0.9-2,1.7-2.2,1.7s-0.4,0.3-0.4,0.7s-0.3,0.7-0.6,0.8c-1.5,0-5.6,5.3-7.6,9.8c-0.9,2-3,4.4-3.9,4.4c-0.4,0-1-0.4-1.3-1
			c-0.4-0.5-1.5-1.3-2.5-1.7s-1.9-1.2-2.1-1.7s-0.6-1.1-1-1.2c-0.4-0.1-1.1-1-1.5-1.9c-1.9-3.6-3.7-5.3-6.6-6.1
			c-1.5-0.4-3.8-1.2-5.2-1.7c-4.1-1.6-8.9-2.3-13.6-1.8c-2.4,0.2-4.6,0.2-5.4,0c-1.2-0.4-5.7-0.1-9.4,0.7c-3.2,0.7-7.9,0.5-8.5-0.3
			c-0.7-0.8,14.3-23.2,13.3-23.7c-0.4-0.2-2.4-5.7-5.7-1.6c-5.1,6.5-13.1,22.3-13.9,22.3c0,0-2.8-3.7-3.8-4.4
			c-0.7-0.6-1.7-1.3-2.1-1.7s-1.7-1.3-3-2.1c-1.2-0.8-2.4-1.7-2.6-2.1c-0.2-0.4-0.7-0.6-1.1-0.6c-1.4,0-7.2-3.8-9.9-6.4
			c-0.5-0.5-1.3-1-1.6-1c-0.3,0-1.6-0.6-2.7-1.3s-2.4-1.4-2.7-1.4c-0.3-0.1-1.9-0.9-3.5-1.9s-3.3-1.8-3.7-1.8c-0.4,0-1.9-0.4-3.4-1
			c-1.4-0.5-3-1-3.5-1s-1.5-0.3-2.2-0.7c-2.2-1.2-5.9-2.8-6.5-2.8c-0.3,0-2-0.7-3.7-1.5s-3.5-1.4-3.9-1.3c-2.1,0.8-3.3-3.2-2.3-7.1
			c0.9-3.2,0.9-4,0.2-6.1c-0.9-2.7-0.9-7.7,0.1-7.7c0.4,0,0.7,0.2,0.7,0.5s1.3,0.9,2.8,1.5c2.3,0.9,3,0.9,4.2,0.5
			c0.8-0.3,1.4-0.9,1.4-1.3c0-0.7-1.5-1.7-2.8-1.7c-0.5,0-1.5-0.5-2.1-1.2c-0.7-0.7-2.1-1.5-3.2-1.8l-2-0.6l-0.3-3.2
			c-0.2-1.8-0.2-3.3-0.1-3.4c0.3-0.3,4.7,2.4,6.5,4c2.3,2,4.5,1.7,4.5-0.6c0-1.1-5.3-4.6-8.6-5.7l-2.8-0.9v-2.1
			c0-1.9,0.1-2.1,1.2-2.1c0.7,0,1.2,0.2,1.2,0.4c0,0.5,4.2,2.6,5.4,2.6c0.5,0,1.4,0.4,2,1c1.5,1.3,2.2,1.2,2.9-0.2
			c0.6-1.1,0.5-1.3-0.2-2.2c-0.5-0.5-1.3-1-1.7-1c-0.5,0-1.2-0.3-1.8-0.7c-0.5-0.4-1.3-0.7-1.8-0.7c-0.4,0-1.3-0.6-1.9-1.3
			c-0.6-0.7-1.4-1.2-1.7-1.2c-0.8,0-2.5-1.6-3.2-2.8c-0.8-1.5-0.7-5.6,0.1-5.6c0.4,0,1.3,0.7,2.1,1.5s2,1.8,2.7,2.1
			c0.7,0.4,1.9,1,2.8,1.5c1,0.6,2,0.8,2.8,0.6c1.1-0.3,1.3-0.6,1.3-2c0-1.7-0.1-1.9-3.3-2.5c-0.8-0.2-2.5-1.2-3.6-2.2
			c-2-1.8-4.6-6-4.4-7.1c0.2-0.9-0.9-3-1.9-3.9c-0.8-0.7-1.2-0.8-2.5-0.3c-1.2,0.4-1.6,0.9-1.7,2.1c-0.1,1.2-0.5,1.7-1.6,2
			c-0.8,0.3-2.2,1-3,1.6s-1.8,1.1-2,1.1c-0.6,0-2.1,1.6-2.1,2.3c0,0.9,2.1,1.7,3.5,1.4c0.8-0.2,1.3-0.5,1.2-0.7s0.3-0.5,0.9-0.7
			c0.6-0.2,1.6-0.7,2.2-1.3c0.6-0.6,1.4-0.9,1.8-0.8c0.8,0.3,1,1.6,0.2,2c-0.3,0.2-0.5,0.8-0.5,1.5c0,2.8-3.7,5.7-8,6.4
			c-2.3,0.4-4.6,1.3-5.1,2.2c-0.2,0.3,0,0.9,0.4,1.4c0.9,1,3.5,1.4,4,0.6c0.2-0.3,0.8-0.5,1.5-0.5c0.6,0,2.1-0.4,3.3-1
			c4-1.8,4.5-1.3,3.3,3.9c-0.5,2.2-0.9,2.8-2.6,3.9c-3,2-7.9,4-9.9,4c-0.4,0-0.7,0.3-0.7,0.6c0,1,2.1,2.8,3.4,2.8
			c1.1,0,8-3.2,8.5-3.9c0.1-0.2,0.7-0.5,1.2-0.6c0.7-0.1,0.9,0.1,0.8,0.8c-0.1,0.5-0.5,1.3-0.9,1.6c-0.4,0.4-0.7,1-0.7,1.3
			c0,1.5-6.5,5.5-10.1,6.2c-1.6,0.3-2.4,2-1,2c0.4,0,0.7,0.2,0.5,0.4c-0.1,0.2,0.3,0.6,1,0.8c1.5,0.4,4.7-0.5,5.3-1.5
			c0.2-0.4,0.7-0.7,1.1-0.7c0.4,0,1.1-0.4,1.8-1c0.6-0.6,1.8-1,2.6-1h1.5l-0.3,2.8c-0.2,1.6-0.1,3.7,0.1,4.8
			c0.6,2.7,0.8,11,0.3,12.5c-0.3,0.8-0.6,1-1.2,0.8c-2.6-1.1-7-2.3-8.6-2.5c-1-0.1-2.9-0.6-4.1-1c-1.2-0.4-3.1-0.8-4.2-0.9
			c-2.9-0.2-7.1-1.4-7.8-2.1c-1.1-1.1-3.7-0.7-4.7,0.6c-1.1,1.4-1,2.6,0.5,4.1c0.8,0.8,1.3,1,2.3,0.7c0.7-0.2,1.8-0.3,2.3-0.3
			c2.1,0.1,7.8,1.2,9.1,1.9c0.7,0.4,2.8,0.9,4.7,1.3c1.9,0.4,4.3,1,5.4,1.6c1.1,0.5,2.5,0.9,3.3,0.9c2.2,0,2.7,1,2,4.7
			c-0.5,2.5-0.5,3.4,0,4.1c0.7,1.2,2.1,1.6,3.7,1c1.2-0.4,1.2-0.6,0.9-3.3c-0.4-3.8,0-4.3,2.7-3.5c1.2,0.3,2.4,0.8,2.7,1
			c0.7,0.5,8.5,3.5,8.9,3.4c0.2,0,0.5,0.1,0.6,0.4c0.4,0.6,5.3,2.5,7.5,2.8c2.6,0.4,11,5.2,13.5,7.6c0.5,0.5,3.4,2.2,6.4,3.7
			s6,3.3,6.8,4c0.7,0.7,1.5,1.3,1.8,1.3c0.8,0,3.1,2.9,2.6,3.2c-0.7,0.5-7.9,0.5-9,0c-0.5-0.2-1.4-0.2-1.9-0.1
			c-0.6,0.2-1.8,0-2.8-0.4c-0.9-0.4-2.9-0.7-4.3-0.7s-4.2-0.4-6.2-0.8c-3.1-0.7-4.4-0.7-9.8-0.2c-4.1,0.4-7.5,0.5-10.1,0.2
			c-2.1-0.2-3.9-0.3-4.1-0.1c-0.4,0.7-7.6,1-22.2,1c-8.4,0-16.7-0.2-18.5-0.4c-4.2-0.5-12.8-0.3-13.7,0.4c-0.6,0.5-7.6,1.4-10.9,1.4
			c-0.6,0-1.4,0.2-1.7,0.4c-0.7,0.5-3.4,0.2-3.8-0.4c-0.2-0.2-0.1-1.7,0-3.3c0.2-1.5,0.2-4.5,0.1-6.5c-0.8-13.1-1.2-36.9-0.7-37.2
			c0.3-0.2,0.9,0.6,1.5,1.6c1.4,2.6,4.9,5.9,8.6,7.9c2.8,1.5,3.5,1.7,7.6,1.7c3.8,0.1,4.7-0.1,5.5-0.9c1.3-1.2,1.3-2.4,0.1-3.5
			c-0.9-0.8-1-0.8-2.1,0.2c-3.4,3.1-12.9-1-15.9-6.8c-1.8-3.5-3.8-5.4-4.3-3.9c-0.1,0.3-0.6,0.5-1.1,0.2c-0.8-0.3-0.9-0.8-0.6-4.1
			c0.1-2.1,0.4-3.9,0.5-4s1.4,0.8,2.6,1.9c4.1,3.7,6.7,4.9,12.8,5.7c1.8,0.2,2.2,0.1,2.9-1c1.4-2.1,0.6-2.7-3.1-2.7
			c-4,0.1-7.6-1.6-10.5-4.8c-1.2-1.3-2.5-2.2-3.3-2.3l-1.3-0.1l-0.1-5.8c-0.1-5.4-0.1-5.8,0.8-5.8c0.5,0,1.3,0.4,1.8,1
			c0.5,0.5,2,1.7,3.4,2.6c1.4,0.9,3,2,3.5,2.4c1.4,1.2,7.7,3.5,8.9,3.2c0.6-0.1,1.3-0.8,1.7-1.5c1-1.9-0.1-3-2.5-2.6
			c-1.4,0.2-2.4,0-3.8-0.7c-3.4-1.7-8.2-5.1-9.6-6.8c-0.7-0.9-1.9-1.8-2.6-2.2c-1.2-0.5-1.4-1-1.6-3.8c-0.2-1.8-0.2-4-0.1-5.1
			l0.2-1.9l2.8,2.9c2,2.1,3.4,3.1,5,3.5c10,2.9,12.5,3.4,13.5,2.6c1-0.9,1-2.8-0.1-3.2c-0.5-0.2-2.6-0.6-4.8-1
			c-5.1-0.8-8.1-1.6-8.1-2.2c0-0.3-0.3-0.5-0.7-0.5s-1.2-0.7-1.9-1.5c-2-2.7-3.4-3.9-3.9-3.6c-0.9,0.5-1.5-1.7-1.4-5.4
			c0-3.3,0.1-3.6,0.8-3.2c3.3,2,5,3,8.3,4.9c1.1,0.6,6.2,2,7.3,2c0.4,0,0.9-0.5,1.1-1.1c0.4-1.3-1.3-2.9-3.1-2.9
			c-0.6,0-1.3-0.2-1.4-0.5c-0.2-0.3-0.9-0.5-1.5-0.5s-1.2-0.2-1.2-0.4c0-0.2-0.7-0.7-1.5-1c-1.9-0.8-9.8-8.5-9.8-9.5
			c0-0.8-2-2.9-2.9-2.9c-0.3,0-0.6,0.3-0.6,0.8c0,0.4-0.2,0.6-0.5,0.5c-0.5-0.3-0.7,0.3-0.5,1.8c0.2,1.7-1.9,6.4-3.4,7.9
			c-0.8,0.8-1.5,1.7-1.5,1.9c0,0.5-2.2,2.7-4.4,4.4c-0.9,0.7-1.9,1.5-2.3,1.8c-0.4,0.4-0.9,0.6-1.3,0.6c-0.3,0-1.2,0.5-1.9,1
			c-2.1,1.5-4,2.1-7,2c-2.7,0-2.9,0-2.9,1.2c0,1.7,1.8,2.8,4.1,2.4c1-0.2,1.9-0.5,2.1-0.7c0.1-0.2,0.8-0.4,1.4-0.4
			c0.6,0,1.8-0.4,2.7-1c0.9-0.5,1.9-1,2.3-1c0.4,0,1-0.3,1.5-0.8c0.4-0.4,0.8-0.7,0.9-0.7c0.7,0.3,3.3-1.5,6.4-4.6
			c2.1-2.1,3.9-3.6,4-3.4c0.3,0.3,0.1,3.2-0.4,5.5c-0.1,0.6-0.5,1-0.8,1c-0.3-0.1-0.7,0.5-0.8,1.3s-0.5,1.7-0.9,2.1s-0.7,1-0.7,1.4
			s-0.2,0.7-0.4,0.7s-1.3,0.8-2.3,1.8c-2.4,2.2-5,4.1-5.7,4.1c-0.5,0-1.2,0.3-3.5,1.5c-0.6,0.3-2.3,0.7-3.5,0.8
			c-2.8,0.2-3.4,0.4-3.4,1.6c0,0.9,1.5,2.5,2.3,2.5c2,0,11.5-4.1,11.5-5c0-0.2,0.3-0.4,0.7-0.4s1.2-0.4,1.8-1s1.3-1,1.6-1
			c0.2,0,0.9-0.5,1.6-1.2c2-2.2,2.7-1.7,2.6,2.1c-0.1,2.1-0.3,3.3-0.7,3.5c-0.3,0.1-0.6,0.8-0.6,1.5c0,1.6-2.4,4.3-5.2,6
			c-1,0.6-2.1,1.4-2.2,1.6c-0.2,0.3-0.4,0.4-0.6,0.4c-0.4-0.1-3.5,1.2-5.2,2.3c-0.7,0.4-1.8,0.6-2.6,0.5c-1.6-0.3-3.3,0.4-3.3,1.4
			c0,0.4,0.4,1,0.9,1.4c1.1,1,4.7,0.7,6-0.4c0.4-0.4,1-0.7,1.3-0.6c0.7,0.2,8.2-3.6,9-4.6c0.8-1.1,2.9-1.1,3.3-0.1
			c0.6,1.6,0.3,5.4-0.5,6.6c-1.1,1.7-2,2.5-2.5,2.5c-0.2,0-1.1,0.3-1.9,0.7c-3.9,1.9-6.6,3-9.3,4c-3.4,1.2-4.4,2.3-3.2,3.5
			c0.6,0.6,1.3,0.7,2.8,0.4c1.1-0.2,2.1-0.5,2.3-0.8c0.2-0.2,0.7-0.4,1.2-0.4s1.9-0.7,3-1.5s2.5-1.5,3-1.5s1.5-0.4,2.2-1
			c1.9-1.5,2.9-1.3,2.7,0.6c0,0.2-0.1,1.2-0.2,2.2c-0.1,1.1-0.7,2.9-1.5,4.1c-0.7,1.2-1.4,2.4-1.4,2.7c0,0.9-4.1,5-6.2,6.1
			c-1.1,0.6-2.3,1.3-2.7,1.5c-1.4,0.9-3.7,1.6-6.7,2.2c-3.1,0.6-4,1.5-2.6,2.9c1.1,1.1,3.9,1.5,5.1,0.7c0.6-0.4,1.8-0.8,2.8-1
			s1.8-0.6,1.8-0.8c0-0.3,0.4-0.5,0.9-0.5s1.4-0.4,1.9-1c0.6-0.5,1.2-1,1.4-1c0.4,0,3.7-2.5,5.4-4.1c0.8-0.7,1.6-1.3,1.8-1.3
			s0.4,1.9,0.4,4.3c0,2.4,0.3,7,0.6,10.2c0.4,3.3,0.6,9.9,0.6,14.8c0,9.3-0.5,11.8-2.1,11.9c-3.3,0.2-12.5,0.7-14,0.6
			c-1.4,0-2,0.2-2.2,0.8c-0.6,1.4-1.8,2.4-3.7,3.1c-1,0.3-1.8,0.8-1.8,1s-0.4,0.8-0.9,1.3s-2,2.3-3.3,3.9c-1.4,1.6-2.8,3.3-3.3,3.7
			c-1.6,1.5-3.8,4.7-4.1,6c-0.2,0.7-0.6,1.7-1.1,2.1c-0.4,0.4-0.7,0.8-0.7,0.9c0,0.1-1.7,2.7-3.7,5.8c-2.1,3.1-4.2,6.6-4.7,7.7
			c-0.5,1.1-1.2,2.1-1.4,2.1c-0.2,0-0.4,0.3-0.4,0.6s-0.3,0.9-0.6,1.3c-0.3,0.3-0.6,0.8-0.6,1s-0.7,1.9-1.7,3.8
			c-0.9,1.9-1.9,4.1-2.3,4.9c-0.4,0.8-1,2.4-1.5,3.5c-0.5,1.1-0.9,2.1-0.9,2.2s-0.2,0.5-0.4,0.8c-0.5,0.8-1.8,7.4-2.1,10.7
			c-0.1,1.6-0.4,3.1-0.5,3.3c-0.3,0.6-0.9,7.3-0.8,10.1c0.2,8.3,1.4,12.9,5.8,21.7c2.7,5.6,3.8,7.2,6.6,10c4.2,4.2,8.7,7.6,11.8,8.7
			c1.3,0.5,2.5,1,2.8,1.2s1.4,0.5,2.5,0.7s3,0.7,4.2,1.1c2,0.7,7,1.5,12.3,1.9c1.2,0.1,2.8,0.4,3.5,0.8c1.9,0.8,16.2-0.2,16.2-1.1
			c0-0.3,0.4-0.4,0.9-0.4s1.4-0.3,2.1-0.7c1.9-1.1,4.1-2.1,5.9-2.8c0.9-0.3,2.3-1,3-1.5s2.1-1.1,3.2-1.5c1.1-0.4,2.5-1.2,3.2-1.8
			c0.7-0.6,1.6-1.1,2-1.1s2-0.9,3.5-1.9c1.5-1.1,3.3-2.3,4-2.7c0.7-0.4,1.9-1.3,2.7-2c0.7-0.7,2.4-1.9,3.6-2.7
			c1.2-0.8,2.5-1.7,2.8-1.9c0.3-0.3,1.2-0.6,2.1-0.8c0.8-0.2,1.8-0.6,2.1-1s0.9-0.7,1.2-0.7c0.4,0,1.3-0.6,2-1.5
			c0.8-0.8,1.7-1.5,2-1.5s0.8-0.5,1.1-1.2s1.6-1.9,3-2.8s2.5-1.8,2.5-2s1-0.9,2.2-1.4s2.6-1.6,3-2.4c1.1-1.8,4.6-4,6.5-4
			s2.7,1,2.5,3.3c-0.2,1.9-0.3,2.1-5.6,5.9l-1.4,1l0.8,2.1c0.8,2,0.8,2.2,0,3.6c-0.5,0.8-1.2,1.9-1.7,2.5c-0.5,0.5-0.9,1.2-0.9,1.5
			s-0.8,1.4-1.7,2.3c-0.9,1-1.7,2-1.7,2.2c0,0.9-10.3,11-11.2,11c-0.2,0-0.8,0.4-1.3,0.9s-1.3,1.1-1.9,1.2c-0.6,0.1-1.5,1-2,1.8
			c-0.7,1.2-0.8,1.8-0.4,2.9c0.6,1.5,2,2.5,3.1,2.4c1-0.1,3.8-2.5,3.8-3.2c0-0.3,0.2-0.5,0.5-0.5c0.5,0,4.9-4.3,4.9-4.9
			c0-0.2,0.7-0.7,1.6-1.2c0.9-0.5,2.4-1.9,3.3-3.1c0.9-1.2,1.9-2.2,2.2-2.2c0.7,0,3.5-4,4.9-7c0.6-1.3,1.3-2.3,1.5-2.3
			c0.6,0,2.3-2.1,2.3-2.8c0-0.3,0.5-0.9,1-1.4s1-1.1,1-1.3c0-0.2,0.4-0.9,1-1.4c0.5-0.5,1-1.4,1-1.9s0.3-1.1,0.7-1.4
			c0.4-0.2,0.8-0.9,0.9-1.6c0.2-1.5,3.3-2.6,6.2-2.2c1.7,0.2,2.3,0.6,3.1,1.9c1.3,2.1,1.1,3.1-1.5,8.9c-1.7,3.9-3.1,6.7-4.6,9.3
			c-0.7,1.3-1.4,2.7-1.4,3.1s-0.2,0.7-0.4,0.7s-0.7,0.6-1.1,1.4c-0.4,0.8-1.3,2.2-2.2,3.4c-1.4,1.9-2.6,3.8-4.1,6.5
			c-0.4,0.6-1,1.3-1.4,1.5s-0.7,0.5-0.7,0.7c0,0.3-0.5,1-1,1.6c-1.6,1.7-3.9,5.5-3.9,6.3c0,0.4,0.5,1.3,1.2,1.9
			c0.9,0.9,1.5,1,2.7,0.8c0.8-0.2,1.5-0.6,1.5-1s0.3-0.9,0.7-1.2c0.4-0.3,0.7-0.7,0.6-0.9c-0.1-0.5,2.5-5.3,3.1-5.7
			c0.3-0.2,1.1-1.4,1.8-2.9c0.7-1.4,1.6-2.7,2-3c0.3-0.2,0.7-0.7,0.7-0.9c0-0.3,0.6-1.3,1.2-2.2c0.7-0.9,1.2-1.9,1.2-2.1
			c0-0.3,0.2-0.5,0.4-0.5c0.4,0,0.8-0.6,2.5-4c0.8-1.6,1.5-2.4,2.6-2.8c0.8-0.3,1.5-0.7,1.5-1s0-0.7,0-0.9c0.1-0.7,1.5-2,3.1-2.6
			c0.9-0.4,1.9-0.9,2.2-1.3c0.4-0.4,1-0.6,1.4-0.6s0.7-0.2,0.7-0.5c0-0.9,3.4-0.5,4.6,0.5c0.9,0.8,1.1,1.4,0.9,2.7
			c-0.1,0.9-0.4,1.7-0.6,1.7s-0.4,0.5-0.4,1.1s-0.5,2.3-1.1,3.8s-1.3,3.7-1.6,4.8c-0.3,1.1-0.7,2.1-0.9,2.1c-0.2,0-0.4,0.4-0.4,0.9
			s-0.4,1.4-1,2.1s-1,1.6-1,2s-0.2,1-0.4,1.2c-0.2,0.3-0.7,1.3-1.1,2.2c-0.7,1.9-5,8.8-8.4,13.6c-3.9,5.4-7.3,10.5-7.3,10.8
			c0,0.6-5.5,5.7-6.1,5.7c-0.4,0-0.8,0.3-1,0.7c-0.1,0.4-0.7,0.7-1.3,0.7c-0.5,0-1,0.3-1,0.7c0,0.4-1,1.4-2.1,2.2
			c-1.1,0.8-2.9,2.2-3.8,3c-0.9,0.8-1.9,1.5-2.1,1.5c-0.2,0-1.1,0.8-1.9,1.7c-0.8,0.9-1.8,1.7-2.1,1.7s-1,0.4-1.5,1
			c-0.5,0.5-1.2,1-1.5,1s-1.1,0.5-1.8,1c-0.6,0.6-2.1,1.5-3.3,2c-1.1,0.5-2.2,1.2-2.4,1.5s-0.8,0.7-1.4,1c-0.6,0.3-1.9,1-3,1.6
			c-5,2.9-8.7,4.8-9.3,4.8c-0.4,0-1,0.3-1.3,0.7c-0.3,0.4-1.1,0.7-1.7,0.7c-0.6,0-1.3,0.2-1.6,0.4c-0.8,0.7-4.6,1.9-8.6,2.8
			c-2,0.4-5.3,1.3-7.1,1.8c-1.9,0.5-4.3,1.2-5.4,1.4c-1.1,0.2-2.9,0.8-4.1,1.2c-4.2,1.5-15,2.4-27.9,2.4c-12.4,0-13.8-0.1-22-2.2
			c-1-0.3-2.9-0.5-4.3-0.5s-3.4-0.3-4.4-0.8c-1-0.4-2.6-1-3.5-1.2c-2-0.5-13-4.6-16-5.9c-5.9-2.7-9.1-4-9.7-4
			c-0.4,0-2.2-0.9-3.9-2.1c-1.7-1.1-3.7-2.3-4.4-2.6c-0.7-0.3-2.2-1.4-3.4-2.4c-1.2-1-2.4-1.8-2.7-1.8s-2.1-1.4-3.9-3.1
			c-1.8-1.7-4.6-4.3-6.2-5.7c-1.6-1.4-3.2-3.1-3.5-3.8c-0.3-0.6-0.9-1.2-1.3-1.2c-0.3,0-0.7-0.2-0.7-0.4c0-0.2-0.8-1.4-1.7-2.6
			s-1.7-2.4-1.7-2.8c0-0.3-0.5-0.7-1.1-0.7c-0.7-0.1-1.1-0.5-1.1-1.1c0-1.4-1.3-3.7-2-3.7c-0.3,0-0.6-0.4-0.6-0.9
			c0-2.1-1.2-3.8-2.6-3.6c-0.2,0-0.3-0.1-0.1-0.4s0.1-0.6-0.2-0.8c-0.3-0.2-0.5-0.9-0.5-1.5s-0.3-1.2-0.5-1.2
			c-0.3,0-0.4-0.3-0.3-0.6c0.1-0.4-0.1-0.9-0.5-1.3s-0.8-1.3-1-2.1c-0.1-0.8-0.6-1.7-1-2c-0.8-0.6-1-2.1-0.2-1.7
			c0.3,0.2,0.5,0.1,0.5-0.2c0-0.3-0.2-0.5-0.5-0.5s-0.4-0.3-0.3-0.6c0.1-0.3-0.2-1.4-0.7-2.2c-0.5-0.9-0.9-2.2-0.9-2.8
			c0-0.7-0.2-1.7-0.5-2.4c-0.9-2.4-1.6-16.3-1.8-33.3c-0.1-15.4,0-18.5,1-24.2c0.2-0.9,0.4-2.2,0.4-2.8c0.1-0.6,0.3-1.3,0.4-1.6
			c0.2-0.3,0.3-1.9,0.4-3.6c0-1.7,0.2-3.4,0.4-3.6c0.6-1,1.5-4,1.6-5c0-0.5,0.5-1.9,1-3.1c0.5-1.1,0.9-2.3,0.7-2.6s-0.1-0.5,0.2-0.5
			s0.5-0.3,0.5-0.7s0.4-1,1-1.5c0.5-0.5,0.9-1.1,0.7-1.5c-0.1-0.3,0.5-2,1.5-3.6c1-1.7,1.8-3.2,1.8-3.4c0.1-0.5,1.6-2.8,2.3-3.5
			c0.3-0.3,0.6-0.9,0.6-1.1c0-0.3,0.6-1.2,1.2-2.1c0.7-0.9,1.2-2,1.2-2.5s0.5-1.4,1.2-2.1c0.7-0.7,1.4-1.7,1.5-2.4
			c0.2-0.6,2-3.4,4.2-6.1c2.2-2.8,3.9-5.2,3.9-5.4s0.3-0.6,0.7-0.7c0.4-0.1,0.7-0.6,0.7-1s0.4-1.1,1-1.6c0.5-0.5,1-1.2,1-1.7
			c0-0.4,0.8-1.5,1.7-2.4s1.7-1.8,1.7-2.1s0.2-0.5,0.5-0.5s2.6-2.1,5.1-4.7c2.5-2.6,4.8-4.7,5-4.7c0.5,0,2.8-2.6,2.8-3.1
			c0-0.2,0.2-0.3,0.5-0.1s0.5,0.1,0.5-0.2s0.2-0.5,0.5-0.5s1.3-0.8,2.2-1.8c1-1,1.7-1.6,1.7-1.4c0,0.2,0.4-0.1,0.9-0.7
			c0.5-0.6,1.2-1.1,1.5-1.1s1.3-0.7,2.2-1.5c2.4-2.3,5.3-4.4,6-4.4c0.4,0,0.7-0.2,0.7-0.5s0.3-0.5,0.7-0.5c0.4,0,0.7-0.2,0.7-0.5
			s0.2-0.4,0.4-0.3c0.2,0.1,1-0.3,1.6-1c0.6-0.6,1.4-1.2,1.8-1.2s1.6-0.4,2.8-0.9c1.2-0.5,4-1.4,6.3-2.1c2.3-0.6,4.4-1.4,4.6-1.8
			c0.2-0.4,0.8-0.6,1.4-0.6s1-0.2,1-0.4c0-0.6,4-2,8.1-2.8c1.9-0.4,5.3-1.2,7.6-1.8c3.3-0.9,5-1,7.8-0.8c3.4,0.3,3.6,0.2,3.6-0.7
			c0-2.7-2.5-4.3-7.2-4.4c-2.7-0.1-6.1,0.6-7.3,1.5c-0.3,0.2-1.6,0.5-2.9,0.7c-4.7,0.7-7.8,1.5-10.7,2.9c-1.2,0.6-3.3,1.3-4.6,1.7
			c-1.3,0.4-3.1,1.1-4.1,1.7c-0.9,0.5-2.1,1-2.5,1c-2,0-14.6,7-16.4,9.2c-0.3,0.4-0.8,0.7-1.1,0.7c-0.3,0-1.6,0.9-2.9,2
			s-2.5,2-2.7,2s-3.2,2.9-6.8,6.4c-3.6,3.5-6.6,6.4-6.7,6.4c-0.9,0-5.5,4.2-5.5,5.2c0,0.3-0.8,1.3-1.7,2.2s-1.7,1.9-1.7,2.1
			c0,0.4-4.4,6.4-5.1,6.9c-0.2,0.2-0.8,1.1-1.4,2.1c-0.5,1-1.8,2.7-2.8,3.8c-1,1-2.1,2.4-2.5,3s-1.1,1.4-1.4,1.7
			c-0.3,0.3-0.6,1-0.6,1.3c0,0.4-0.3,0.9-0.7,1.2s-0.8,1.2-1,1.9c-0.1,0.7-0.8,1.9-1.4,2.6c-0.6,0.7-1.4,2.1-1.8,3.2
			c-0.4,1.1-1.2,2.5-1.8,3.1s-1.4,1.9-1.7,2.8c-0.3,0.9-0.7,1.7-0.9,1.7c-0.2,0-0.4,0.6-0.4,1.3s-0.3,1.6-0.7,2.1
			c-0.4,0.5-0.9,1.4-1,2.2c-0.2,0.7-0.6,1.6-1,2s-0.8,1.3-0.9,2.1s-0.5,2.2-0.8,3.2c-1.7,5.9-2.1,7.5-2.8,10.6
			c-0.4,1.9-0.9,4.1-1,4.9s-0.3,2.3-0.5,3.2c-0.8,5.1-1,8.7-1,14.1c0,3.4-0.1,6.1-0.3,6.1c-0.3,0-0.6,4.5-0.5,7.9
			c0.4,12.7,0.5,16,1,19c0.3,1.9,0.6,5.2,0.7,7.2c0.1,2.1,0.3,4,0.5,4.2c0.1,0.3,0.4,2.8,0.6,5.6c0.2,2.8,0.5,5.3,0.7,5.6
			c0.2,0.3,0.7,1.8,1.1,3.5c0.4,1.6,1.3,4.1,2,5.5s1.3,2.8,1.3,3.1c0,0.3,0.5,1.6,1.2,3.1c0.7,1.4,1.2,2.7,1.2,2.9
			c0,0.6,6.4,6.8,8.3,8.1c1,0.6,2.3,1.7,2.8,2.2c0.5,0.6,2,2,3.2,3.1c10.6,9.9,11.1,10.3,16.8,13.6c2,1.2,4.9,3,6.4,4
			s4.1,2.4,5.9,3.2c4.1,1.7,9.8,4.3,13.4,6.2c1.6,0.8,2.9,1.4,2.9,1.2c0-0.3,3.9,1.1,8.6,3c2.6,1.1,5,1.6,9.5,2
			c3.3,0.3,6.6,0.8,7.4,1.1c5.1,1.8,22.6,2.7,28.2,1.5c1.2-0.3,4-0.6,6.3-0.7c4.5-0.3,9.7-1.2,17.2-3c2.7-0.7,5.4-1.2,6-1.2
			s1.2-0.2,1.4-0.4c0.1-0.2,1-0.6,1.9-0.7s2.4-0.4,3.3-0.6c0.9-0.2,2.3-0.5,3-0.8s1.7-0.7,2.2-0.9c0.5-0.2,2-0.8,3.2-1.4
			c1.2-0.5,3-1.2,3.9-1.5c3.2-0.9,5.5-1.9,6.5-2.7c0.5-0.4,1.1-0.8,1.3-0.8s1.4-0.8,2.7-1.7c1.3-1,2.6-1.7,2.9-1.7
			c0.6,0,4.6-2.6,4.9-3.1c0.1-0.2,0.5-0.3,0.8-0.3c0.4,0,1.7-0.7,2.9-1.5s2.4-1.5,2.7-1.5s0.8-0.4,1.2-0.9c0.3-0.5,1.2-1.1,1.7-1.3
			c0.6-0.2,1.1-0.6,1.1-0.8c0-0.2,0.4-0.5,0.8-0.5c0.7,0,5.4-3.8,8.6-7c0.5-0.5,1.1-0.9,1.3-0.9s1.2-0.8,2.2-1.7c1-1,2-1.7,2.2-1.7
			c0.5,0,2.6-2.1,4.7-4.6c0.8-1,2.4-2.8,3.3-3.8c1-1,2.2-2.7,2.6-3.6c0.4-0.9,1.1-2,1.4-2.3c0.4-0.4,1.5-2.1,2.6-3.8
			c1.1-1.8,2.4-3.8,3.1-4.6c0.6-0.8,1.1-1.7,1.1-2s0.5-1.2,1-1.9c1.4-1.8,5.4-9.8,5.4-10.8c0-0.5,0.2-0.9,0.4-0.9
			c0.2,0,1-1.9,1.8-4.3c0.7-2.4,2-5.7,2.8-7.4c0.8-1.7,1.4-3.7,1.4-4.5c0-0.7,0.2-1.6,0.5-1.9s0.4-1.2,0.2-2c-0.3-1.8-4-5.2-6.4-5.8
			c-2.3-0.6-5.3-0.3-6.6,0.8c-1.7,1.3-2.7,1.2-2.3-0.2c1.8-5.6,1.3-8.8-1.6-11.6c-1.2-1.1-2.1-2.3-2.1-2.6c0-0.3,0.5-1.7,1.2-3.1
			s1.1-3,1.1-3.5c-0.1-0.6,0.2-1.2,0.9-1.5c0.6-0.3,1.1-0.9,1.2-1.5c0.2-1.4,2.5-6.2,3.6-7.3c0.5-0.5,1.2-2.4,1.7-4.2
			c0.5-1.8,1.3-3.8,1.8-4.5s0.9-1.4,0.9-1.6s0.4-0.8,1-1.4c0.5-0.6,1-1.3,1-1.7c0-0.3,0.2-0.6,0.4-0.6c0.2,0,0.9-1.2,1.5-2.7
			s2.1-4.1,3.3-5.9c1.2-1.8,2.2-3.5,2.2-3.9s0.7-1.3,1.5-2.1c1.7-1.6,6.4-8.3,6.4-9.1c0-0.3,0.3-0.7,0.6-0.9c0.3-0.2,0.9-1,1.2-1.7
			c0.3-0.7,0.8-1.4,1.1-1.4c0.3,0,0.5-0.3,0.5-0.7s1.3-2,2.8-3.7c1.6-1.7,3.3-3.8,3.8-4.7s1.4-2.2,2-2.8s1.5-2,2.1-3.1
			c1.6-3.1,2.2-3.2,5.5-1.5c1.6,0.8,3.1,2,3.4,2.6s1.1,1.7,1.7,2.4c1.9,2.2,4.3,6.2,5.6,9.4c1.3,3.3,3.5,7.3,4.5,8.5
			c0.4,0.4,0.7,1,0.7,1.3s1.4,2.7,3.2,5.3c1.8,2.7,3.2,5.2,3.2,5.7c0,0.4,0.3,1.1,0.7,1.4c0.4,0.3,1.2,1.8,1.8,3.4
			c0.6,1.5,1.6,3.6,2.3,4.5c0.6,0.9,1.1,1.9,1.1,2.1c0,0.4,3.4,5.5,3.9,5.8c0.7,0.5,2.7,4.8,3.3,7.3c0.4,1.4,1.2,3.4,1.9,4.5
			c0.7,1.1,1.2,2.3,1.2,2.6c0,0.3,0.3,1.1,0.7,1.7c0.4,0.6,1,2,1.3,3.3s0.8,2.4,1,2.6s0.4,1,0.4,2s0.4,2.3,1,3c0.5,0.7,1,1.7,1,2.2
			s0.7,2.2,1.5,3.7s1.5,3.3,1.5,3.9s0.3,1.4,0.7,1.7c1.5,1.2,0.9,2-1.6,2c-1.3,0-3.7,0.1-5.3,0.2c-8.9,0.6-39.5,0.7-41.4,0.2
			c-1.2-0.3-4.7-0.5-8.4-0.4c-8.6,0.2-11,0.1-12-0.4c-0.6-0.3-1.2-0.1-2.2,1c-1.3,1.3-1.4,1.6-0.8,2.9c0.9,2.1,1.6,2.6,4.7,2.8
			c1.5,0.1,2.9,0.3,3.1,0.4c0.1,0.1,0.5,0,0.8-0.2c0.8-0.7,9.4-0.9,15.6-0.4c3.3,0.3,5.8,0.2,7-0.1c1.2-0.3,3.8-0.3,8,0
			c4.6,0.4,7.4,0.4,10.8-0.1c2.5-0.3,6.2-0.7,8.2-0.8c2-0.1,6.2-0.3,9.2-0.5c4.3-0.3,5.7-0.2,6.3,0.3c1,0.8,6.8,0.8,9.8,0
			c1.3-0.4,3-0.4,4.8-0.1c2.1,0.3,3.4,0.3,5.2-0.2c2.8-0.8,15.3-1.1,27.7-0.6c17,0.7,21.1,0.6,25.1-0.7c2.8-0.9,5.1-1.2,9.4-1.3
			l5.7-0.1l1.4-1.6c1.4-1.7,1.7-3.3,0.8-4.9c-0.3-0.6-0.6-2.2-0.7-3.6s-0.2-2.8-0.4-3c-0.2-0.2-0.4-1.3-0.6-2.4
			c-0.6-3.9-0.9-5.4-1.1-7c-0.1-0.9-0.4-1.7-0.7-1.9c-0.2-0.2-0.4-0.7-0.4-1.2s-0.8-1.9-1.7-3.1c-0.9-1.2-1.7-2.5-1.7-2.8
			c0-1-2.6-4-3.4-4c-0.4,0-1.1-0.4-1.7-0.9c-1.4-1.3-5.5-2.5-9.7-2.8c-2-0.2-4.3-0.6-5.1-1c-2.1-1.1-5.2-4.1-5.2-5.2
			c0-1.3,5.3-6.9,9.9-10.4c3.9-3,7.8-5.2,13.5-7.8c1.4-0.6,2.8-1.3,3.2-1.5c1.3-0.6,1.2-3.1-0.2-4.4c-1-0.9-1.6-1.1-3-0.8
			c-1,0.2-1.7,0.5-1.7,0.8c0,0.2-1.8,1.4-4.1,2.5c-2.2,1.1-5,2.7-6.2,3.5s-2.2,1.4-2.4,1.4c-0.1,0-1.3,0.8-2.4,1.8
			c-1.2,1-2.2,1.7-2.2,1.6c0-0.1-1.5,1.2-3.4,3s-3.4,3.4-3.4,3.6c0,0.8-8.1,8.6-9.9,9.4c-0.9,0.5-2.1,1-2.5,1.3
			c-1.5,0.8-4.3,1.5-5.1,1.2c-0.4-0.2-1.2-1-1.8-1.9c-0.8-1.3-0.9-2.1-0.7-3.6c0.2-1.1,0.5-2,0.8-2c0.2,0,0.4-0.3,0.4-0.7
			c0-0.4,0.3-1,0.7-1.3c0.4-0.3,1-1.4,1.3-2.4s0.8-2,1.2-2.3c0.3-0.3,0.8-1.1,0.9-1.9c0.2-0.7,0.6-1.7,1-2.2s1.8-2.4,3.2-4.3
			c4.7-6.4,7.9-8.9,17.6-13.7c1-0.5,1.6-1.6,1.6-3.1c0-1.6-4.4-3.6-5-2.2c-0.3,0.7-3.6,2.9-5.3,3.6c-1,0.4-2.8,1.6-4.2,2.7
			c-2.2,1.8-3.4,2.9-7.6,7.4c-1.5,1.6-6,8.1-7.6,11.1c-0.5,0.9-1.4,2.3-2.1,3c-0.6,0.7-1.4,1.7-1.6,2.2c-0.3,0.6-1.1,1.3-1.9,1.7
			c-0.8,0.4-1.7,1-2,1.3c-1.7,1.6-5-0.7-5-3.5c0-2,3.4-8,6.1-10.7c1.4-1.4,2.4-3,2.7-4.2c0.3-1.1,1-2.4,1.5-2.9s1-1.2,1-1.5
			s0.8-1.3,1.7-2c0.9-0.7,1.7-1.5,1.7-1.7c0-0.6,3.5-3.8,4.2-3.8c0.3,0,1-0.4,1.5-1c0.5-0.5,1.1-1,1.4-1s1.2-0.3,2.1-0.8
			c1.4-0.6,1.7-1.1,1.7-2.3c0-2.2-0.5-2.8-2.8-3.1c-2.2-0.3-4.1,0.5-6.8,2.7c-2.7,2.3-13.6,13.6-13.6,14.1c0,0.3-0.6,1.1-1.5,1.9
			c-1.8,1.7-4.3,5.4-4.7,7c-0.3,1.1-1.5,2.7-4.5,5.9c-0.5,0.5-1.7,2-2.6,3.1c-0.9,1.1-1.9,2.1-2.3,2.1c-1.1,0-2.7-2.1-2.7-3.6
			c0-0.8-0.3-1.8-0.7-2.3c-0.5-0.6-0.6-1.4-0.2-4c0.3-1.8,0.7-3.5,0.9-3.9c0.2-0.4,0.7-1.3,0.9-2c0.6-1.5,2-4.1,2.4-4.4
			c0.2-0.1,0.8-1.1,1.3-2.2c0.6-1.1,1.5-2.2,2.1-2.4c0.6-0.3,1.7-1.7,2.4-3.1c0.8-1.4,1.9-3.5,2.4-4.6c0.6-1.1,1.5-2.5,2-3.1
			s1.6-2.3,2.4-3.7c1.7-3.2,7.7-9.4,9-9.4c0.2,0,1.1-0.5,1.8-1.2c0.8-0.6,2.2-1.3,3.1-1.5s2-0.6,2.3-0.9c0.3-0.3,0.9-0.4,1.2-0.3
			c0.3,0.1,1.2-0.2,1.8-0.7c0.6-0.5,1.6-0.9,2.1-0.9s1.7-0.3,2.6-0.7s2.5-0.8,3.7-1c1.9-0.3,2-0.3,2,0.9c0,0.7-0.3,1.9-0.6,2.8
			c-0.5,1.4-0.4,1.7,0.4,2.5c1.6,1.5,3.3,1.6,4.6,0.3c1-1.1,1.1-1.4,0.6-2.8c-0.4-1.2-0.4-1.9,0.2-3.3l0.7-1.7l3.8,0.2
			c3.8,0.2,11.4,1.3,15.2,2.3c2.5,0.6,10.2,4.4,10.8,5.3c0.2,0.3,0.7,0.6,1.1,0.6c0.8,0,5.8,3.3,6,4c0.1,0.2,1.3,1.5,2.7,2.8
			c3.1,2.8,7.5,7.4,9.4,9.6c0.8,1,1.9,3.2,2.5,5.3c0.6,2,1.6,4.4,2.1,5.4c0.6,0.9,1.1,2.1,1.1,2.5s0.3,1.3,0.6,2
			c0.4,0.7,0.7,2.1,0.8,3.2c0.1,1.8,2.7,10.2,3.5,11.3c0.9,1.2,1.1,3.9,1.2,11.6c0,5.9,0.2,8.5,0.7,9c0.9,1.1,1.1,8.5,0.2,10.9
			c-0.4,1.1-0.8,4.2-1,6.9c-0.2,2.7-0.6,5.7-1,6.6s-0.7,2.1-0.7,2.6s-0.2,0.9-0.5,0.9s-0.5,0.4-0.5,1c0,0.5-0.2,1.5-0.4,2.1
			c-0.2,0.6-0.8,2.5-1.3,4.1s-1,3.4-1.2,3.9s-0.7,2-1.2,3.3c-0.4,1.3-1.9,3.8-3.2,5.5c-1.3,1.8-2.3,3.2-2.1,3.2
			c0.2,0-0.5,0.8-1.5,1.7c-1,1-1.8,1.8-1.8,1.9s-1.3,1.5-3,3.2c-1.6,1.7-3,3.3-3,3.5c0,0.7-9.8,10.2-11.4,11.2
			c-0.7,0.4-1.4,1-1.4,1.2s-1,1-2.1,1.7s-2.6,1.8-3.2,2.3c-0.6,0.6-2.6,1.8-4.4,2.7c-1.9,0.9-4,2.1-4.7,2.6s-1.7,0.9-2.1,0.9
			s-0.9,0.3-1.1,0.7c-0.1,0.4-0.6,0.7-0.9,0.7s-0.9,0.3-1.2,0.7c-0.3,0.4-1.2,0.7-2,0.7s-1.6,0.2-1.7,0.5c-0.4,0.6-2.7,1.6-3.4,1.5
			c-0.2-0.1-0.6,0.2-0.8,0.5c-0.2,0.3-1.3,0.7-2.4,0.8c-1.1,0.2-2,0.5-2,0.8s-0.1,0.4-0.3,0.2c-0.2-0.2-0.6-0.1-0.9,0.1
			c-0.9,0.7-3.8,1.6-7.7,2.3c-2,0.4-5.4,1.1-7.4,1.7c-2,0.5-3.8,0.9-4,0.7c-0.2-0.1-2.1,0.1-4.2,0.5c-5.4,1-7.5,1.3-10.2,1.3
			c-1.3,0-3.4,0.3-4.7,0.7c-1.2,0.4-3.9,0.9-6,1c-5.7,0.4-19.2,0.5-22,0.1c-9.7-1.4-15.2-2.4-17.6-3.3c-1.5-0.6-5.2-1.4-8-1.8
			c-2.9-0.4-6.4-1.1-7.8-1.5s-3.5-0.9-4.8-1.2c-1.2-0.2-3.9-0.9-5.9-1.5s-4.6-1.3-5.7-1.6c-4.2-1-15.4-6.3-15.9-7.4
			c-0.1-0.2-1-0.5-2-0.7c-3.1-0.5-6.6-1.9-8.9-3.3c-1.2-0.8-2.4-1.4-2.7-1.3c-0.9,0-2.3,1.3-2.3,2.1c0,1.7,7.9,6.2,10.9,6.3
			c0.5,0,1.7,0.4,2.7,1s2.1,1,2.4,1s0.9,0.3,1.2,0.7c1.3,1.6,10.5,5.6,15.8,6.9c5.6,1.4,6.3,1.6,6.9,2c0.5,0.3,3.8,1.2,10.3,2.7
			c1.2,0.3,5.1,1.1,8.6,1.8c3.5,0.7,7,1.6,7.8,2s2.6,0.8,4.2,1c1.5,0.1,4.3,0.6,6,1s4,0.9,5,1c5.8,0.6,22.2,0,27.2-0.9
			c2.1-0.4,5.3-0.7,7.1-0.8c1.9-0.1,4.4-0.3,5.6-0.6c1.2-0.3,2.9-0.6,3.7-0.7c6.1-0.9,8.5-1.3,9.4-1.7c1.4-0.6,6.3-1.5,6.6-1.2
			c0.1,0.1,0.5,0,0.8-0.2c0.5-0.4,5.1-1.7,7.7-2.2c0.9-0.2,2.5-0.7,3.6-1.3c0.5-0.3,1.2-0.5,1.5-0.5c1.2,0,7-2.1,7.8-2.8
			c0.4-0.4,1.3-0.7,1.8-0.7s1.1-0.3,1.3-0.7c0.1-0.4,0.7-0.7,1.3-0.7c0.5,0,1-0.2,1-0.5s0.4-0.5,1-0.5c0.5,0,1-0.2,1-0.5
			c0-0.2,0.5-0.6,1.1-0.8c0.6-0.2,1.9-0.9,2.8-1.7c0.9-0.7,2.6-1.7,3.5-2.2c5-2.3,18-13.4,17.5-14.9c-0.2-0.4,0.1-0.9,0.6-1.2
			c0.5-0.3,1.4-1.3,2-2.3s1.7-2.3,2.4-2.8c2.2-1.7,6.5-6.5,6.5-7.2c0-0.3,0.9-1.5,2.1-2.8s2.5-3.3,3.1-4.5c0.5-1.2,1.3-2.8,1.8-3.5
			s0.9-2.2,0.9-3.3c0-1.2,0.3-2.2,0.8-2.6c0.4-0.4,0.7-0.9,0.5-1.3c-0.3-0.8,0.4-3.1,2.3-7.1c1.1-2.3,1.7-4.6,2.1-8.4
			c0.3-2.8,0.5-5.3,0.4-5.5s0.1-1.7,0.5-3.5C474.3,283.9,474.4,282.6,473.2,279.5z M38.6,357.2c-0.3,0-0.5-0.2-0.5-0.5
			s0.1-0.5,0.2-0.5c0.1,0,0.3,0.2,0.5,0.5S38.9,357.2,38.6,357.2z M288.7,212.8c-0.4,0.3-0.7,0.9-0.7,1.3c0,0.7-0.4,1.3-2.1,3.2
			c-0.4,0.5-0.9,1.1-0.9,1.3s-0.7,1-1.5,1.8c-2.1,2-6.4,7.4-6.4,8.1c0,0.3-0.3,0.7-0.7,0.9c-0.4,0.1-0.7,0.5-0.7,0.8
			c0,0.9-4.2,6.9-6.6,9.3c-1.2,1.3-2.2,2.6-2.2,2.9c0,0.3-0.6,1.3-1.2,2.2c-0.7,0.9-1.2,1.8-1.3,2c0,0.2-1,1.9-2.2,3.8
			c-1.2,1.9-2.4,4-2.7,4.7c-0.3,0.7-0.9,1.7-1.4,2.2c-0.8,0.9-1.6,2.4-3.7,7.3c-0.4,1-0.8,2.1-0.8,2.4s-0.5,1.2-1.2,2.1
			s-1.8,3.1-2.5,5s-2,4.8-2.8,6.4s-1.5,3.2-1.5,3.5s-0.5,1.1-1.2,1.7c-0.6,0.6-1.1,1.4-1,1.7c0.4,1.1-0.8,2.7-2,2.7
			c-0.8,0-1.1-0.3-1-0.9c0.1-0.9-1.4-4.2-2.3-4.9c-1-0.8-7.6-1.1-10.2-0.4c-2.4,0.6-6.4,3.5-6.4,4.6c0,0.7-1.5,2.3-4.5,4.5
			c-1.2,0.9-2.3,1.9-2.4,2.1c-0.1,0.2-1.2,1.1-2.4,2s-2.6,1.9-3,2.2c-2,1.7-4.7,3.6-5.3,3.6c-0.3,0-1.7,0.8-3.1,1.7
			c-1.4,0.9-2.7,1.7-3,1.7s-0.8,0.4-1.1,0.9c-0.8,1.2-6.8,5.3-8.3,5.8c-0.6,0.2-1.8,0.8-2.5,1.3s-2,1.3-2.7,1.8
			c-2.4,1.6-8.6,4.5-9,4.2c-0.3-0.2-0.4,0-0.4,0.2c0,0.3-0.3,0.5-0.6,0.5s-1.6,0.7-2.9,1.5c-1.3,0.8-2.8,1.4-3.3,1.4s-2,0.2-3.4,0.5
			c-1.6,0.3-2.7,0.3-3,0s-0.7-0.3-0.9,0c-0.4,0.6-3.3,0.7-6,0.1c-1.1-0.2-4.3-0.6-7.1-0.7c-4.7-0.2-8.3-1-9.1-1.9
			c-0.2-0.2-1-0.3-1.7-0.3s-1.5-0.2-1.7-0.5s-1.5-0.7-2.9-1c-3.8-0.8-7.4-3.3-14.4-9.9c-1.5-1.4-5.6-8.3-5.6-9.4
			c0-0.3-0.5-1.1-1-1.9c-1.8-2.5-2.4-7.7-2.2-17.5c0.1-5.2,0.4-9.3,0.7-10c0.3-0.6,0.5-2.5,0.5-4.3c0-2.9,0.3-3.8,2.5-8.2
			c1.4-2.8,2.5-5.4,2.5-5.9s0.3-1.3,0.7-1.7c0.4-0.4,0.7-1.1,0.7-1.5s0.3-1,0.7-1.3c0.4-0.3,0.9-1.1,1-1.6s0.7-1.5,1.2-2
			c0.5-0.6,1.2-2,1.7-3.3s1.2-2.6,1.6-2.9c0.4-0.3,0.7-0.8,0.7-1s0.5-1,1.2-1.7s1.2-1.7,1.2-2.1c0-0.5,0.6-1.3,1.5-1.9
			c0.8-0.6,1.4-1.2,1.4-1.4c-0.2-0.7,3.3-7.3,4.1-7.9c0.5-0.4,0.9-0.9,0.9-1.3c0-0.3,0.9-1.5,1.9-2.4c1-1,2.1-2.2,2.2-2.8
			c0.2-0.5,0.6-1,1-1s1.1-0.5,1.8-1.2c0.6-0.7,1.5-1.2,2-1.2s1.2-0.6,1.7-1.5s1.3-1.6,2.1-1.8c0.7-0.2,1.5-0.5,1.7-0.8
			c0.4-0.6,9.5-1.2,11.7-0.7c3.6,0.8,9.2,1.6,10.1,1.6c0.5,0,2-0.1,3.2-0.2c1.2-0.1,2.6-0.3,3.1-0.6c1.5-0.8,12.8-2.3,15.6-2.1
			c1.5,0.1,4.5,0.4,6.7,0.7c3.7,0.5,24.4,0.4,35.5-0.2c13.1-0.7,24.7-0.7,27.4,0c4,1.1,12.4,2.1,19.5,2.4c3.5,0.1,6.5,0.5,6.8,0.8
			s1,0.5,1.6,0.5C289.6,210.8,289.8,211.9,288.7,212.8z M355,230.8c-0.8,1.4-1.9,3.4-2.4,4.5c-0.6,1.1-1.3,2.3-1.7,2.6
			c-0.4,0.4-0.8,0.9-0.8,1.3c0,0.4-0.4,1.4-0.8,2.3c-1.3,2.5-2.3,8.2-1.7,10.2c0.8,3.1,1.7,6.6,1.7,7.4c0,0.4,0.8,1.7,1.7,2.9
			c1.9,2.4,4,3,8,2.1c2.5-0.5,4.4-1.9,5.1-3.7c0.1-0.3,1.1,0.3,2.4,1.5c3,2.8,6.5,4.4,9.7,4.2l2.6-0.1l0.6,2c0.7,2.4,2,3.7,5.4,5.6
			c3.1,1.7,5.1,1.5,9.6-0.7c1.6-0.8,3.2-1.4,3.5-1.4s0.6-0.2,0.6-0.5s0.3-0.5,0.7-0.5c0.4,0,1.2-0.5,1.8-1.2
			c0.6-0.7,1.3-1.2,1.5-1.2s2,1.4,4,3c4.2,3.6,5.6,4.2,9.6,4.5c5.1,0.5,7.7,1.5,9.8,4.1c2.7,3.2,3.1,4.1,4,9c0.4,2.3,1,4.8,1.2,5.4
			c0.8,2.1,1.1,6.7,0.5,8.9c-0.5,1.8-0.8,2.1-1.6,1.9c-0.5-0.1-2.9,0.1-5.3,0.5c-9.3,1.5-10.7,1.7-12.2,1.5s-17.9-0.7-26.1-0.8
			c-5.1,0-13.5,0.3-20.7,0.7c-2.7,0.2-6,0.4-7.3,0.5c-2.4,0.1-4.8-1-4.8-2.3c0-1-2.1-5-3.4-6.4c-1.5-1.6-2.5-4.4-2.5-6.9
			c0-1-0.5-3-1.2-4.4c-4.3-9.6-5.1-11.7-5.4-13.6c-0.2-1.1-0.9-2.7-1.5-3.6c-0.7-0.9-1.2-1.9-1.2-2.2c0-0.3-0.3-0.7-0.7-0.8
			c-0.4-0.1-1.1-1-1.5-1.9c-0.5-0.9-1.3-2.3-1.8-3.1c-0.5-0.8-1.3-2.1-1.7-3c-0.4-0.8-0.9-1.8-1.2-2.2c-0.2-0.4-1-2-1.6-3.5
			c-1.2-2.8-1.5-3.3-5.4-8.3c-1.3-1.7-2.4-3.4-2.4-3.6c0-0.2-0.4-0.9-0.9-1.4s-1.2-2-1.5-3.2c-0.4-1.2-1.1-2.5-1.6-2.9
			c-0.5-0.3-1.2-1.3-1.5-2.1s-1-2-1.5-2.6s-1-2-1.2-3s-0.8-2.3-1.3-2.8c-0.6-0.5-1.3-1.7-1.7-2.6c-0.4-0.9-1.5-2.5-2.4-3.6
			c-0.9-1-1.7-2.1-1.7-2.3c0-0.6,2.2-1.7,4.3-2.1c1-0.2,6.1-0.3,11.3-0.2c7.3,0.1,9.8,0.3,11.3,0.9c1,0.4,2.2,0.8,2.6,0.8
			c1.2,0,4.6,1.7,4.6,2.3c0,0.4,0.5,0.6,1.2,0.6c0.8,0,1.2,0.3,1.2,0.8c0,0.4,1.3,2.2,2.9,3.8c1.6,1.7,3,3.3,3.1,3.5
			c0.3,0.6,4.8,2.2,6.2,2.2C356.7,227.6,356.7,227.8,355,230.8z M399.1,154.7c-1.2,0-0.9-1.2,0.6-2.1c1.7-1,2.6-1.1,2.6-0.2
			C402.3,153.2,400.2,154.7,399.1,154.7z"/>
		<path class="st5" d="M100.1,119.5c1.8,0.3,2.5,0.6,2.7,1.3c0.2,0.5,0.2,1.1,0,1.4s0.1,0.9,0.7,1.6c0.8,0.9,1.1,1,2.1,0.6
			c0.9-0.4,1.2-1,1.3-2.2c0.2-2.1,0.9-2.9,2.6-2.9c1.3,0,1.4-0.2,1.4-1.5s-0.2-1.5-1.7-1.8c-1.8-0.3-2.3-1.2-2.3-3.8
			c0-1.3-1.5-2.9-2.9-2.9c-0.5,0-0.6,0.7-0.4,3.4l0.2,3.5l-1.8,0.5c-1,0.3-2.4,0.5-3.2,0.5c-1,0-1.4,0.2-1.4,1
			C97.7,118.9,98.2,119.2,100.1,119.5z"/>
		<path class="st5" d="M195.3,86.2c1.8,0.3,2.5,0.6,2.7,1.3c0.2,0.5,0.2,1.1,0,1.4s0.1,0.9,0.7,1.6c0.8,0.9,1.1,1,2.1,0.6
			c0.9-0.4,1.2-1,1.3-2.2c0.2-2.1,0.9-2.9,2.6-2.9c1.3,0,1.4-0.2,1.4-1.5s-0.2-1.5-1.7-1.8c-1.8-0.3-2.3-1.2-2.3-3.8
			c0-1.3-1.5-2.9-2.9-2.9c-0.5,0-0.6,0.7-0.4,3.4l0.2,3.5l-1.8,0.5c-1,0.3-2.4,0.5-3.2,0.5c-1,0-1.4,0.2-1.4,1
			C192.9,85.7,193.4,85.9,195.3,86.2z"/>
		<path class="st5" d="M239.2,70.7c1.8,0.3,2.5,0.6,2.7,1.3c0.2,0.5,0.2,1.1,0,1.4s0.1,0.9,0.7,1.6c0.8,0.9,1.1,1,2.1,0.6
			c0.9-0.4,1.2-1,1.3-2.2c0.2-2.1,0.9-2.9,2.6-2.9c1.3,0,1.4-0.2,1.4-1.5s-0.2-1.5-1.7-1.8c-1.8-0.3-2.3-1.2-2.3-3.8
			c0-1.3-1.5-2.9-2.9-2.9c-0.5,0-0.6,0.7-0.4,3.4l0.2,3.5l-1.8,0.5c-1,0.3-2.4,0.5-3.2,0.5c-1,0-1.4,0.2-1.4,1
			C236.7,70.2,237.2,70.4,239.2,70.7z"/>
		<path class="st5" d="M269.3,98.2c1.8,0.3,2.5,0.6,2.7,1.3c0.2,0.5,0.2,1.1,0,1.4s0.1,0.9,0.7,1.6c0.8,0.9,1.1,1,2.1,0.6
			c0.9-0.4,1.2-1,1.3-2.2c0.2-2.1,0.9-2.9,2.6-2.9c1.3,0,1.4-0.2,1.4-1.5s-0.2-1.5-1.7-1.8c-1.8-0.3-2.3-1.2-2.3-3.8
			c0-1.3-1.5-2.9-2.9-2.9c-0.5,0-0.6,0.7-0.4,3.4l0.2,3.4l-1.8,0.5c-1,0.3-2.4,0.5-3.2,0.5c-1,0-1.4,0.2-1.4,1
			C266.8,97.7,267.3,97.9,269.3,98.2z"/>
		<path class="st5" d="M320,127.4c1.8,0.3,2.5,0.6,2.7,1.3c0.2,0.5,0.2,1.1,0,1.4c-0.2,0.3,0.1,0.9,0.7,1.6c0.8,0.9,1.1,1,2.1,0.6
			c0.9-0.4,1.2-1,1.3-2.2c0.2-2.1,0.9-2.9,2.6-2.9c1.3,0,1.4-0.2,1.4-1.5s-0.2-1.5-1.7-1.8c-1.8-0.3-2.3-1.2-2.3-3.8
			c0-1.3-1.5-2.9-2.9-2.9c-0.5,0-0.6,0.7-0.4,3.4l0.2,3.5l-1.8,0.5c-1,0.3-2.4,0.5-3.2,0.5c-1,0-1.4,0.2-1.4,1
			C317.5,126.9,318,127.2,320,127.4z"/>
		<path class="st5" d="M268.3,159.5c1.4,0.4,1.8,0.3,3.2-1c0.9-0.8,1.9-1.4,2.1-1.4c0.8,0,5.2-3.6,5.9-4.8c0.9-1.6,1.4-1.4,1.5,0.5
			c0.4,7.8,0.2,8.7-1.9,8.7c-0.7,0-2.3,0.7-3.5,1.5s-2.6,1.5-3.2,1.5c-0.5,0-1,0.2-1,0.4s-0.7,0.7-1.7,1c-0.9,0.3-2,1-2.3,1.4
			c-1.4,1.7,2.5,2.5,5.7,1.1c3.5-1.5,6-2.8,6.5-3.4c0.4-0.5,0.7-0.6,1-0.2c0.2,0.3,0.3,5.8,0.3,12.2l-0.1,11.6l1.4,1.2
			c1.7,1.5,2.9,1.6,4,0.4c1.1-1.2,1-2.5-0.1-4.8c-0.5-1-1-2.9-1-4.1c-0.1-4.4,0.1-12.6,0.4-13c0.1-0.2,1,0,1.8,0.5
			c0.9,0.5,2.8,1.2,4.4,1.6c2.6,0.6,3,0.5,3.8-0.2c2-1.8,0.7-3.7-2.6-3.7c-2,0-5.1-1.4-6.9-3.2c-1.1-1.1-1.3-1.6-1.2-3.3
			c0.1-1.1,0.3-2,0.5-2c4.3,0.7,9.8,1.2,10.4,1c0.4-0.2,1-0.9,1.3-1.7c0.7-1.9-0.4-2.7-3.7-2.3c-2.9,0.3-6.3-0.4-7.6-1.7
			c-0.7-0.7-0.9-1.8-1-4.7c-0.1-2.1,0-3.8,0.2-3.8c0.1,0,1.8,0.9,3.8,1.9c3,1.6,3.7,1.8,4.6,1.4c1.9-0.9,1.2-2.2-1.8-3.8
			c-1.8-0.9-3.2-2.2-3.6-3.2c-0.2-0.5-0.9-1.1-1.6-1.3c-0.7-0.3-2.3-1.5-3.5-2.7s-2.4-2.2-2.7-2.2c-0.3,0-1,0.7-1.5,1.6
			c-0.5,0.9-1,1.8-1,2.1c0,0.8-3.7,4.6-4.5,4.6c-1.3,0-3.4,1.3-3.4,2.1c0,0.4,0.6,1.2,1.2,1.6c1.2,0.8,1.3,0.7,4.1-1
			c1.6-1,3.2-2.2,3.7-2.8c1.5-1.8,2.1-1.2,2.2,2.3l0.1,3.3l-1.4-0.3c-1.7-0.3-3,0.1-3,0.9c0,1-4.8,5.2-5.9,5.2c-0.6,0-1,0.2-1,0.5
			s-0.4,0.5-0.9,0.5c-1.1,0-2.6,1.5-2.6,2.6C266.7,158.7,267.4,159.2,268.3,159.5z"/>
		<path class="st5" d="M285.5,264.8c3.1,0,4.1-0.2,4.6-0.8c1-1.2,1-1.5-0.3-2.7c-0.8-0.7-1.8-1.1-3.4-1.1c-1.2,0-3.2-0.2-4.4-0.3
			c-1.5-0.2-2.4-0.1-2.8,0.3c-1,1-0.8,1.6,0.9,3.2C281.5,264.7,281.8,264.8,285.5,264.8z"/>
		<path class="st5" d="M271.3,270.8l-3.1-0.2v1.4c0,1.5,1.5,3.1,3.1,3.3c0.6,0.1,3.4,0.3,6.2,0.4c4.4,0.3,5.2,0.2,6-0.5
			c2.2-2,0.2-4.3-3.1-3.6c-1.1,0.3-2.4,0.3-2.8,0.1C276.6,271.3,275.1,271,271.3,270.8z"/>
		<path class="st5" d="M261.8,284.3c-1.2,1.2-1.2,1.6,0.1,2.7c0.9,0.8,2,0.9,10.2,1.1c5.1,0.1,10.4,0.4,11.8,0.7
			c2.3,0.5,2.8,0.4,3.6-0.3c2.1-1.9,0.3-4.5-2.7-4c-0.9,0.2-2.8,0.1-4.1-0.2c-1.3-0.3-5.9-0.6-10.2-0.7
			C263.3,283.4,262.7,283.4,261.8,284.3z"/>
		<path class="st5" d="M278.5,395.3c-0.5-0.5-0.9-1-0.9-1.3c0-0.2-0.9-1.6-2-3.1c-2-2.8-3.6-3.4-5.4-2.2c-1.3,0.8,2.6,7.4,6.8,11.6
			c2,2,3.9,3.7,4.2,3.7c0.3,0,0.9-0.6,1.3-1.4c0.6-1,0.7-1.6,0.3-2.3C282.3,399.4,280.2,397,278.5,395.3z"/>
		<path class="st5" d="M234.3,389.9c-0.7,0-1.6-0.1-1.9-0.3c-0.3-0.2-0.6-0.2-0.8,0s-0.3,0.9-0.3,1.7c0,1.7-2.3,6.3-3.5,7.2
			c-1.1,0.8-1.1,3.2-0.1,4.2c1.3,1.3,2.5,0.9,3.5-1.1c1.8-3.6,4.6-7.5,5.4-7.5c0.6,0,0.7-0.3,0.5-1.6
			C236.5,390.4,235.9,389.8,234.3,389.9z"/>
		<path class="st5" d="M255,410.4c0.2-8.1-0.2-18.2-0.7-18.6c-1.2-1-3.1-1.1-3.8-0.3c-0.5,0.6-0.6,3.1-0.6,10.6
			c0,5.4-0.2,9.9-0.4,10.1c-0.4,0.2-0.3,2.1,0.1,2.5c0.1,0.1,1.2,0.3,2.5,0.5c1.8,0.2,2.4,0.1,3.1-0.5c0.6-0.6,0.7-1,0.3-1.5
			C255.2,412.9,254.9,411.6,255,410.4z"/>
		<path class="st5" d="M146.7,274.4c0.7-0.7-1.1-2.9-2.3-2.9c-0.6,0-1.5-0.1-2.1-0.3c-0.5-0.1-1.2-0.1-1.3,0.1
			c-0.2,0.2-4.5,0.4-9.6,0.4c-10.1,0.1-10.6,0.3-7.5,2.5l1.7,1.2l10.4-0.3C141.6,275,146.4,274.6,146.7,274.4z"/>
		<path class="st5" d="M144.4,288.2h5.5l-0.3-1.4c-0.2-0.7-0.6-1.6-1-1.9s-3.9-0.7-8.2-0.8c-5.2-0.2-8.1-0.5-9.3-1.1
			c-2.2-1-3-1-3.7-0.2c-1,1-0.6,2.2,0.9,3.3c0.8,0.6,1.6,1,1.8,0.9s2.2,0.1,4.6,0.4C137,287.9,141.3,288.2,144.4,288.2z"/>
		<path class="st5" d="M162.4,301.8c-0.5-0.2-3.1-0.3-5.8-0.2c-2.7,0.1-5.4,0.1-5.9,0.1c-2.5,0-12.1-0.7-13.4-1.1
			c-0.8-0.2-2-0.3-2.8-0.2c-1.2,0.1-1.4,0.4-1.2,1.5c0.1,0.9,0.6,1.6,1.6,2c1.7,0.8,10.6,1.5,20.6,1.7c6.5,0.1,7.2,0,7.8-0.8
			C163.9,303.7,163.5,302.2,162.4,301.8z"/>
	</g>
</g>
<g id="Layer_2">
	<path class="st6" d="M154,302.7c-19.8,1.8-52.5,13.6-59.3,0s-11.9-140-11.9-140s54.7-13.6,68.3-3.9c13.6,9.7,46.3,10.2,91.4,11.7
		c45,1.5,122.5-27.2,150.7-42.8c25-13.8,26.3,38.2,23.3,62.2s2.9,86.5-6.8,94.3c-9.7,7.8-32.5-5.2-71,7.8
		c-27.2,9.2-54.3,27.9-83.6,29.2C184.5,324.2,196.7,298.8,154,302.7z"/>
	<path class="st2" d="M12,269.7c0,0,14.4-14.1,35-45.7c12.4-19,35.7-12.1,44.7-13.6s48.1-13.1,48.1-13.1s3.6,19.1-9.2,29.6
		c-16.5,13.6-37.9,23.3-37.9,23.3l6.6,59.6c0,0,0.5,10.5,18.5,4.5c8.6-2.9,12.9-3.4,47.5-16.5c0,0-11.6,10.9-16,20
		c-2.5,5.1-8,37-8,37l-10.5-9c0,0-4.5,18-16.5,17.3c-12-0.8-15-12.8-15-12.8s-35.3,35.3-69,32.3c-33.8-3-45-41.3-15.8-41.3
		c29.3,0,66-33,30.8-33C10,308.4-21,269.7,12,269.7z"/>
	<path class="st2" d="M504.6,300.1c0,0-25.2-29.2-25.2-51.1s-20.2-34.3-30.3-34.3c-10.1,0-31-4.4-40.4-4.4s-26-2.2-31-2.2
		s-9.4,5.1-9.4,13.9c0,8.8,12.3,20.5,23.8,26.3s20.9,5.8,20.9,5.8s-1.4,8-1.4,11.7s3.6,12.4,3.6,12.4s-11.5,0.7-29.6,4.4
		c-18,3.7-29.6,8-29.6,8l7.9,29.6c0,0,9,1.7,12.6-1.9c3.6-3.7,5.8-5.8,5.8-5.8s3.9,13.6,9.7,10.7c5.8-2.9,11.7-5.8,11.7-5.8l6.3,8.4
		c0,0,19-6.2,21.8-2.5c2.9,3.7,7.7,25.9,33.7,25.9s39.7-7.3,23.8-24.8c-15.9-17.5,13-12.4,25.2-12.4
		C526.9,311.8,526.2,300.1,504.6,300.1z"/>
	<path class="st3" d="M245.3,203.6c21.1-2.5,35.6,4,40.8,27.2c5.3,23.3-8.1,43.1-21.6,43.1s-53.3-1.5-53.3-31.5
		C211.3,212.3,224.2,206,245.3,203.6z"/>
	<path class="st2" d="M182.2,268.7c0,0-25.3,6.8-25.3-8.7s20.4-11.7,20.4-11.7s-7.8-19.4,13.6-23.3c21.4-3.9,26.2,17.4,26.2,17.4
		s8.8-13.5,16.6-4.7c7.8,8.7-4.9,20.4-4.9,20.4s13.6-4.9,15.6,1c1.9,5.8,0,9.7-20.4,12.6s-30.1-1-30.1-1L182.2,268.7z"/>
	<path class="st2" d="M293.9,221.1c0,0-15.6-15.6,0-21.4s19.4,2.9,19.4,2.9s9.7-20.4,22.4-9.7c12.6,10.7-4.9,20.4-4.9,20.4
		s14.6,8.7-4.9,14.6c-19.4,5.8-51.5,10.7-53.5,0C270.6,217.2,293.9,221.1,293.9,221.1z"/>
	<path class="st2" d="M105.4,206.5c0,0,4.9,6.8,13.6,4.9c8.7-1.9,16.5-14.6,16.5-14.6L105.4,206.5z"/>
	<path class="st2" d="M377.7,208.1c0,0,1.8,9.1,7.6,11.1c5.8,1.9,9.7,4.9,9.7,4.9l3.9-12.6L377.7,208.1z"/>
	<g>
		<path class="st5" d="M409.1,125.4c-0.3,0.3-1.8,0.4-5.5,0.6c-1.2,0.1-4.1,0.4-6.4,0.7c-2.3,0.3-5.7,0.7-7.5,0.9
			c-2.5,0.3-8.2,1.2-8.9,1.5c-0.1,0-0.7,0.3-1.4,0.6c-1.4,0.6-4.7,1.6-6.4,1.9c-0.9,0.2-2.2,0.6-3.4,1.3c-0.3,0.2-1.3,0.4-2.2,0.6
			c-1.4,0.2-2.8,0.8-5.1,2c-0.3,0.2-1.7,0.9-3.2,1.6c-1.4,0.7-2.7,1.5-2.9,1.7c-0.1,0.2-0.5,0.4-0.8,0.4s-1.1,0.4-1.7,0.8
			c-0.6,0.4-1.2,0.7-1.3,0.6c-0.1-0.1-0.6,0.1-1.1,0.4c-0.5,0.3-1.3,0.6-1.7,0.7c-1.3,0.2-2.8,0.9-2.8,1.3c0,0.2-0.4,0.4-0.9,0.4
			s-0.9,0.2-0.9,0.4s-0.1,0.4-0.4,0.4c-0.2,0-1.5,0.5-2.8,1.1c-1.4,0.6-2.9,1.3-3.4,1.5s-1.3,0.6-1.8,0.9c-1.3,0.7-6.6,2.1-8.1,2.2
			c-3,0.2-6.7,0.9-7.7,1.4c-0.6,0.3-1.4,0.6-1.8,0.7c-0.4,0.1-1.5,0.5-2.5,1s-2,0.8-2.2,0.8c-0.2-0.1-0.7,0.1-1.1,0.3
			c-1.2,0.5-2.2,0.9-2.5,0.8c-0.2,0-2.7,0.8-4,1.3c-0.3,0.1-1.3,0.3-2.1,0.3c-0.9,0.1-1.8,0.3-2.1,0.5c-0.3,0.2-0.8,0.4-1.2,0.3
			c-0.4,0-1,0.1-1.4,0.2c-0.4,0.1-1.2,0.5-1.8,0.7c-0.6,0.2-1.1,0.3-1.2,0.1c-0.1-0.1-0.4-0.1-0.6,0.1c-0.5,0.5-4.7,1.5-5,1.3
			c-0.2-0.1-0.4,0-0.5,0.2c-0.2,0.4-3.3-0.4-3.9-1s-2.5,0.8-2.5,1.9c0,1.1,1.7,2.7,3.1,2.9c0.9,0.2,3.5,0.3,6.2,0.2
			c0.3,0,0.7-0.2,0.8-0.4c0.1-0.2,1-0.3,2-0.3s1.9-0.2,2-0.4s0.6-0.4,1.1-0.4s1.3-0.2,1.9-0.6c1.6-0.8,6.6-2.1,8.2-2.2
			c0.7,0,1.4-0.2,1.5-0.4c0.3-0.4,3.4-1.3,4.4-1.3c0.3,0,1.2-0.3,2-0.6s1.7-0.7,2.1-0.7c0.4-0.1,1.2-0.4,1.8-0.7
			c0.6-0.3,1.4-0.5,1.8-0.5s0.7-0.2,0.7-0.4s0.4-0.3,0.9-0.2c0.6,0.1,1,0,1.3-0.3s1.1-0.6,2.1-0.6c3.4,0,9.3-1.4,12.6-2.8
			c2.1-0.9,2.5-1.1,5-2.6c0.9-0.5,1.7-0.8,1.9-0.7c0.2,0.1,0.5-0.1,0.8-0.3c0.6-0.7,2.5-1.7,3.3-1.7c0.4,0,0.7-0.2,0.7-0.4
			s0.3-0.4,0.6-0.4c0.3,0,1.1-0.2,1.7-0.5s2-0.8,3-1.2c1-0.3,2.9-1.3,4.2-2.1c1.3-0.8,2.6-1.5,2.8-1.5c0.4-0.1,1.4-0.5,3.9-1.8
			c0.3-0.2,0.9-0.3,1.3-0.3s1-0.3,1.4-0.7c0.5-0.5,1.6-0.8,3.1-1c1.3-0.1,2.5-0.4,2.7-0.5s1-0.3,1.7-0.4c0.7-0.1,1.4-0.3,1.5-0.5
			c0.4-0.5,5.3-2,7.4-2.2c1-0.1,3.2-0.4,4.7-0.6c1.9-0.3,3-0.3,3.5,0s0.9,0.2,1.7-0.4c0.8-0.6,1.1-0.7,1.8-0.3
			c0.6,0.3,0.9,0.3,1.3,0c0.3-0.2,0.9-0.4,1.4-0.4c2.8,0,3.1,0,5.5-0.1c1.5-0.1,2.3,0.1,3.3,0.8c1.4,0.9,1.5,1.1,2.4,5.3
			c0.2,1,0.9,2.8,1.4,3.9l0.9,2.1l-0.6,4.9c-0.4,3.2-0.6,6.9-0.5,10.4c0.1,5.2-0.4,13.5-1.1,19.7c-0.2,1.6-0.4,5.5-0.5,8.6
			s-0.4,7.2-0.6,9.1c-0.3,2.1-0.3,5.7-0.2,9.3c0.2,5.3,0.2,5.8-0.4,6.1c-0.8,0.4-8.8-0.2-9.4-0.7c-0.3-0.2-0.7-0.3-0.9-0.2
			c-0.3,0.2-1.6,0-7.6-1.3c-1-0.2-2.3-0.5-2.9-0.6s-1.3-0.3-1.5-0.5s-0.8-0.4-1.4-0.5s-1.1-0.3-1.3-0.5c-0.1-0.2-0.8-0.5-1.5-0.6
			s-1.5-0.4-1.7-0.5s-0.9-0.3-1.6-0.3s-1.4-0.3-1.7-0.5c-0.3-0.3-0.5-0.3-0.7,0c-0.3,0.5-2,0.5-2.7,0.1c-0.3-0.2-0.8-0.1-1.3,0.2
			c-0.4,0.3-1,0.5-1.1,0.4c-0.2-0.1-0.6,0.2-1.1,0.6c-0.4,0.4-1.5,1.4-2.3,2.1c-1,1-1.8,2.2-2.6,4.3c-1.1,2.8-1.1,3.1-0.9,6.7
			c0.3,4.8,0.8,7,2.1,9.5c0.6,1.1,1.2,2.1,1.3,2.2c0.1,0.1,0.5,0.7,0.8,1.2c0.3,0.6,1.5,2,2.7,3.1c1.2,1.2,2.4,2.4,2.8,2.7
			c0.3,0.4,0.7,0.6,0.9,0.6c0.2,0,1,0.6,1.8,1.3s1.6,1.3,1.8,1.3c0.2,0,1.1,0.5,1.9,1.1c1.4,0.9,4.3,2.6,7.9,4.5
			c0.7,0.4,1.5,0.9,1.8,1.2c2,1.7,11.9,5.8,14,5.8c1.4,0,1.6,3.3,0.7,9.9c-0.3,2.3-0.5,5.6-0.5,7.3c0.1,3.7-0.5,5.4-2.6,7.4
			c-1.2,1.1-1.6,1.3-2.6,1.2c-0.7-0.1-1.3,0-1.4,0.2s-0.7,0.4-1.2,0.4s-2.3,0.3-3.9,0.7c-3.5,0.9-5.9,1.1-9.9,1.1
			c-9.6-0.1-12,0-16.5,0.7c-2.6,0.4-5.1,0.9-5.4,1.1s-2.2,0.4-4.1,0.5c-4.3,0.2-9.8,1.3-14.7,3c-2,0.7-4.1,1.3-4.6,1.4
			s-1.1,0.3-1.3,0.5c-0.2,0.2-0.6,0.4-1,0.4c-0.3,0-1,0.2-1.6,0.6c-0.6,0.3-1.3,0.6-1.5,0.6c-0.3,0-1.1,0.3-1.8,0.7
			c-0.7,0.4-1.4,0.6-1.4,0.5c-0.2-0.2-2.6,1-5.5,2.7c-0.7,0.4-1.4,0.7-1.5,0.6s-0.4,0.1-0.6,0.4s-0.7,0.6-0.9,0.6
			c-0.2,0-1.5,0.7-2.8,1.5c-2.3,1.5-11.4,6.2-12,6.2c-0.2,0-0.5,0.3-0.8,0.6c-0.2,0.3-0.8,0.6-1.3,0.6s-1.2,0.3-1.8,0.8
			c-0.6,0.4-1.1,0.7-1.3,0.6c-0.4-0.3-3.6,0.7-4.6,1.4c-0.4,0.3-1.1,0.6-1.5,0.6s-0.9,0.3-1.2,0.6c-0.3,0.3-1,0.6-1.5,0.8
			c-0.6,0.1-1.2,0.3-1.4,0.3c-0.2,0.1-0.5,0.1-0.6,0.1c-0.2,0-1.1,0.4-2.2,0.8s-2.8,0.9-3.9,1.1s-2.8,0.6-3.7,1
			c-0.9,0.3-2.1,0.7-2.7,0.8c-0.6,0.1-1.4,0.3-1.7,0.5c-0.4,0.2-1.2,0.4-1.8,0.4c-0.6,0-1.5,0.2-2,0.3c-0.5,0.2-2.4,0.5-4.1,0.8
			c-2.8,0.4-3.9,0.6-6.7,1.4c-0.3,0.1-1.5,0.2-2.6,0.3c-1.1,0.1-3.6,0.4-5.4,0.7c-1.9,0.3-3.6,0.5-3.7,0.4c-0.2-0.1-0.4,0-0.6,0.2
			c-0.1,0.2-0.6,0.3-1,0.3s-1,0-1.3,0.2c-0.2,0.1-0.8,0.1-1.3-0.2c-0.6-0.3-0.8-0.3-1,0c-0.1,0.2-0.3,0.3-0.5,0.2
			c-0.5-0.3-10.2-0.3-12.1,0c-1.9,0.3-7.6-0.6-9.3-1.5c-1.1-0.5-2-0.7-8.4-1.1c-1.8-0.1-3.5-0.4-3.7-0.5c-0.2-0.2-0.5-0.2-0.6-0.1
			c-0.3,0.3-4.3-0.6-4.8-1c-0.2-0.1-1-0.4-1.7-0.6c-2.5-0.7-5.3-1.9-5.4-2.3c-0.1-0.2-0.4-0.4-0.7-0.4s-0.8-0.2-1.2-0.6
			c-0.3-0.3-0.9-0.6-1.3-0.6c-0.4,0-1.1-0.4-1.6-0.7c-0.5-0.3-1.1-0.6-1.3-0.6s-1.1-0.3-1.9-0.7c-0.8-0.4-1.8-0.7-2.1-0.7
			s-1.8-0.6-3.3-1.3c-1.5-0.7-2.9-1.3-3.2-1.3s-0.8-0.2-1-0.6c-0.2-0.3-1-0.6-1.6-0.6s-1.7-0.2-2.4-0.4c-0.7-0.2-1.9-0.4-2.7-0.4
			s-1.5-0.2-1.6-0.4c-0.1-0.2-0.4-0.3-0.7-0.3c-0.7,0-3.8-1.4-4.4-2c-0.6-0.6-0.6-0.6-2.7-0.2c-1.1,0.2-1.8,0.2-2.4-0.2
			c-0.9-0.5-3.6-0.1-8,1.3c-1.5,0.5-2.9,0.7-3.6,0.6c-0.6-0.1-1.2-0.1-1.3,0.1s-0.5,0.3-0.7,0.2c-0.3-0.1-1.6,0-3,0.2
			c-6.3,0.9-9.2,1-13.4,0.7c-3.8-0.4-4.4-0.3-5.7,0.3c-2,0.9-7.1,1-8,0.2c-0.6-0.5-0.8-0.5-2.2,0.1c-0.8,0.3-2.1,0.6-2.8,0.7
			c-0.7,0-1.5,0.2-1.7,0.4c-0.3,0.2-0.9,0.2-1.6-0.1c-0.8-0.3-1.3-0.3-1.6,0c-0.3,0.2-0.8,0.3-1.1,0.2c-0.4-0.1-2.4-0.3-4.5-0.4
			c-2.6-0.1-4-0.4-4.4-0.7c-0.3-0.3-0.9-0.5-1.2-0.5c-1,0-1.8-1.4-2.7-4.5c-0.5-1.7-1.1-3.6-1.4-4.2s-0.6-1.4-0.6-1.8
			c0-0.7-1.1-4.1-1.6-4.8c-0.2-0.3-0.4-6.5-0.4-13.9c-0.1-7.4-0.3-15.4-0.5-17.8s-0.3-4.5-0.2-4.7c0.1-0.2,0.6-0.3,1-0.1
			c0.4,0.1,1.6,0,2.6-0.2s2.1-0.4,2.3-0.3c0.3,0.1,0.5-0.1,0.5-0.2c0-0.3,3.6-1.4,4.2-1.2c0.2,0.1,0.6-0.1,0.9-0.4
			c0.3-0.3,0.7-0.6,1-0.6c0.9-0.2,1.9-0.7,2.3-1.2c0.3-0.3,0.6-0.5,0.8-0.4c0.2,0.1,0.4,0,0.5-0.2s0.6-0.4,0.9-0.4
			c0.4,0,0.9-0.2,1.2-0.5c0.3-0.2,0.9-0.7,1.5-1c0.5-0.3,1.3-0.8,1.7-1.2c0.4-0.4,1-0.7,1.4-0.7s1.1-0.4,1.6-0.8
			c0.5-0.5,1.5-1.3,2.2-1.8c1.8-1.5,3.2-2.6,4.1-3.3c0.4-0.3,0.9-0.6,1-0.6c0.2,0,0.4-0.3,0.5-0.7s0.5-0.7,0.7-0.7
			c0.3,0,1.1-0.5,1.7-1.1c0.7-0.6,2-1.7,2.9-2.5c1-0.8,1.7-1.5,1.7-1.7s0.3-0.7,0.7-1c2.7-2.5,5.8-6.4,7.4-9.3
			c0.7-1.2,1.3-2.3,1.4-2.4c0.1-0.1,0.8-1.2,1.4-2.6c0.7-1.3,1.5-2.9,1.8-3.5c0.7-1.2,0.7-6.6,0.1-9c-0.6-2.1-3.5-5.3-5.2-5.6
			c-1.5-0.3-4-0.3-4,0.1c0,0.1-1.2,0.3-2.8,0.3c-1.5,0-2.8,0.1-2.8,0.3s-0.1,0.2-0.3,0.2c-0.4-0.1-4.5,1.3-4.7,1.6
			c-0.1,0.2-0.5,0.3-0.9,0.3c-0.6,0-3,0.9-5.3,1.9c-0.4,0.2-1.1,0.4-1.6,0.5s-1.1,0.2-1.5,0.3c-0.8,0.2-4.1,0.7-4.8,0.7
			c-1,0-6.1,1.1-6.4,1.5c-0.2,0.2-0.7,0.3-1.1,0.3s-0.9,0.1-1,0.3c-0.1,0.1-0.5,0.3-0.9,0.3c-0.9,0.1-6.3,1.3-6.9,1.5
			c-0.3,0.1-0.7-0.1-1-0.4c-0.4-0.5-0.5-2.1-0.6-7.3c-0.1-10.4-0.5-19.9-1.1-23.5c-1.1-6.8-0.7-10.5,1.3-12.8
			c0.7-0.8,1.5-1.5,1.7-1.4c0.3,0.1,0.8-0.2,2.6-1.7c0.2-0.2,0.9-0.4,1.4-0.4s0.9-0.1,0.9-0.3c0-0.6,3.4-0.7,5.6-0.1
			c2.1,0.5,9.7,0.5,10.4,0c0.5-0.3,4.4-0.7,7.4-0.8c1.5,0,2.7-0.2,2.7-0.4s5.4-0.1,7.2,0.2c0.2,0,0.4,0,0.5,0c0.8-0.3,1.8-0.2,2,0.3
			c0.1,0.4,0.5,0.5,1.5,0.3s2.1,0,4.6,0.7c0.1,0,0.7,0.2,1.3,0.3c0.6,0.2,1.3,0.5,1.6,0.8s0.8,0.5,1.2,0.5s0.8,0.2,0.9,0.4
			c0.1,0.2,0.6,0.4,1.1,0.4s1,0.2,1.1,0.4s0.5,0.4,0.9,0.4s0.7,0.1,0.8,0.3s1.2,0.8,2.6,1.5c1.4,0.6,2.5,1.3,2.5,1.5
			s0.1,0.3,0.3,0.2s0.9,0.1,1.6,0.5c0.7,0.4,1.8,0.8,2.6,1c0.7,0.1,1.5,0.5,1.7,0.8s0.6,0.5,0.7,0.5c0.2,0,0.8,0.2,1.3,0.4
			c0.6,0.2,1.1,0.4,1.3,0.5c0.1,0,0.3,0.1,0.5,0.3c0.1,0.1,0.6,0.3,1,0.3s1,0.1,1.3,0.3c2.8,1.4,3.4,1.6,3.7,1.4
			c0.2-0.1,0.7-0.1,1,0.1c1.8,1,3.2,1.4,6,1.8c0.7,0.1,1.5,0.4,1.7,0.6c0.3,0.2,0.6,0.3,0.8,0.1c0.2-0.1,0.4-0.1,0.4,0.1
			c0,0.2,0.3,0.4,0.8,0.4c1.7,0,3.6-1.7,3.6-3.2c0-0.8-1.2-2.1-2.3-2.5c-0.3-0.1-0.6-0.4-0.6-0.6c0-0.2-0.2-0.3-0.3-0.2
			c-0.2,0.1-0.8,0-1.4-0.2c-0.6-0.2-1.5-0.4-2.1-0.3c-0.6,0-1.5-0.1-2.2-0.3c-0.6-0.2-1.9-0.6-2.8-0.8c-0.8-0.2-1.6-0.5-1.6-0.7
			s-0.2-0.3-0.5-0.3c-1.1,0-7.1-1.7-7.6-2.1c-0.3-0.3-1-0.6-1.6-0.7c-1.1-0.2-2.8-0.9-4.6-1.9c-1.1-0.6-8.3-4.1-9.7-4.8
			c-0.6-0.3-1.5-0.6-2.1-0.8c-0.5-0.1-1.1-0.4-1.2-0.6c-0.1-0.2-0.6-0.3-1-0.3s-1-0.2-1.2-0.4s-1.2-0.4-2.3-0.5
			c-1,0-1.9-0.2-1.9-0.3s-0.8-0.2-1.8-0.2c-3.9,0.1-6.3-0.1-6.3-0.4c0-0.2-0.4-0.2-1,0s-2.5,0.4-4.3,0.5s-4.2,0.4-5.3,0.6
			c-1.1,0.2-2.7,0.5-3.6,0.6s-1.7,0.3-1.9,0.4c-0.2,0.1-2.2,0.2-4.5,0.2c-10.2-0.1-10.8-0.1-12.4,0.7c-0.8,0.4-1.7,0.7-2,0.6
			c-0.3-0.1-0.8,0.2-1.3,0.8c-0.5,0.5-1.2,0.9-1.5,0.9c-0.4,0-0.9,0.2-1.2,0.6c-0.3,0.3-0.8,0.5-1.1,0.3c-0.3-0.1-1,0.4-1.8,1.3
			c-0.7,0.8-1.7,2-2.3,2.7c-0.9,1.1-1,1.4-1,4.1c0,1.7,0.2,4.4,0.5,6.1c0.9,4.9,1.4,12.4,1.5,20.5c0,4.1,0.3,8.9,0.5,10.6
			c0.2,1.7,0.3,3.1,0.3,3.2c-0.1,0.1-0.8,0.2-6.8,0.7c-1.7,0.1-3,0.4-3,0.5s-1.1,0.3-2.3,0.3c-3.6,0.2-14.3,2.4-17.8,3.7
			c-0.3,0.1-0.9,0.3-1.2,0.3c-0.4,0.1-1.1,0.4-1.7,0.6c-0.5,0.3-2.1,1.1-3.5,1.7c-4.9,2.4-5.3,2.7-6.6,4.5c-0.7,1-1.7,2.2-2.2,2.7
			c-0.5,0.6-1.2,1.5-1.5,2.1s-0.7,1.4-0.9,1.8c-0.4,0.7-1.3,2.7-4.7,9.9c-0.7,1.6-1.6,3.2-1.9,3.6c-0.6,0.7-1.3,2-3.2,5.5
			c-1.2,2.4-2.3,3.8-5.4,7.2c-0.8,0.9-1.8,2.2-2.1,2.9c-0.9,1.7-1.7,2.7-4.5,5.3c-1.3,1.2-3,2.8-3.8,3.6c-1.2,1.2-4.1,2.9-5,2.9
			c-0.5,0-0.8,1-0.5,1.7c0.4,1.2,1.7,2.3,2.6,2.3c0.5,0,1.5-0.4,2.1-0.9c0.7-0.5,1.3-0.9,1.5-0.9s1.1-0.7,2.1-1.7
			c1-0.9,1.9-1.7,2.1-1.7c0.1,0,0.7-0.5,1.3-1c0.6-0.6,1.7-1.5,2.4-2.1c0.8-0.6,1.4-1.3,1.4-1.5s0.3-0.6,0.6-0.9
			c0.3-0.2,0.9-1.1,1.3-2s1.8-2.8,3.1-4.3c2.1-2.5,6.8-9.7,6.8-10.5c0-0.2,0.3-0.6,0.6-1c0.9-1,2-2.8,2.5-3.8
			c2.7-5.8,7.1-14.3,7.7-14.8c0.5-0.4,0.8-0.8,0.8-1.1c0-0.5,1.4-1.7,2-1.8c0.2,0,0.8-0.4,1.3-0.9s1.2-0.9,1.7-0.9s1-0.3,1.1-0.7
			c0.1-0.5,0.7-0.8,1.6-1c0.7-0.1,1.8-0.4,2.3-0.6c1-0.4,1.8-0.6,3.5-0.7c0.6-0.1,1.4-0.4,1.7-0.7c0.3-0.4,1.3-0.7,2.3-0.8
			s1.9-0.3,2.1-0.4c0.2-0.1,0.4-0.1,0.6,0.1c0.1,0.2,0.5,0.2,1,0c1.2-0.5,4.7-1.1,5.1-0.9c0.2,0.1,0.4,0.1,0.5-0.1
			c0.1-0.2,1-0.2,2-0.1c1.2,0.1,1.9,0,1.9-0.2c0-0.3,0.7-0.4,2.2-0.2c1.4,0.1,2.2,0,2.2-0.2c0-0.7,1.5-0.4,2.3,0.6
			c0.4,0.5,1.3,1,1.9,1.1c1,0.2,1.3,0,2.3-1.2c1.3-1.6,2.4-2,5.2-2.1c0.9,0,1.9-0.2,2.1-0.3c0.2-0.2,0.8-0.2,1.2-0.1
			c0.4,0.1,0.8,0,0.9-0.2s0.7-0.4,1.2-0.4s1.2-0.2,1.4-0.4c0.2-0.2,0.9-0.4,1.4-0.5c0.6-0.1,1.5-0.3,2-0.5s1.6-0.4,2.4-0.4
			s2-0.2,2.7-0.4s1.5-0.3,1.8-0.1c0.3,0.1,0.7,0,0.9-0.3c0.3-0.5,2.5-0.7,3.2-0.2c0.3,0.2,0.5,0,0.7-0.3c0.1-0.3,0.4-0.6,0.7-0.6
			c0.3,0,0.8-0.2,1.1-0.3c2.1-1.1,4.2-1.9,4.7-1.7c0.3,0.1,0.7-0.1,1-0.4c0.2-0.3,0.7-0.5,0.9-0.4c0.3,0.1,0.6,0,0.7-0.2
			s0.6-0.3,0.9-0.1c0.4,0.1,0.7,0,0.7-0.2s0.2-0.3,0.5-0.2s0.6,0,0.8-0.2c0.1-0.2,0.5-0.3,0.7-0.2c0.3,0.1,0.7,0,0.9-0.3
			c0.3-0.4,0.7-0.4,1.5-0.1c0.9,0.3,1.2,0.3,2.1-0.4c0.6-0.4,1.2-0.7,1.3-0.6c0.1,0.1,0.7,0.2,1.4,0.2c0.8,0,1.4,0.4,2.1,1.2
			c0.9,1.1,0.9,1.3,0.8,4.1c-0.1,2.1-0.4,3.3-1,4.2c-0.4,0.7-1,1.8-1.3,2.4c-0.3,0.6-0.8,1.3-1,1.6c-0.3,0.2-1.1,1.5-1.7,2.9
			c-0.7,1.3-2.3,3.6-3.5,5c-1.3,1.4-2.3,2.7-2.3,2.9c0,0.5-4.6,4.9-6.1,5.9c-2.2,1.5-7.4,5.7-8.8,7.1c-0.5,0.5-1,0.8-1.2,0.8
			s-0.6,0.2-0.9,0.4c-0.7,0.6-1.9,1.4-3.8,2.2c-0.8,0.4-1.8,0.9-2.2,1.1c-1.9,1.1-4.8,2.4-5.3,2.5c-0.3,0-1,0.2-1.5,0.5
			c-1,0.5-5.9,1.5-9.5,1.9c-0.9,0.1-2.1,0.3-2.8,0.4c-3.1,0.6-6,0.7-9.7,0.4c-1.6-0.1-2.3,0-3.2,0.6c-0.7,0.4-1.2,1-1.2,1.2
			c0,0.7,0.8,2,1.4,2.5s11,0.5,11.7,0c0.9-0.6,1.5,1.3,1.7,5.3c0.1,2.2,0.2,9.6,0.2,16.5c0,12.1,0,12.7,0.9,15.6
			c0.5,1.7,1,3.3,1.2,3.7c0.2,0.4,0.7,2.3,1.1,4.2c1.1,5.1,2.2,7.5,4.3,8.8c1,0.6,2.3,1.2,3,1.3c0.7,0.1,1.6,0.3,2,0.5
			c1.2,0.5,3.5,0.8,8.5,0.8c3.7,0,4.9,0.2,4.9,0.5s-0.2,0.5-0.4,0.5c-0.2,0-0.4,0.1-0.4,0.3c0,0.2-0.9,1.5-1.9,2.8
			c-1,1.4-2,2.8-2.2,3.2c-0.2,0.4-0.6,1-0.9,1.3s-1.2,1.6-1.9,2.9c-0.7,1.3-1.9,3.5-2.6,4.8c-4.3,7.7-4.5,8.3-4.5,11
			c0,3,1.3,9.5,2,10.3c0.3,0.3,0.6,0.7,0.6,0.9c0,0.4,4.8,6.2,5.2,6.4c0.2,0.1,0.6,0.4,0.9,0.9c0.3,0.4,1.2,1.1,2,1.5
			s1.4,0.9,1.4,1.1s0.4,0.3,0.8,0.2c0.4,0,1.2,0.1,1.6,0.3c0.7,0.4,3.3,1,4.6,1c0.3,0,0.8-0.1,1-0.3c0.3-0.2,0.6-0.3,0.7-0.1
			c0.3,0.3,2.4-2.8,3.2-4.9c0.4-0.9,0.8-1.8,1-2s0.5-1.1,0.7-2s1.2-2.7,2.1-4.1s1.6-2.8,1.6-3.2c0-0.8,0.1-0.7,1.2,0.3
			c0.7,0.6,1.3,1.1,1.5,1.1s0.6,0.4,1,0.9s0.9,0.9,1.2,0.9c0.2,0,1,0.3,1.7,0.7c2.6,1.4,6.9,1.6,9,0.4c0.6-0.4,1.9-0.9,2.6-1.1
			c1.1-0.3,1.6-0.7,1.9-1.6c0.3-0.6,0.8-1.6,1.1-2.1c0.4-0.6,0.6-1.9,0.7-4c0-1.7,0.1-3.5,0.2-3.9c0.3-1.9,1.1-4.8,1.5-5.7
			c0.3-0.5,0.9-2.4,1.5-4.1c0.5-1.7,1.3-4,1.7-5.1s0.9-3.4,1.3-5.1c0.3-1.7,0.8-3.9,1.1-4.9s0.5-2.2,0.5-2.8c0-0.9,0.2-1.1,1.7-1.5
			c1.2-0.4,1.9-0.4,2.7-0.1c0.6,0.2,2.4,0.5,4.1,0.6c1.7,0.1,3.9,0.4,4.8,0.8c0.9,0.3,2.1,0.7,2.6,0.7c4.1,0.5,6.6,1.2,8.9,2.4
			c0.8,0.4,1.8,0.9,2.2,1.1s1,0.3,1.5,0.3s1.3,0.3,1.8,0.7c0.5,0.4,1,0.6,1.1,0.5c0.2-0.2,2.1,0.7,3.9,1.8c0.3,0.2,1.1,0.6,1.8,0.9
			s1.5,0.7,1.8,0.9c2.8,1.6,10,4.1,13.4,4.7c1.2,0.2,3.7,0.5,5.5,0.6c3.5,0.2,6.4,0.8,7,1.3c0.2,0.2,0.8,0.3,1.3,0.3
			s1.6,0.2,2.4,0.5c1.8,0.6,24.1,0.5,26.5-0.1c0.8-0.2,1.6-0.4,1.8-0.3c0.2,0,1.2-0.1,2.4-0.2c1.2-0.2,2.6-0.3,3.1-0.3
			c0.6,0,1.4-0.3,1.8-0.5s0.8-0.4,0.9-0.3s0.7,0,1.4-0.2c1.2-0.3,9.1-1.4,12.3-1.6c2-0.2,6.1-1.3,6.9-1.9c0.4-0.3,1.1-0.5,1.6-0.5
			c0.4,0,0.9-0.2,1.1-0.4c0.1-0.2,0.5-0.3,0.8-0.3c0.3,0.1,0.8,0,1-0.1c0.5-0.3,3.4-1.1,4.4-1.1c0.4,0,0.9-0.2,1.1-0.3
			c0.2-0.2,0.6-0.3,0.9-0.3c0.4,0,1.2-0.3,1.9-0.6c2.3-1.1,2.5-1.2,3.2-1.2c0.4,0,0.8-0.3,0.9-0.6c0.1-0.3,0.6-0.6,1-0.6
			s1.1-0.2,1.4-0.3c0.4-0.2,1.6-0.6,2.7-1c1.1-0.3,2.2-0.8,2.4-1c0.2-0.2,0.6-0.3,0.9-0.3c0.5,0,2.8-1,4.7-1.9
			c0.4-0.2,1.7-0.9,2.8-1.4c1.1-0.6,3-1.6,4.2-2.4c2.5-1.5,5.5-3.1,9-4.9c1.3-0.7,2.5-1.4,2.6-1.5s1.4-0.7,3-1.2s3.1-1.1,3.5-1.3
			c1.7-0.9,2.6-1.2,2.9-1.1c0.4,0.1,3.6-0.9,4.7-1.6c0.3-0.2,0.8-0.3,1.1-0.3c0.3,0,0.9-0.2,1.6-0.6c1.1-0.6,6.7-1.5,7-1.1
			c0.1,0.1,0.3,1.3,0.5,2.6c0.2,1.3,0.5,3.5,0.7,4.8s0.5,2.7,0.7,3c0.2,0.4,0.6,2,0.8,3.5c0.6,4.3,0.7,4.6,1.1,6.9
			c0.2,1.1,0.4,2.6,0.4,3.4c0,0.7,0.3,1.8,0.6,2.4c0.8,1.5,4.3,4.6,5.2,4.6c0.4,0,0.8,0.2,0.9,0.4c0.1,0.2,0.5,0.3,0.9,0.2
			c0.4-0.1,0.7-0.1,0.9,0.1c0.3,0.4,4,0.2,5.7-0.4c1.2-0.4,4.3-2.6,5.4-3.9c0.4-0.5,0.5-0.5,0.7-0.1c0.6,1.6,5.3,7,6.1,7
			c0.2,0,0.6,0.3,1,0.6c1.1,1,5.9,0.9,8-0.2c3.3-1.7,3.7-2,4.3-2.9c0.4-0.6,0.7-1.1,0.7-1.1c0.1-0.1,0.5,0.2,0.9,0.6
			c0.9,0.8,3.2,2.1,3.2,1.8c0-0.1,0.8,0.2,1.7,0.7c1,0.5,2.2,0.9,2.7,0.9s1.3,0.2,1.7,0.5c1,0.7,2.6,1,2.9,0.6
			c0.1-0.2,0.7-0.3,1.2-0.2c2.4,0.4,5.7,0.5,9,0.1c4.1-0.4,4.6-0.2,5.9,1.8c0.5,0.7,1.7,2.3,2.7,3.4s1.9,2.2,1.9,2.3
			c0,0.2,0.8,1.4,1.7,2.7c1.1,1.5,2.1,2.5,2.9,2.9c0.7,0.3,1.4,0.8,1.5,1.1c0.1,0.3,0.3,0.5,0.5,0.4c0.3-0.2,2.9,1.1,4.6,2.3
			c1.7,1.1,3.9,0.3,3.9-1.5c0-1.2-1.3-3.2-2.1-3.2c-1,0-5.1-1.9-5.8-2.7c-0.4-0.4-1.2-1.6-1.9-2.6c-0.7-1-2.1-2.7-3.1-3.7
			c-1.1-1-2.3-2.6-2.8-3.7c-0.6-1.3-1.4-2.3-2.8-3.3l-1.9-1.4l-3,0.2c-1.6,0.1-3.6,0.3-4.4,0.5c-3.8,0.6-9.7,0.2-13.1-0.8
			c-1-0.3-1.8-0.5-1.8-0.4c0,0-0.6-0.3-1.2-0.8c-0.7-0.5-1.3-1.4-1.6-2.3c-0.3-1-0.7-1.6-1.3-1.8c-0.8-0.3-0.9-0.6-1-1.9
			c-0.1-2.8-0.6-4.7-1.8-7.5c-0.4-0.8-0.7-1.7-0.7-1.9c0-0.2-0.3-0.6-0.6-0.9c-0.3-0.3-0.6-1-0.8-1.5c-0.1-0.5-0.7-2.3-1.3-3.9
			c-0.6-1.6-1.1-3.2-1.1-3.4c0-0.2-0.4-1.2-0.9-2.2c-1.3-2.5-2.2-4.6-2.2-5c0-0.2,0.2-0.4,0.5-0.4s0.8-0.1,1.1-0.2
			c1.7-0.6,3.3-1,4-1c0.4,0,0.9-0.1,1-0.3c0.1-0.2,0.5-0.3,0.8-0.3c2.2,0,6.2-0.5,7-0.9c3.7-2,5.1-5,5.2-11.1
			c0.1-5.4,0.3-8.4,0.8-9.3c0.2-0.4,0.4-2.2,0.4-4v-3.3l3,0.7c3.1,0.7,6.5,0.8,16.7,0.8h5.9l1-1.3c0.9-1.2,0.9-1.4,0.5-2.4
			c-0.5-1.2-0.2-1.1-6.2-1.1c-1.9,0-3.5,0.1-3.7,0.2c-0.5,0.3-10.3,0.1-10.5-0.3c-0.1-0.1-1.1-0.4-2.3-0.5c-1.2-0.1-2.7-0.5-3.3-0.8
			c-0.7-0.3-1.3-0.4-1.4-0.3c-0.1,0.1-0.4,0-0.7-0.2c-0.3-0.2-0.8-0.4-1.2-0.5c-0.7-0.1-1.6-0.4-2.9-1c-0.4-0.2-1-0.3-1.3-0.3
			s-1-0.1-1.5-0.3c-0.6-0.2-1.4-0.4-1.7-0.4c-0.8,0-2.6-0.8-2.6-1.1c0-0.1-1.1-0.8-2.5-1.5s-2.5-1.4-2.6-1.5c-0.1-0.2-0.5-0.3-1-0.3
			s-1-0.3-1.2-0.7s-1-0.9-1.9-1.2c-0.8-0.3-1.5-0.6-1.5-0.8s-0.3-0.4-0.6-0.5c-0.4-0.1-0.9-0.4-1.3-0.6c-1.5-0.9-2-1.2-2.9-1.6
			c-2.3-1.1-7.6-5.4-9.4-7.7c-1.1-1.4-2-2.7-2-2.9s-0.1-0.4-0.3-0.4c-0.4,0-1.1-1.9-1.6-4.1c-0.4-2.4-0.2-7.6,0.3-8.1
			c0.2-0.2,0.4-0.8,0.4-1.2c0-0.5,0.7-1.4,1.9-2.5c1.7-1.5,2-1.7,3.7-1.6c1,0,1.8,0.2,1.8,0.3s0.7,0.4,1.5,0.5s1.8,0.6,2.2,0.9
			c0.4,0.4,1.2,0.8,1.7,0.9c0.5,0.1,2,0.5,3.4,0.8c1.3,0.3,3,0.7,3.9,0.8c0.8,0.1,1.6,0.4,1.9,0.5c0.2,0.2,0.8,0.3,1.3,0.3
			c1.5-0.1,5.1,0.4,5.6,0.6c0.6,0.4,1.2,0.4,6.7,0.6c2.6,0.1,4.8,0.2,4.8,0.2s1.3,0.1,2.9,0.1s3.1,0.2,3.3,0.3
			c1.2,0.7,6.2,1.4,10.4,1.4c1.7,0,3.8,0,4.8,0s2.5,0,3.4,0c4.1-0.1,6.3,0.1,6.8,0.4c0.2,0.2,1.5,0.4,2.9,0.6
			c1.4,0.2,2.9,0.3,3.3,0.4c0.4,0.1,1.9,0.2,3.3,0.3s2.7,0.3,2.9,0.6c0.2,0.2,0.6,0.4,1,0.4s1.2,0.5,1.9,1.1
			c0.7,0.6,1.5,1.1,1.9,1.1c1.1,0,4.5,3.8,5.8,6.4c2.3,4.5,3.6,7.4,3.6,8c0,0.9,1.3,5.5,2.6,9c0.6,1.7,1.1,3.5,1.1,4
			c0,1.1,0.9,5.3,2,9c0.5,1.6,1,4.3,1.1,6c0.2,2.7,0.5,3.5,2.2,7.2c1.1,2.2,2.2,4.9,2.4,5.9c0.2,1,0.8,2.5,1.2,3.3
			c0.8,1.5,3.1,3.8,3.8,3.8c0.3,0,0.6,0.3,0.7,0.6c0.5,1.2,2.7,0.9,2.7-0.4c0-0.3-0.8-1.7-1.8-3.2c-1-1.6-2-3.5-2.3-4.7
			c-0.3-1.1-0.9-2.9-1.5-4c-2-4-2.6-6-2.9-9.9c-0.2-2.5-0.6-4.8-1.2-6.4c-0.5-1.4-0.9-3.3-0.9-4.3s-0.2-1.8-0.4-1.9
			c-0.2-0.1-0.5-1.1-0.6-2.3s-0.6-2.8-0.9-3.7c-1.4-3.2-2.1-5.4-2.3-7.8c-0.1-1.3-0.4-2.9-0.8-3.5c-0.3-0.6-0.7-1.5-0.9-2
			c-0.2-0.5-0.7-1.4-1.1-2s-1.1-1.7-1.5-2.6c-0.4-0.8-1-1.7-1.3-1.9c-0.3-0.3-0.5-0.7-0.5-0.9c0-0.6-3.5-4-4-4
			c-0.3,0-0.9-0.5-1.2-1.1c-0.4-0.6-1-1.1-1.4-1.1s-0.7-0.2-0.7-0.4s-0.2-0.4-0.5-0.4s-0.9-0.3-1.4-0.7s-1-0.6-1.1-0.5
			s-0.6,0-1.1-0.3s-1.9-0.7-3.2-0.8c-2.2-0.2-3.6-0.4-4-0.6c-0.1,0-0.5,0-0.9,0s-1.5-0.1-2.5-0.3c-0.9-0.2-2.5-0.5-3.5-0.6
			c-1.5-0.2-13.5-0.5-17-0.5c-1.5,0-5.2-0.7-5.7-1.1c-0.2-0.2-1.3-0.4-2.4-0.5l-2.1-0.2l-0.2-1.5c-0.1-0.8-0.3-2.1-0.4-2.8
			s-0.3-2.5-0.5-3.9c-0.2-1.5-0.2-2.9-0.1-3.3c0.1-0.4,0.4-3.2,0.5-6.3c0.4-9.1,0.5-10.6,0.9-13.8c0.3-1.9,0.3-3.4,0.1-4.1
			c-0.2-0.6-0.2-1.5,0-2.3c0.2-0.7,0.4-2.4,0.5-3.8c0.1-1.4,0.3-2.7,0.5-3s0.2-3.4,0.1-7c-0.1-4.8,0-7.6,0.5-10.8
			c0.3-2.4,0.5-5.1,0.4-5.9c-0.2-1.4-0.5-2.1-2-5.2c-0.3-0.6-0.7-2.2-0.8-3.6c-0.3-2.8-1.6-5.2-3.5-6.1c-0.6-0.3-1.1-0.7-1.2-0.8
			c-0.1-0.2-0.4-0.3-0.8-0.3s-0.8-0.2-0.9-0.6c-0.1-0.3-0.4-0.4-0.6-0.3s-0.6,0-0.8-0.2C409.6,125.3,409.3,125.3,409.1,125.4
			L409.1,125.4z M379.4,287.1c0.4,0.4,0.9,1.4,1.2,2.1c1.3,3.5,1,16.1-0.3,18.8c-1.1,2.2-3.8,5.8-5.3,7.2c-1.9,1.8-3.8,2.4-6.2,1.8
			c-2.2-0.6-3.3-1.7-3.4-3.8c-0.3-3.6-0.6-4.9-1.4-7.4c-0.5-1.4-1.1-3.8-1.3-5.4c-0.2-1.6-0.6-3.9-0.8-5.1c-0.2-1.2-0.4-3.2-0.4-4.4
			v-2.2l1.3-0.3c0.7-0.2,1.9-0.4,2.8-0.5c0.8-0.1,1.7-0.3,2-0.4s1.4-0.3,2.4-0.3c1-0.1,2.3-0.3,2.8-0.5s2.1-0.4,3.5-0.4
			C378.3,286.3,378.8,286.4,379.4,287.1L379.4,287.1z M388.3,287.8c0.1,0.5,0.4,1.2,0.7,1.5c0.5,0.6,3.4,8.2,3.7,9.9
			c0.1,0.5,0.4,1.4,0.6,2c4.1,9.5,4.9,13.1,3.6,16.1c-1,2.3-2.9,3.5-5.7,3.7c-2.2,0.2-7.2-5.9-7.2-8.8c0-0.5,0.4-1.7,0.9-2.6
			c0.8-1.4,0.9-2.1,0.9-4.1c0-1.4,0-2.8,0.1-3.2c0.8-3.2,0.4-11.1-0.8-14.2c-0.2-0.5-0.3-1-0.2-1.1c0.1-0.1,0.8-0.1,1.7-0.1
			C388,286.8,388.2,286.9,388.3,287.8L388.3,287.8z M153.4,307.1c0.4,0.3,0.4,0.5,0.1,1.1c-0.2,0.4-0.6,2.2-0.8,3.8
			c-0.2,1.7-0.9,4.5-1.5,6.3s-1.1,3.5-1.1,3.9c0,0.3-0.3,1.1-0.6,1.7c-1.2,2.2-3.1,9.5-3.3,12.8c-0.1,1.4-0.4,3.1-0.7,3.7
			c-0.6,1.3-3.3,3.2-4.2,2.9c-0.3-0.1-1.2-0.3-1.9-0.4c-2.6-0.4-9.6-6.1-10.7-8.8c-0.7-1.6-0.7-5.1-0.2-12c0.5-6.6,0.8-8.6,2.4-11.7
			l1.2-2.5h4.8c2.6,0,5-0.1,5.2-0.3c0.2-0.1,1.7-0.3,3.4-0.5c1.7-0.1,3.2-0.3,3.2-0.4C148.9,306.7,152.9,306.8,153.4,307.1
			L153.4,307.1z M125.9,309.2c0,0.3-0.2,0.6-0.4,0.8c-0.9,0.9-2.4,11.4-2.7,18.1c-0.2,5,0.3,7.2,2.2,9.3c0.7,0.8,1.3,1.6,1.3,1.8
			c0,0.2-0.6,0.9-1.3,1.5c-0.7,0.6-1.3,1.3-1.3,1.5s-0.6,1.2-1.2,2.2c-0.7,1-1.4,2.4-1.5,3.1c-0.2,0.7-0.7,1.9-1.2,2.7
			c-0.5,0.8-0.9,1.5-0.9,1.6s-0.3,1-0.8,1.9c-0.7,1.6-0.8,1.6-1.6,1.1c-0.4-0.3-1.4-0.7-2.2-1c-2-0.7-8.2-7-9.1-9.4
			c-0.7-1.8-1.1-7.9-0.6-9.4c0.9-2.5,2.2-5.1,2.5-5.1c0.2,0,0.3-0.2,0.3-0.6c0-0.3,0.2-0.7,0.6-0.8c0.3-0.1,0.6-0.4,0.6-0.7
			c0-0.9,1.8-4.3,4.3-8.4c0.6-1,1.5-2.4,1.9-3.2c0.4-0.8,0.9-1.4,1.1-1.4s0.6-0.6,0.9-1.2c0.3-0.7,1-1.6,1.5-2.1
			c0.5-0.4,0.9-1,0.9-1.3c0-0.8,1.2-1.6,2.6-1.7C123.9,308.4,125.9,308.7,125.9,309.2L125.9,309.2z"/>
		<path class="st5" d="M260.8,139.8c-0.9,1.5-2.4,10.9-3.7,23.3c-0.3,3-0.7,7-0.9,8.8c-0.2,1.8-0.5,4.8-0.7,6.6
			c-0.5,4.8-0.1,6.1,2,6.1c1.4,0,1.5-0.2,1.8-3.9c0.1-1.2,0.3-3.3,0.5-4.6s0.7-5.7,1.1-9.7s1.2-10.6,1.7-14.7
			c1.5-11.1,1.4-10.3,0.4-11.3C262.1,139.5,261.2,139.2,260.8,139.8L260.8,139.8z"/>
		<path class="st5" d="M385.7,145.4c-0.5,0.9-1,1.9-1,2.1c0,0.7-1.9,3.9-3.1,5.3c-1.9,2.2-3.5,4.3-3.5,4.6c0,0.1,0.3,0.6,0.7,0.9
			c0.7,0.6,1.4,0.5,4.1-0.9c0.3-0.2,0.7-0.2,0.8,0c0.3,0.5-1.6,3.2-2.5,3.7c-1.1,0.6-2.1,1.2-3.3,2c-0.6,0.4-1.4,0.9-1.8,1.1
			c-0.9,0.5-1.1,2.2-0.4,2.9c0.8,0.8,3.2,0,4.2-1.4c0.4-0.6,0.9-1,1.1-0.9s1.4-0.8,2.8-2c2.6-2.3,3.3-2.6,2.9-1.5
			c-0.1,0.4-0.4,1.2-0.5,1.9c-0.5,3.2-3.2,7.1-5.2,7.6c-0.5,0.1-1.2,0.4-1.6,0.7s-1.2,0.3-2.3,0.2c-1.9-0.3-2.4,0-2.4,1.7
			c0,1,0.2,1.3,1.2,1.9c0.8,0.5,1.5,0.7,2.3,0.5c0.6-0.1,1.4-0.2,1.7-0.3c0.3,0,0.7-0.2,0.9-0.3c0.1-0.1,0.6-0.3,1.1-0.3
			c0.4,0,1-0.3,1.3-0.6c0.2-0.3,0.6-0.6,0.8-0.6c0.2,0,0.8-0.3,1.3-0.7c1.3-1,1.5-1,2.2,0.7c0.4,1,0.5,1.8,0.3,3
			c-0.5,3-0.4,4.3,0.4,5.2c1.1,1.2,2.1,1.5,3.4,0.9l1.1-0.5l-0.2-3.2c-0.2-3.2-0.2-3.6-0.9-6.5c-0.6-2.8-0.6-2.9,0.2-2.8
			c0.4,0.1,1.5,0.5,2.5,1c1.2,0.6,2.5,1,3.9,1c2.4,0.1,3-0.2,3-1.4c0-1.1-1.2-2.1-2.6-2.2c-3.3-0.3-7.1-3.5-7.6-4.5
			c4.4,1.3,6.1,0.6,6.5,0.1c0.7-0.7,0.8-1,0.4-1.9s-0.5-1-2.1-0.9c-2.2,0.1-3-0.2-4.4-1.9c-0.8-1-1.2-1.8-1.4-3.4
			c-0.3-2.4,0.1-2.9,1.5-1.9c1.2,0.8,3.6,1.1,4.3,0.5c0.6-0.5,0.8-2.2,0.3-2.2c-0.2,0-0.8-0.5-1.5-1.1s-1.5-1.1-1.9-1.1
			s-0.7-0.2-0.7-0.4s-0.4-0.5-0.9-0.6c-1.1-0.3-1.7-1.1-1.7-2.5c0-0.5-0.1-1-0.3-1c-0.2,0-0.7-0.3-1.1-0.8c-0.4-0.4-0.8-0.6-0.8-0.5
			c0,0.2-0.2,0.1-0.3-0.2C386.7,143.9,386.4,144.2,385.7,145.4L385.7,145.4z"/>
		<path class="st5" d="M226.6,145c-1.2,0.5-1.1,3.1,0.4,8.3c0.7,2.4,1.6,6.1,2,8.2c0.4,2.1,1.1,5.3,1.5,7s0.9,4.3,1.1,5.7
			c0.7,6.6,2.3,13.7,3.3,14.3c0.1,0.1,0.8,0.2,1.5,0.4c1.5,0.3,2.8-0.6,2.3-1.6c-0.9-2.2-3.2-13.3-3.8-18.4
			c-0.2-1.3-0.6-3.2-0.9-4.2c-0.3-1-0.6-2.4-0.6-3c0-1.6-0.9-5.2-2.2-8.6c-0.6-1.6-1.3-4-1.7-5.4C228.9,144.6,228.5,144.2,226.6,145
			L226.6,145z"/>
		<path class="st5" d="M188.9,153c-0.1,0.2,0,0.6,0.3,1c0.2,0.4,0.8,1.4,1.3,2.3c0.5,0.8,1,1.6,1.2,1.7c0.2,0.1,0.7,0.9,1.1,1.7
			c0.4,0.8,1.1,1.7,1.4,2.1c0.6,0.6,3.7,4.7,6.2,8.3c0.5,0.8,1.7,2.3,2.6,3.5c0.9,1.1,2,2.5,2.3,3.1c0.4,0.6,0.9,1,1.1,1
			c0.2,0,0.8,0.6,1.2,1.3s0.9,1.3,1.1,1.3c0.2,0,1,0.8,1.7,1.7c0.7,1,1.9,2.4,2.6,3.3c0.7,0.8,1.4,1.9,1.7,2.3
			c1.2,1.8,1.9,2.6,2.2,2.4c0.2-0.1,0.6,0,1,0.2c0.6,0.3,0.8,0.2,1.3-0.4c1-1.4,0.7-3.2-0.9-5.5c-0.8-1.1-1.5-2-1.6-1.9
			s-0.9-0.7-1.7-1.8s-2.2-2.6-3.1-3.3c-0.8-0.7-2-2-2.5-2.8s-1.2-1.6-1.6-1.7c-0.4-0.1-0.6-0.3-0.6-0.5s-0.3-0.6-0.7-1
			c-1.3-1.4-4.7-5.7-6.5-8.1c-1-1.4-2.2-2.9-2.6-3.4c-1.5-1.8-3.4-4.2-4.1-5.2c-0.4-0.6-1-1.2-1.5-1.4
			C191.1,152.6,189.2,152.6,188.9,153L188.9,153z"/>
		<path class="st5" d="M272.1,158.4c-0.1,0.4-0.6,1.5-1.1,2.6s-0.9,2-0.9,2.2s-0.6,1.4-1.3,2.8c-2.1,4.1-2.2,6.3-0.3,7.1
			c0.9,0.4,1.1,0.4,1.9-0.4c0.5-0.4,0.9-1.2,0.9-1.8c0-1,0.9-3.6,2.3-6.6c0.5-1.2,0.7-2.2,0.6-4c-0.1-2.2-0.2-2.5-0.9-2.6
			C272.7,157.8,272.3,158,272.1,158.4L272.1,158.4z"/>
		<path class="st5" d="M116.1,165c-0.7,0.5-1.2,1.1-1.2,1.4c0,0.8-1.6,3.9-2.1,4.1c-0.5,0.2-4-2.3-5.5-3.9c-0.8-0.8-1-0.9-2.3-0.5
			c-1.4,0.4-1.5,0.5-1.3,1.5c0.2,1.1,0.9,1.8,4.4,4.7c0.9,0.8,1.7,1.7,1.7,2c0,0.9-1.7,4.1-2.7,5.2c-0.9,1-1.7,2.3-3.6,6
			c-0.6,1.2-3.9,5.8-3.9,6.4c0,1.3,1.3,3.3,2.1,3.4c2.3,0.2,4,0.1,4.2-0.2c0.1-0.2,8.5-0.3,11.9-0.7c3.6-0.4,11.1-2.3,11.4-3
			c0.3-0.6-0.6-2.7-0.6-3.1c0-0.6-3.2-4.2-6.6-7.6c-0.6-0.6-1.1-1.2-1.1-1.5c0-0.2-0.6-0.8-1.3-1.2c-0.7-0.5-1.4-1.2-1.5-1.6
			c-0.1-0.4-0.6-0.9-1.1-1.1c-0.5-0.2-0.9-0.6-0.9-0.9c0-0.8,1-2.6,1.6-3c0.4-0.3,2.5-4.1,2.5-4.6c0-0.3-2.2-2.8-2.5-2.8
			C117.4,164.1,116.8,164.5,116.1,165L116.1,165z M118.9,183.8c1.4,1.3,2.9,3.5,3.4,4.7c0.6,1.5-1.9,2.4-3.1,1.2
			c-0.4-0.3-5.4-5.5-5.4-5.5s-3.8,7.3-4.4,6.7c-0.2-0.2-2.5-0.3-2.7-0.2c-1.5,0.6-0.2-2.7,2.8-7.3c0.4-0.6,0.7-1.2,0.7-1.5
			s0.4-0.8,0.9-1.1s0.9-0.8,0.9-1s0.3-0.8,0.6-1.3l0.6-0.9l2.3,2.5C116.7,181.5,118.2,183.1,118.9,183.8L118.9,183.8z"/>
		<path class="st5" d="M245.1,169.8c-1.2,0.7-1.5,1.6-1.3,4.9c0.1,2.1,0.3,2.7,1,3.5c0.8,0.9,2.6,1.2,2.6,0.5c0-0.2,0.3-0.3,0.6-0.3
			c0.7,0,0.7-0.4,0-4.7c-0.5-3.1-1-4.5-1.6-4.4C246.2,169.3,245.7,169.5,245.1,169.8L245.1,169.8z"/>
		<path class="st5" d="M215.8,170.4c-0.9,1.7,0.7,5.5,3.2,7.3c2.2,1.6,4,1.8,4.4,0.4c0.2-0.7-0.1-1.2-1.7-2.6
			c-1.2-1.1-1.9-2.1-1.9-2.6c0-1.5-1.1-2.9-2.5-3C216.5,169.7,216.1,169.9,215.8,170.4L215.8,170.4z"/>
		<path class="st5" d="M282.8,172.4c-0.4,0.1-0.9,0.5-1,1c-0.1,0.4-1,1.8-2,3c-2.5,3.2-8.4,12-8.6,13c-0.3,1.1,1,2.6,1.9,2.3
			c1.4-0.5,2.5-1.6,2.7-2.7c0.2-1.1,1.7-3.2,3.5-5c0.5-0.5,1.2-1.5,1.5-2.2s1.7-2.4,2.9-3.7c1.2-1.2,2.3-2.5,2.3-2.7
			C286.2,172.7,285.3,171.9,282.8,172.4L282.8,172.4z"/>
		<path class="st5" d="M381.1,188c-0.5,0-2.3,0.9-4.3,1.3c-5.9,1.2-6.8,1.2-6.8-0.4c0-0.9,1-2.1,1.7-2.1c0.3,0,1-0.2,1.5-0.4
			c0.6-0.2,1.5-0.4,2.1-0.3c0.6,0.1,1.5-0.1,2-0.3s1.4-0.6,2-0.6C381.1,185.1,385.4,187.6,381.1,188z"/>
		<path class="st5" d="M380.4,183.5c2.6-0.4,1.3-1.1,0.8-2c-0.4-0.6-0.7-0.9-0.9-0.9c-0.1,0-0.6,0.1-1.2,0.2l0,0
			c-1.1,0.2-2.2,1.1-2.2,1.9c0,0.9,0.4,1.1,1.5,1L380.4,183.5z"/>
		<path class="st5" d="M290.8,183.8c-0.7,0.7-1.2,1.5-1.2,1.7c0,0.9,1.1,1.9,2.2,2c1,0.1,1.3-0.1,2.1-1.4c1.2-1.9,1.1-2.5-0.3-3.1
			c-0.7-0.3-1.3-0.5-1.4-0.5C292.1,182.4,291.5,183,290.8,183.8L290.8,183.8z"/>
		<path class="st5" d="M197.7,186.7c-0.4,0.7,0.8,2.8,2,3.4c4.8,2.5,7.4,3.1,8,1.6c0.3-0.8-1.9-2.7-3.1-2.7c-0.5,0-1.6-0.6-2.4-1.2
			c-1.1-0.9-1.9-1.2-2.9-1.2C198.5,186.5,197.8,186.6,197.7,186.7L197.7,186.7z"/>
		<path class="st5" d="M324,189.1c-0.8,0.2-2.3,0.5-3.3,0.8c-2.9,0.8-7.7,4.7-9.4,7.7c-0.8,1.5-1.5,1.7-1.9,0.8
			c-0.1-0.3-0.3-0.5-0.5-0.3c-0.1,0.1-0.5,0-0.8-0.3s-1.4-0.6-2.3-0.7c-0.9-0.1-1.9-0.3-2.1-0.4c-0.7-0.4-7.5-0.3-8.3,0.1
			c-0.4,0.2-1.4,0.7-2.2,1c-0.8,0.4-1.7,0.8-2,1s-0.8,0.4-1.2,0.5c-0.4,0.1-0.6,0.4-0.6,0.6c0,0.2-0.7,1-1.4,1.8
			c-2.7,2.7-2.8,7.3-0.4,12.7c0.6,1.3,1,2.4,1,2.6c0,0.2-1.7,0.3-3.9,0.3c-3.7,0.1-4,0.1-6.3,1.4c-1.3,0.7-2.8,1.7-3.2,2
			c-0.4,0.4-0.9,0.7-1.1,0.7c-0.6,0-2.1,1.4-3.6,3.3c-1.5,1.9-1.8,3.6-0.7,5.1c0.9,1.4,3.1,3.3,3.8,3.3c0.3,0,1.1,0.5,1.8,1.1
			c1.3,1.1,2.6,1.5,5,1.5c2.3,0,6.1-0.4,6.8-0.8c0.4-0.2,0.8-0.2,1,0.1c0.7,0.7,5.6,0.4,8.1-0.4c2.9-1,4-1.6,4.4-2.7
			c0.6-1.5-2-3.1-3.2-2c-0.6,0.5-3.6,1.3-4.8,1.3c-3,0.1-9,0.4-10.7,0.6c-1.9,0.2-2.3,0.1-4.2-0.9c-2.5-1.4-3.4-2.1-3.4-2.8
			s2.2-3.1,2.6-2.9c0.2,0.1,0.6-0.2,0.8-0.6c0.3-0.5,1.6-1.4,2.9-2c2.1-1.1,2.7-1.2,6.8-1.4c3.5-0.1,4.6-0.1,5.1,0.3
			c0.4,0.3,1,0.5,1.3,0.5s0.9,0.2,1.3,0.4c0.5,0.3,0.9,0.3,1.7-0.1c0.8-0.4,1-0.8,1-1.6c-0.1-1.3-1.8-3.5-3.3-4.2
			c-3.3-1.6-5.3-6.7-4-10.1c0.6-1.7,2.4-3.9,3.1-3.9c0.2,0,0.5-0.3,0.6-0.6s0.5-0.6,0.9-0.6s1.3-0.3,2.1-0.6
			c0.7-0.3,1.6-0.5,1.9-0.4s0.9,0,1.4-0.1c0.5-0.2,1-0.2,1.1,0s0.8,0.4,1.6,0.5c0.8,0.1,1.8,0.5,2.4,0.8s1.3,0.5,1.6,0.5
			s0.5,0.2,0.5,0.4c0,1.1,1.7,4.7,2.6,5.6c1.2,1.2,1.7,1.2,3.2,0.5l1.1-0.6l-0.2-2.9c-0.3-4.3,0.3-5.4,5.3-9.3c1.3-1,2.6-1.9,3-1.9
			c0.3,0,1-0.3,1.4-0.5c0.5-0.3,1.1-0.4,1.4-0.3c0.3,0.1,0.6,0,0.7-0.1c0.1-0.2,0.3-0.3,0.5-0.2c0.3,0.2,3.4,0.8,6.1,1.1
			c1.8,0.3,2.1,0.6,3.2,2.7c1.3,2.6,1.2,5.6-0.2,7.6c-2.9,4-8,8.5-10.2,8.9c-0.7,0.1-1.5,0.5-1.9,0.8c-0.9,0.7-0.8,3,0,3.8
			c0.7,0.6,3.4,0.9,3.9,0.3c0.1-0.1,1.2-0.4,2.4-0.6c2.1-0.4,2.1-0.4,3.5,0.9c1.3,1.2,1.5,2.3,0.4,2.3c-0.3,0-0.5,0.2-0.5,0.3
			c0,0.2-0.7,0.5-1.6,0.8c-0.8,0.2-1.7,0.5-1.9,0.7c-0.5,0.4-4.4,1.1-6.6,1.3c-1.5,0.1-1.8,0-2-0.6c-0.2-0.7-0.8-1-0.8-0.3
			c0,0.2-0.5,0.6-1,0.8c-0.5,0.3-1.1,0.6-1.3,0.8c-0.4,0.6-0.3,2,0.1,2c0.2,0,0.4,0.3,0.4,0.6c0,0.8,1.8,1.4,2.4,0.9
			c0.3-0.2,1.4-0.3,2.5-0.3c1.1,0.1,2,0,2-0.1s0.7-0.2,1.5-0.2s2-0.3,2.7-0.6s1.9-0.8,2.8-1s2-0.6,2.3-0.8c0.4-0.2,0.8-0.2,1.1,0
			c0.3,0.3,0.9-0.1,2.2-1.5c1.5-1.7,1.7-2,1.7-3.5c0-1.3-0.2-1.9-1-2.7c-0.5-0.6-1.2-1-1.4-1c-0.2,0-1-0.6-1.8-1.4l-1.4-1.5l2.1-1.9
			c1.2-1.1,2.5-2.8,3-3.8s1.2-2.2,1.6-2.8c1.3-2,0.3-9-1.6-11.3c-0.5-0.6-0.9-1.3-0.9-1.5c0-0.6-1.5-1.4-3.1-1.7
			c-0.8-0.1-1.7-0.4-1.9-0.6c-0.2-0.2-1.1-0.4-1.9-0.4s-1.5-0.2-1.5-0.3C330,188.7,325.8,188.7,324,189.1L324,189.1z"/>
		<path class="st5" d="M192.6,196.9c-0.4,0.4-0.3,2.2,0.2,2.7c0.3,0.2,0.6,0.3,0.7,0.2c0.1-0.1,0.5,0,0.8,0.3s0.8,0.5,1.1,0.4
			s0.6,0,0.7,0.2c0.1,0.2,0.4,0.3,0.6,0.2c0.2-0.1,0.6-0.1,0.8,0.1c0.2,0.2,1.1,0.5,1.9,0.6c0.8,0.1,1.6,0.4,1.7,0.7
			c0.2,0.4,0.4,0.3,0.8,0c0.5-0.4,0.8-0.3,1.6,0.2c1.6,1.1,2.8,1.2,4,0.3c1-0.8,1-0.8,0.4-2.1c-0.4-1-0.8-1.3-1.5-1.3
			c-0.5,0-1-0.2-1.2-0.4c-0.1-0.2-0.5-0.3-0.7-0.2c-0.3,0.1-0.6,0-0.7-0.2c-0.1-0.2-0.6-0.3-1.1-0.3s-1-0.2-1.1-0.3
			c-0.1-0.2-0.8-0.3-1.5-0.3s-1.5-0.1-1.7-0.3C197.9,196.8,193,196.6,192.6,196.9L192.6,196.9z"/>
		<path class="st5" d="M245.2,199.2c-0.7,0.1-1.4,0.4-1.7,0.8c-0.2,0.3-0.6,0.5-0.7,0.3c-0.2-0.2-0.5-0.1-0.8,0.2
			c-0.3,0.2-0.8,0.5-1.1,0.5c-0.3,0.1-1,0.2-1.5,0.3s-1.1,0.2-1.4,0.2c-0.2,0-0.5,0.2-0.6,0.5s-0.4,0.4-0.7,0.3
			c-0.3-0.1-0.9,0.1-1.3,0.6c-0.4,0.4-0.9,0.8-1,0.8s-1.1,0.7-2.2,1.6c-1.1,0.9-2.4,1.8-2.8,2.1c-0.4,0.3-1.7,1.5-2.8,2.8
			c-1.1,1.2-2.6,2.8-3.4,3.6c-0.8,0.8-1.9,2.1-2.6,2.9c-0.7,0.8-1.4,1.6-1.6,1.9c-1.9,2.1-2.1,4.2-0.5,4.8s2.7,0,3.8-1.7
			c0.5-0.8,1.4-2,2-2.7c0.6-0.6,1.9-2.1,3.1-3.4c2.6-3,4.1-4.4,4.7-4.4c0.2,0,0.8-0.5,1.2-1.1s1.2-1.3,1.7-1.6
			c3.3-1.7,4.3-2.3,4.8-2.7c0.4-0.4,0.6-0.4,1-0.1c0.4,0.3,0.5,0.3,0.5,0c0-0.2,0.3-0.4,0.7-0.4s1.4-0.4,2.3-0.9
			c0.9-0.5,1.8-0.8,2.1-0.7s0.5,0,0.5-0.1c0-0.4,4.1-0.5,4.6-0.1c0.2,0.2,1.4,0.3,2.6,0.4c2.1,0.1,4.3,0.5,5.8,1.1
			c0.4,0.2,1.5,0.4,2.5,0.5c2,0.3,4,1.1,5.2,2.1c0.6,0.6,0.9,0.6,2.3,0.2c1.4-0.4,1.6-0.6,1.9-1.8c0.4-1.4,0.2-2.5-0.4-2.5
			c-0.2,0-0.8-0.4-1.4-1c-0.6-0.5-1.3-0.9-1.6-0.8c-0.2,0.1-1-0.1-1.7-0.4c-0.7-0.3-2.1-0.6-3.1-0.6s-2.1-0.2-2.4-0.3
			s-1.2-0.4-1.9-0.6C257.7,199.3,247.6,198.9,245.2,199.2L245.2,199.2z"/>
		<path class="st5" d="M127,206.5c-0.7,0.7-1.5,1.2-1.7,1.2c-0.3,0-0.5,0.2-0.5,0.4s-0.3,0.3-0.6,0.2c-0.3-0.1-0.6-0.1-0.6,0.1
			c0,0.2-0.6,0.5-1.4,0.8s-1.6,0.7-1.8,1c-0.2,0.3-0.6,0.4-0.8,0.3c-0.2-0.1-0.4-0.1-0.4,0.1c0,0.2-0.8,0.7-1.6,1.1l-1.6,0.7l-1.6-1
			c-0.9-0.6-1.7-1.1-1.8-1.3c-0.1-0.1-0.8,0-1.6,0.4c-1.6,0.7-1.8,1.8-0.4,2.3c0.5,0.2,1.7,0.9,2.6,1.5c1.3,0.9,2.1,1.2,3.8,1.3
			c1.5,0.1,2.2,0,2.2-0.3c0-0.2,0.2-0.3,0.4-0.2c0.2,0.1,0.8-0.2,1.3-0.7s1.5-1,2.2-1.1s1.4-0.5,1.6-0.8s0.8-0.5,1.1-0.5
			c0.9,0,2-0.6,3.4-1.8c0.6-0.5,1-0.7,1-0.5s0.2-0.1,0.6-0.7c0.6-1.1,0.7-3,0.3-3.3c-0.2-0.1-0.9-0.3-1.6-0.4
			C128.5,205.3,128.1,205.4,127,206.5L127,206.5z"/>
		<path class="st5" d="M193.3,208.9c-0.3,0.2-0.8,0.2-1,0.1c-0.2-0.1-0.5,0-0.7,0.3c-0.5,0.8-0.4,1.8,0.3,2.1
			c0.3,0.1,0.9,0.5,1.3,0.8c0.4,0.4,1.6,0.6,3.5,0.6c1.5,0,3.3,0.2,3.8,0.3c0.7,0.2,1,0.1,1-0.1c0-0.2,0.2-0.4,0.5-0.4
			s0.7-0.4,1-0.9c0.4-0.8,0.4-1-0.2-1.7c-0.5-0.6-1.1-0.7-2.3-0.7c-0.9,0-1.9,0-2.2-0.1C197.2,208.7,193.9,208.6,193.3,208.9
			L193.3,208.9z"/>
		<path class="st5" d="M308.2,215.4c-1.2,1.3-1.2,1.8,0,2.3c2.1,0.8,4.5-0.1,4.5-1.8c0-1-0.8-1.6-1.3-1.1c-0.3,0.2-0.5,0.2-0.7,0
			C310.3,214,309.3,214.3,308.2,215.4L308.2,215.4z"/>
		<path class="st5" d="M380,216.2c-0.7,0.9-0.8,1.4-0.6,2.5c0.3,1.7,2.1,3.4,3.6,3.4c0.6,0,1,0.1,1,0.3s0.4,0.3,0.8,0.3
			s1.2,0.2,1.6,0.4c2.1,0.9,4,1.3,6.6,1.2c0.9,0,1.3-0.3,1.8-1.3c0.7-1.2,0.7-1.3,0-2c-0.4-0.4-1.1-0.8-1.6-0.8s-1-0.3-1.1-0.6
			s-0.4-0.4-0.6-0.3c-0.7,0.4-4.1,0.1-4.7-0.5c-0.3-0.3-0.9-0.5-1.4-0.5c-0.4,0-0.8-0.2-0.8-0.4s-0.2-0.3-0.4-0.1
			c-0.5,0.3-1-0.5-1.1-1.8c0-0.9-0.2-1-1.2-1C381.1,215.1,380.6,215.4,380,216.2L380,216.2z"/>
		<path class="st5" d="M308.4,221.3c-0.5,0.2-1.7,0.3-2.8,0.2c-2.3-0.1-2.8,0.4-1.7,1.9c0.6,0.8,1,1,3.1,1c1.8,0,2.7-0.1,3.6-0.6
			c1.4-0.9,1.5-2,0.1-2.5C309.6,220.9,309.5,220.9,308.4,221.3L308.4,221.3z"/>
		<path class="st5" d="M62.1,222.8c-0.6,1.1-0.5,1.7,0.5,2.7c1.2,1.3,2.9,1.3,3.4,0c0.6-1.4,0.5-1.8-0.4-2.7
			C64.5,221.8,62.6,221.8,62.1,222.8L62.1,222.8z"/>
		<path class="st5" d="M196.8,223.5c-0.7,0.2-1.6,0.5-1.9,0.7c-0.4,0.2-0.8,0.3-1,0.2s-0.5,0-0.7,0.3s-0.7,0.4-1.1,0.3
			c-0.4-0.1-1.4,0.2-2.3,0.6c-0.9,0.4-1.9,0.8-2.1,0.8c-0.7,0-4.1,2.2-4.7,3c-0.3,0.4-0.7,0.7-1,0.7s-0.5,0.1-0.5,0.3
			s-0.6,0.7-1.4,1.2c-0.8,0.5-1.8,1.4-2.3,2s-1.3,1.5-1.7,2c-1.1,1.3-1.5,2.8-1.6,6.3l-0.1,3.1l-1.5,0.5c-0.8,0.3-2.2,0.7-3.1,0.9
			c-0.9,0.3-2.1,0.7-2.6,0.9s-1,0.4-1.2,0.3c-0.2-0.1-0.3-0.1-0.3,0.1c0,0.2-0.5,0.5-1.2,0.8c-5.5,2.4-7.1,3.7-8.6,7
			c-1,2.2-1.4,5.7-1.1,8.2c0.2,1.6,2.2,4.7,2.9,4.7c0.2,0,0.8,0.4,1.5,0.8c1.6,1.2,2.5,1.6,4.7,2.3c1.1,0.4,2.1,0.8,2.4,0.9
			c0.2,0.1,1,0.2,1.8,0.2s1.5,0.1,1.6,0.3c0.3,0.5,12.1-0.1,12.6-0.7c0.3-0.3,0.5-1.1,0.4-2c0-0.7-2.7-2.3-3.1-1.9
			c-0.4,0.4-3.2,0.5-3.2,0c0-0.3-0.1-0.3-0.4,0c-0.4,0.4-4,0.6-4.4,0.2c-0.1-0.1-1-0.3-2.1-0.3c-1.6-0.1-2.7-0.5-5.5-2.1
			c-0.3-0.2-1.1-0.5-1.7-0.8c-2.2-1-2.7-1.8-2.7-4.4c0-1.9,0.2-2.7,0.8-3.6c1.4-2.1,4.3-4.7,5-4.7c0.4,0,0.7-0.2,0.7-0.4
			s0.3-0.4,0.7-0.4s0.8-0.1,0.9-0.3c0.1-0.2,0.6-0.4,1.2-0.6c0.5-0.1,1.6-0.5,2.3-0.9c1.4-0.7,3.6-0.7,6.5-0.2
			c2.3,0.5,3.4-1.8,1.9-4.1c-0.9-1.4-1-5.5-0.2-7.3c1-2.1,7.1-7.6,8.4-7.6c0.3,0,1.1-0.4,1.7-0.9c0.7-0.6,1.4-0.9,1.8-0.8
			c0.4,0.1,0.8-0.1,0.9-0.4c0.1-0.3,0.6-0.5,1.2-0.4c0.6,0.1,1.2-0.1,1.5-0.3s1.4-0.5,2.5-0.6s2.1-0.3,2.3-0.4
			c0.2-0.1,0.9,0.1,1.6,0.6c0.7,0.4,2,0.9,3,1s2.1,0.4,2.5,0.6c1.4,0.7,5.7,5.2,6.8,7.1c0.9,1.7,1.1,2.2,0.8,3.7
			c-0.3,2.3,0.5,3.9,1.9,3.5c0.5-0.1,1,0,1.1,0.2c0.4,0.7,0.9,0.4,1.4-0.6c0.8-1.6,2.1-2.9,4.4-4.3c2.9-1.8,4.1-2.1,5.5-1.5
			c0.6,0.3,1.3,0.5,1.5,0.5s1,0.4,1.8,1c2.4,1.7,2.3,4.1-0.2,6.5l-1.5,1.4l0.8,1.3c1.1,2,2.4,2,4.5,0.1c2.1-2,3.1-4.2,2.8-6.2
			c-0.1-0.8-0.5-1.6-0.7-1.7c-0.3-0.1-0.6-0.5-0.7-1c-0.4-1.3-2.8-3.5-4.7-4.3c-2.2-1-6.3-1.4-8-0.7c-1.9,0.7-3,1.2-4,1.9
			c-0.9,0.6-1,0.6-1.5,0c-0.3-0.3-0.8-1.2-1.2-1.8c-0.3-0.7-0.8-1.3-1.1-1.4c-0.3-0.1-0.5-0.4-0.5-0.6c0-0.5-4.8-5.2-6.3-6.2
			c-0.6-0.4-1.7-0.8-2.6-0.9c-0.8-0.1-2-0.5-2.5-0.7c-0.5-0.3-1.4-0.5-1.9-0.5c-0.6,0-1.1-0.2-1.2-0.4
			C201.1,223.1,198.5,223.1,196.8,223.5L196.8,223.5z"/>
		<path class="st5" d="M54.8,224.1c-0.2,0.6,0.4,5.4,1,7c0.2,0.6,0.8,1.4,1.4,1.8l1.1,0.8l0.9-1.1c1.1-1.3,1.1-1.8,0.4-3.4
			c-0.3-0.6-0.6-1.8-0.7-2.6c-0.1-0.8-0.6-1.8-1-2.3C57,223.4,55.2,223.2,54.8,224.1L54.8,224.1z"/>
		<path class="st5" d="M451,225.4c-0.6,0.9-3.1,2.6-3.7,2.6c-0.3,0-1.4,0.7-2.6,1.7c-2.4,1.9-2.8,3.2-1,3.6c0.6,0.1,1.3,0,1.7-0.4
			c1.6-1.4,3.1-2.2,3.9-2.2c0.4,0,0.7-0.2,0.7-0.4s0.4-0.5,0.9-0.6s0.9-0.4,0.9-0.6c0-0.2,0.2-0.3,0.5-0.3c0.7,0,2.1-1.5,2.1-2.3
			c0-1.3-0.5-1.8-1.7-1.8C451.9,224.6,451.4,224.9,451,225.4L451,225.4z"/>
		<path class="st5" d="M48.9,231.1c-0.9,0.7-0.9,0.7,0.4,5.7c0.4,1.6,2.3,4.5,3.2,5s1.5,0.5,1.5,0c0-0.2,0.3-0.7,0.7-1.1
			c1-1.1,0.9-1.9-0.4-3.1c-0.7-0.6-1.1-1.3-1.1-1.9c0-2.5-1.5-5.2-2.9-5.2C50,230.5,49.4,230.8,48.9,231.1L48.9,231.1z"/>
		<path class="st5" d="M457.7,232.7c-4.5,2.1-6.4,4-5.1,5.1c0.7,0.5,3.3,0.3,4.3-0.3c0.5-0.3,1.3-0.7,1.8-0.9c1-0.3,3-2.2,3-2.9
			s-0.5-1.2-1.3-1.6C459.9,231.8,459.3,231.9,457.7,232.7L457.7,232.7z"/>
		<path class="st5" d="M465.3,239.9c-0.5,0.3-1.1,0.5-1.3,0.5c-0.1,0-0.7,0.2-1.2,0.6c-0.6,0.4-1.1,0.6-1.3,0.5
			c-0.2-0.1-0.7,0.2-1.2,0.7c-0.9,0.9-0.8,2,0.1,2c0.8,0,4.7-0.7,5.9-1.1c1.2-0.4,2.5-2.1,2.1-2.8
			C468,239.4,466.4,239.3,465.3,239.9L465.3,239.9z"/>
		<path class="st5" d="M303.3,241.5c-0.9,0.9-0.5,2.1,1.2,3.4c0.9,0.7,2.2,1.5,2.9,1.7c0.7,0.2,1.4,0.8,1.7,1.3
			c0.4,0.7,0.8,0.9,1.9,0.9c1.2,0,1.4-0.1,1.4-0.8c0-0.4-0.3-1.2-0.6-1.7c-0.9-1.3-3.5-3.8-4-3.8c-0.2,0-0.6-0.3-0.7-0.6
			C306.6,241.3,303.9,241,303.3,241.5L303.3,241.5z"/>
		<path class="st5" d="M284,244.7c-0.1,0.3-0.2,1.5-0.2,2.5c0,1.5-0.3,2.4-1.2,4.1c-0.6,1.2-1.5,2.4-1.8,2.6
			c-0.4,0.3-0.7,0.7-0.7,0.9s-0.7,1.1-1.5,1.9c-0.8,0.8-1.5,1.6-1.5,1.7c0,0.2-0.3,0.3-0.6,0.3c-0.3,0-0.6,0.2-0.6,0.5
			c0,0.6-4.7,5.4-5.2,5.4c-0.2,0-0.7,0.3-1,0.8c-0.4,0.4-0.8,0.7-0.9,0.6s-0.5,0-0.8,0.3s-1.4,0.8-2.4,1.1c-1,0.4-2.1,0.8-2.4,0.9
			c-0.3,0.2-1.1,0.4-1.7,0.5s-1.2,0.5-1.4,0.8c-0.1,0.3-0.4,0.5-0.5,0.4c-0.2-0.1-0.9,0-1.6,0.2c-1.5,0.5-5.6,0.5-7.2,0
			c-3.4-1-3.7,2-0.4,3.7c1.2,0.6,2.1,0.8,4.7,0.7c3.6-0.1,5.8-0.4,6.1-0.8c0.1-0.2,0.5-0.3,0.9-0.3s1-0.1,1.4-0.3
			c0.3-0.2,1.6-0.7,2.7-1.1c3.6-1.4,8.3-3.5,9.1-4.2c1-0.7,4.5-4.4,4.5-4.6s0.4-0.8,2.3-3c3.7-4.3,5.8-8.3,6.2-11.8
			c0.2-1.8,0.1-2.3-0.5-3.2s-1-1.1-2.2-1.1C284.7,244.1,284.1,244.3,284,244.7L284,244.7z"/>
		<path class="st5" d="M204.5,248.4c-0.7,0.1-1.6,0.4-1.9,0.7c-0.3,0.3-1,0.8-1.5,1c-0.4,0.2-1,0.8-1.2,1.2s-0.9,1-1.5,1.4
			c-1.9,1-2.9,2.9-2.9,5.3c0,1.1,0.1,2.4,0.3,2.9c0.2,0.6,0.1,0.8-0.2,0.8c-0.8,0-2.7,2.1-3.2,3.4c-0.2,0.7-0.6,1.4-0.8,1.8
			c-1.3,2.4,1.1,5.7,5,6.7c1.2,0.3,2.4,0.7,2.6,0.9c0.4,0.3,4.5,0.5,6.4,0.2c0.7-0.1,2-0.4,2.9-0.7c1.2-0.4,2.1-0.5,3.3-0.3
			c0.9,0.2,3.6,0.3,5.9,0.2c2.3,0,4.2,0.1,4.3,0.2s0.4,0.2,0.7,0.1s0.6,0,0.7,0.1c0.2,0.4,5-0.2,5.6-0.7c0.4-0.4,1.8-0.3,2.9,0.2
			c0.9,0.4,3-0.6,3.3-1.6c0.2-0.5-0.1-1.2-0.8-2.1l-1-1.3l-2.9,0.1c-1.6,0.1-3.1,0.2-3.3,0.4c-0.5,0.3-1.2,0.3-6.6,0.2
			c-2.4-0.1-4.2,0-4.4,0.2c-0.1,0.2-0.4,0.2-0.7-0.1c-0.7-0.6-6.4-0.2-9.2,0.6c-2,0.6-2.6,0.6-4.6,0.2c-1.2-0.3-2.6-0.5-3-0.5
			s-1.1-0.4-1.6-0.8c-0.8-0.7-0.9-0.9-0.4-2c0.7-1.6,1.8-2.3,3.3-2c0.7,0.1,1.4,0.4,1.7,0.6c1.5,1.2,3.8,0.2,3.8-1.7
			c0-0.8-1.3-2.5-2.1-2.5c-0.6,0-3.1-2.8-3.1-3.5c0-0.6,3-3.8,4.8-5.1c0.3-0.2,0.8-0.6,1.1-0.8c0.5-0.4,0.9-0.4,2.1,0.1
			c1.3,0.5,1.6,0.5,1.9,0c0.4-0.4,0.5-0.4,0.7,0c0.2,0.3,0.8,0.5,1.4,0.5c1.5,0,3.1,0.9,4.3,2.5c0.9,1.2,1,1.4,0.6,2.4
			c-0.6,1.5-0.2,2.7,1,3.2c1.9,0.8,3.9,0.8,3.6-0.1c-0.4-1.1,0.6-2.6,2.1-3.1c2.9-0.9,3.7,1,0.9,2.2c-1.4,0.6-1.7,0.9-1.7,1.8
			c0,0.6,0.2,1.2,0.4,1.4c0.5,0.4,2.5,1,3,0.9c0.2,0,0.6-0.1,1.1-0.2c0.4-0.1,1-0.4,1.2-0.8c0.3-0.4,0.6-0.5,0.9-0.4
			c0.2,0.1,0.4,0.1,0.4-0.1c0-0.4,4.3-1.2,6.6-1.2c1,0,2.2,0.2,2.8,0.5c1.1,0.6,2.4,2.1,2.4,2.8c0,0.7-1.5,2.5-2.3,2.8
			c-1,0.3-1.7,1.2-1.7,2c0,0.9,1.6,1.8,3.4,1.8c1.8,0,3-1,4.3-3.5c1.2-2.3,1-4.4-0.5-5.9c-0.3-0.3-1.1-1.2-1.8-2.1
			c-1-1.2-1.6-1.7-2.4-1.7c-0.6,0-1.1-0.1-1.2-0.3c-0.1-0.2-0.9-0.3-1.7-0.2c-0.8,0-1.5-0.1-1.5-0.3c0-0.2-0.2-0.2-0.5,0
			s-1.1,0.4-1.9,0.4c-0.8,0-1.8,0.3-2.3,0.6c-0.8,0.5-0.9,0.5-1.1-0.5c-0.1-0.6-0.9-1.7-1.6-2.4l-1.4-1.4l-3.1,0.2
			c-3.3,0.2-4.3-0.1-5.2-1.5c-0.7-1.1-3.8-3.1-4.2-2.8c-0.2,0.1-0.8-0.1-1.4-0.6c-0.9-0.6-1.5-0.8-3.6-0.7c-1.4,0.1-2.8,0-3.2-0.1
			C206.1,248.3,205.2,248.3,204.5,248.4L204.5,248.4z"/>
		<path class="st5" d="M386.3,250.6c-0.6,0.7-1.3,1.8-1.6,2.3c-0.7,1.4-1.6,1.6-2.3,0.6c-1-1.6-2.1-2.4-3.6-2.9
			c-1.3-0.4-1.6-0.4-1.9,0c-0.6,1-0.3,2.4,0.6,3.3c0.5,0.5,0.9,1,0.9,1.2s0.2,0.5,0.4,0.8c1.5,1.8,1.8,2.3,1.8,2.9
			c0,0.3-0.3,0.9-0.6,1.1c-0.5,0.4-3,3.7-4,5.4c-0.2,0.3-1.2,1.6-2.1,2.9c-1,1.2-1.7,2.4-1.7,2.5s-0.3,0.6-0.7,1.1
			c-1,1.3-0.9,2.7,0.3,4.1c1,1.1,1.1,1.2,2.6,0.9c0.9-0.1,1.8-0.5,2.1-0.7c0.3-0.3,0.7-0.4,1-0.3s0.7,0,1-0.1
			c0.3-0.2,1.3-0.4,2.4-0.4c1,0,3-0.3,4.4-0.7c1.5-0.4,3.9-0.6,5.8-0.6c3.2,0,4.2-0.2,5.2-1.2c0.8-0.8,1.2-1.4,0.7-2.5
			c-0.3-0.6-3.9-4.1-4-4.7c-0.1-0.3-0.9-1.3-1.8-2.2c-0.9-0.9-1.9-2.2-2.4-3c-0.4-0.8-1.1-1.7-1.5-2c-1-0.7-0.9-0.9,0.2-2.1
			c0.5-0.6,0.9-1.2,0.9-1.4s0.5-0.9,1.1-1.6c1-1,1.1-1.4,0.9-2.3C389.9,248.8,387.9,248.6,386.3,250.6L386.3,250.6z M384.7,262.2
			c0,0.3,0.3,0.8,0.7,1.1c0.4,0.4,0.7,0.8,0.8,1.1c0,0.2,0.7,1.2,1.5,2c0.8,0.9,3.2,3.8,3.2,4.1c0,0.4-2.7,0.4-3.4,0.4
			c-0.7-0.1-3.5-4.5-3.5-4.5s-3.1,5.4-3.9,5.5c-0.4,0-2.7-0.4-2.7-0.6c0-0.4,1.4-2.9,2.2-3.8c0.3-0.4,1-1.4,1.5-2.2
			c2.3-3.9,2.6-4.3,3.2-3.9C384.5,261.6,384.7,262,384.7,262.2L384.7,262.2z"/>
		<path class="st5" d="M296.3,253.5c-1.4,0.3-1.7,1-1,2.5c0.6,1.2,1.9,2.3,2.3,1.9c0.1-0.1,1.4,0.2,2.8,0.7s2.9,0.9,3.3,0.9
			c0.6,0,3.2,0.8,4.7,1.4c0.3,0.1,0.7,0.2,0.9,0.1c0.2,0,0.5,0.1,0.7,0.3c0.4,0.3,1.3,0.3,2.5,0.1c0.4-0.1,0.4-1.7,0-2.7
			c-0.2-0.6-0.7-1-1.5-1.1c-1.5-0.3-5-1.3-6-1.7c-0.4-0.2-1.6-0.6-2.7-0.9c-1.1-0.3-2.1-0.7-2.4-0.8c-0.3-0.2-0.6-0.3-0.9-0.3
			c-0.2,0-0.7-0.1-1.1-0.2C297.5,253.4,296.8,253.4,296.3,253.5L296.3,253.5z"/>
		<path class="st5" d="M113.2,255.8c-0.4,0.4-0.9,1.3-1,1.9c-0.1,0.7-0.4,1.6-0.7,2.2c-0.5,1.1-3.2,3-4,2.7
			c-0.3-0.1-0.9,0.1-1.4,0.5l-0.9,0.7l0.9,1.3c0.6,0.9,1.2,1.3,1.8,1.3c1.5,0,3.8-1,4.2-1.8c0.4-0.9,1.3-1,1.3-0.2
			c0,1.6-2.8,4.1-6.7,6.2c-1.7,0.9-2.2,2-1.3,3c0.8,1,2,1.3,3.1,0.7c0.6-0.3,1.2-0.5,1.4-0.5c0.2,0,0.7-0.3,1.1-0.7
			c0.4-0.4,0.9-0.7,1.1-0.7s0.7-0.3,0.9-0.5c0.5-0.6,1.1-0.4,1.1,0.3c0,0.6-2.7,3.3-4,3.9c-0.6,0.3-1.4,0.8-1.8,1.2
			c-0.4,0.4-1,0.6-1.2,0.5s-0.5,0-0.8,0.3c-0.2,0.3-0.9,0.6-1.5,0.8c-0.6,0.1-1.4,0.5-1.9,0.9c-0.8,0.7-0.8,0.7-0.1,1.9
			c1.1,2,1.6,2.1,4.2,0.9c1.3-0.6,2.7-1.4,3.1-1.7c0.4-0.4,1-0.7,1.3-0.7c0.8,0,2.9-1.6,3.1-2.3c0.3-1.3,0.9-0.6,1.3,1.5
			c0.2,1.2,0.3,2.7,0.2,3.3c-0.5,2.5,0.1,6.2,1.1,6.2c0.3,0,0.9,0.3,1.4,0.7c1.1,0.8,1.5,0.6,2.3-1.2c0.5-1.1,0.6-1.6,0.2-2.8
			c-0.2-0.8-0.5-2.4-0.6-3.7c-0.1-1.3-0.3-3-0.4-3.9c-0.2-1.3-0.2-1.4,0.3-1c0.3,0.3,0.7,0.4,0.9,0.3c0.2-0.1,0.6,0.1,0.9,0.5
			c0.4,0.5,1.2,0.7,2.6,0.7c1.7,0,2.1-0.1,2.6-0.8c0.8-1.2,0.7-2.4-0.1-2.4c-0.4,0-0.8-0.2-1-0.4c-0.1-0.2-0.7-0.3-1.2-0.3
			c-1.1,0.1-2.8-0.5-3.1-1c-0.1-0.2-0.1-0.6,0.1-0.8c0.2-0.4,0.5-0.4,1.1,0c0.7,0.4,0.9,0.4,1.3-0.2c0.9-1.2,0.3-3.9-0.8-3.9
			c-0.3,0-1.4-0.3-2.4-0.6c-1.9-0.6-2.7-1.4-3.1-3.1c-0.3-1.3,0.7-1.7,1.7-0.8c0.7,0.6,2.8,0.8,3.6,0.3c0.6-0.4,0.9-2.7,0.4-3.3
			c-0.3-0.3-1.4-0.8-2.5-1.1c-1.9-0.6-3.3-1.7-5.5-4.3C115.5,254.9,114.1,255,113.2,255.8L113.2,255.8z"/>
		<path class="st5" d="M170.8,255.6c-0.4,0.2-1,0.9-1.2,1.6s-0.6,1.3-0.7,1.3c-0.2,0.1-0.4,0.9-0.6,2c-0.2,1.8-0.2,1.9,0.9,3
			c1,1,1.3,1.1,1.7,0.7c0.3-0.3,0.7-0.4,0.8-0.4c0.4,0.1,0.7-1.6,0.4-2.1c-0.2-0.3-0.3-1.2-0.3-2.1c0-1.3,0.1-1.6,0.8-1.8
			c0.5-0.1,0.7-0.5,0.6-1.1C173.1,255.5,172,255,170.8,255.6L170.8,255.6z"/>
		<path class="st5" d="M179.1,259.3c-0.6,1.3,0.5,4.9,1.6,5.3c1.4,0.5,2.3-0.1,2.2-1.7c-0.1-2.9-0.5-4.1-1.3-4.3
			C180.1,258.2,179.5,258.4,179.1,259.3L179.1,259.3z"/>
		<path class="st5" d="M288.9,266.4c-0.3,0.6-0.2,1,1.1,2.5c0.8,1,1.9,2.1,2.5,2.5s1,0.9,1.1,1s0.4,0.3,0.6,0.3
			c0.3,0,0.8,0.4,1.2,0.9c0.4,0.6,0.9,0.8,1.3,0.7c0.3-0.1,0.8,0.1,1.1,0.5c0.3,0.4,0.6,0.7,0.7,0.6s0.8,0.1,1.4,0.6
			c0.7,0.4,1.6,0.8,2,0.8s0.9,0.2,1,0.4c0.1,0.2,0.5,0.4,0.8,0.4c0.8,0,3.8,1.9,3.8,2.4c0,0.6,1.3,1.6,2.1,1.6
			c0.8,0,1.9-1.4,1.9-2.3c0-1.1-4.7-5-6-5c-0.3,0-0.9-0.2-1.2-0.3c-0.4-0.2-1.8-0.9-3.1-1.5c-1.4-0.6-2.5-1.3-2.5-1.5
			s-0.3-0.3-0.6-0.3c-0.4,0-1.6-0.8-2.7-1.8s-2.2-2-2.5-2.3c-0.3-0.2-1.2-0.5-2.1-0.6C289.6,265.7,289.3,265.8,288.9,266.4
			L288.9,266.4z"/>
		<path class="st5" d="M363.1,268.6c-1,1.2-0.9,1.4,0.2,2.5c0.9,0.9,2,0.9,3.2,0.3c0.6-0.3,0.3-1.6-0.7-2.7
			C364.6,267.3,364,267.3,363.1,268.6L363.1,268.6z"/>
		<path class="st5" d="M16.3,270.1c-0.7,0.6-1.1,1.5-0.6,1.5s2-1.2,2.2-1.7C18.1,269.2,17.2,269.3,16.3,270.1L16.3,270.1z"/>
		<path class="st5" d="M363.3,273.7c-0.6,0.1-1.6,0.6-2.4,1.1c-1.2,0.8-1.6,0.9-3.9,0.7c-3-0.2-4.4,0.4-4.2,1.7
			c0.2,1.1,1.6,1.7,5.1,1.8c3.4,0.2,4.9-0.4,7.2-2.5c1-0.9,1-1.1,0.5-2C365,273.6,364.8,273.5,363.3,273.7L363.3,273.7z"/>
		<path class="st5" d="M282.2,277.2c-0.7,0.4-0.8,1.3-0.2,2.4c0.6,1.1,4,3.8,5,4c0.4,0.1,1,0.3,1.3,0.5c0.3,0.3,0.7,0.2,1.3-0.3
			l0.9-0.7l-0.7-1.3c-0.5-0.8-1-1.4-1.7-1.5c-0.6-0.1-1.5-0.7-2.1-1.3c-0.8-0.8-2.9-2.2-3.2-2.1
			C282.9,276.8,282.5,276.9,282.2,277.2L282.2,277.2z"/>
		<path class="st5" d="M270,278.1c-0.4,0.4-0.2,2.2,0.6,4.3c1,2.6,1.8,4.1,4.4,8.2c0.6,0.9,1,1.7,1,1.9c0,0.2,0.6,0.9,1.4,1.6
			c2.2,2.1,4.1,1.5,3.6-1.1c-0.2-1.3-1.7-3.9-4.8-8.4c-0.7-1-1.4-2.6-1.6-3.6c-0.3-1.1-0.7-2-1.2-2.3
			C272.4,278.2,270.3,277.8,270,278.1L270,278.1z"/>
		<path class="st5" d="M255.9,280.2c-0.8,0.6-1.1,2.1-0.4,2.5c0.2,0.1,0.4,0.7,0.4,1.3c0,1.4,1.9,3.3,3.3,3.3c1.3,0,1.9-1.7,1.5-4.4
			c-0.5-3.2-0.6-3.3-2.3-3.3C257.4,279.7,256.4,279.9,255.9,280.2L255.9,280.2z"/>
		<path class="st5" d="M132.6,281.8c-0.6,1.2-0.5,1.9,0.5,2.9c0.9,0.9,2.9,1.2,3.3,0.5c0.1-0.2,0.6-0.4,1.1-0.4c1.1,0,1.3-0.3,1-1.8
			c-0.2-1-0.5-1.3-1.5-1.6c-0.8-0.2-1.6-0.2-2.2,0c-0.7,0.3-1.2,0.3-1.4,0C133.1,281.2,132.8,281.3,132.6,281.8L132.6,281.8z"/>
		<path class="st5" d="M242.7,282.7l-1.2,0.3l0.1,6.4c0.1,6.3,0.1,6.4,1,7.1c1.1,0.9,1.4,1,2.4,0.3c0.6-0.4,0.7-1,0.8-3
			c0-1.4,0.1-4.1,0.2-6.1c0.1-3.3,0.1-3.6-0.7-4.5c-0.5-0.5-1-0.9-1.1-0.9C244,282.3,243.4,282.5,242.7,282.7L242.7,282.7z"/>
		<path class="st5" d="M144.4,285.8c-0.4,0.6-1.8,0.8-3.5,0.4c-0.5-0.1-2.1,0-3.6,0.3s-2.8,0.5-2.9,0.5c-0.1,0-0.3,0-0.4,0
			c-0.1,0-1.3,0.1-2.7,0.1c-2.3,0.1-2.6,0.2-3,1c-0.7,1.3-0.6,1.7,0.3,2.4c0.9,0.6,3.1,0.8,3.4,0.2c0.2-0.2,0.4-0.3,0.9,0
			c0.4,0.2,0.8,0.2,0.9,0.1c0.3-0.3,0.8-0.3,5.6-0.6c2.1-0.1,3.8-0.1,3.9,0.1c0.5,0.8,2.5,0,3.4-1.4c1.1-1.6,1.1-2,0.2-2.7
			C145.9,285.3,144.9,285.1,144.4,285.8L144.4,285.8z"/>
		<path class="st5" d="M410.2,295.5c-1.5,1.6,0.4,8.4,3.1,11.3c0.6,0.6,1.1,1.1,1.2,1.1s0.8,0.6,1.6,1.3c0.8,0.7,1.7,1.3,2,1.3
			s0.7,0.1,0.9,0.3c0.4,0.4,5.2,2.2,6.3,2.3c1.2,0.2,2.7-0.8,2.7-1.7c0-1-2.1-2.8-3.3-2.8c-0.6,0-1.3-0.2-1.7-0.5
			c-0.4-0.3-1.3-0.7-2.1-1c-0.8-0.3-1.4-0.7-1.4-1s-0.3-0.5-0.5-0.5c-0.3,0-0.8-0.3-1-0.7c-0.3-0.4-0.7-0.7-0.9-0.7
			c-0.3,0-0.5-0.2-0.5-0.6c0-0.3-0.2-0.7-0.6-0.8c-0.3-0.1-0.9-1.4-1.3-2.8c-1.1-3.6-1.3-4.1-2.7-4.7
			C410.9,294.8,410.8,294.8,410.2,295.5L410.2,295.5z"/>
		<path class="st5" d="M424.8,298.4c-0.7,1.1-0.6,4.1,0.2,6c0.7,1.6,2.9,3.6,3.9,3.6c0.3,0,0.5,0.2,0.6,0.4c0.2,0.5,4.7,0.7,5.4,0.2
			c1-0.8,0.6-1.3-3.6-3.5c-1.2-0.7-1.8-1.3-2.3-2.4c-0.4-0.8-0.6-1.9-0.6-2.3c0-1.1-1.4-2.7-2.3-2.7
			C425.6,297.7,425,298,424.8,298.4L424.8,298.4z"/>
		<path class="st5" d="M74.9,323.5c-1.2,1.1-2.6,2.2-3.1,2.5c-3.3,1.9-3.9,2.6-3.1,3.9c0.3,0.6,0.7,0.7,2.1,0.7c1.5,0,1.8-0.1,3.6-2
			c1.1-1.1,2.1-2,2.3-2c0.4,0,2.3-2.8,2.3-3.4c0-0.3-0.4-0.8-0.9-1.1C77.2,321.5,77.1,321.6,74.9,323.5L74.9,323.5z"/>
		<path class="st5" d="M81.8,328c-0.6,0.3-1,0.7-1,0.8c0,0.5-6.1,6.5-7.1,7c-0.5,0.3-1,0.6-1,0.8c0,0.2-0.2,0.3-0.4,0.3
			c-0.2,0-1.2,0.5-2.3,1.2c-2.6,1.6-3.5,2-5,2.2c-0.7,0.1-1.4,0.4-1.7,0.6c-0.3,0.3-0.7,0.4-1,0.3s-0.7,0.1-1.1,0.5
			c-0.3,0.3-0.8,0.7-1.1,0.8c-0.3,0.1-0.4,0.5-0.2,1.1c0.2,0.9,0.3,0.9,3,1c1.5,0,2.8-0.1,2.8-0.3c0-0.2,0.5-0.3,1.2-0.3
			c1.2,0,1.6-0.2,3.1-1.5c0.3-0.3,1.4-0.8,2.3-1.1c0.9-0.3,2.1-0.9,2.7-1.4s1.3-0.9,1.5-0.9c0.4,0,1.3-0.8,6.3-6.2
			c0.9-0.9,1.6-1.9,1.6-2.1c0-0.3,0.2-0.5,0.6-0.7c0.5-0.2,0.5-0.3,0-1.3c-0.3-0.6-0.7-1.1-0.9-1.1c-0.2,0-0.5-0.1-0.8-0.2
			C83,327.5,82.3,327.7,81.8,328L81.8,328z"/>
		<path class="st5" d="M98.4,351.1c-0.3,0.1-1,0.6-1.5,1.1s-1.1,0.8-1.3,0.8c-0.2-0.1-1,0.5-1.8,1.2s-2,1.6-2.7,1.9s-1.5,0.8-1.8,1
			c-0.9,0.5-3.2,1.5-3.6,1.5c-0.2,0-0.4,0.1-0.4,0.3c0,0.3-0.3,0.4-7.2,2.7c-2.6,0.9-5.1,1.8-5.5,2.1c-0.4,0.3-1.1,0.5-1.6,0.5
			s-1.3,0.3-1.7,0.6c-0.5,0.3-1.1,0.5-1.4,0.4s-0.9,0.1-1.5,0.3c-0.6,0.3-1.1,0.5-1.3,0.4c-0.7-0.2-11.6,2.8-12.4,3.4
			c-0.2,0.2-1,0.4-1.7,0.5s-1.5,0.4-1.7,0.5c-0.4,0.3-1.9,0.7-4,0.9c-0.8,0.1-1.6,0.3-1.8,0.4s-2.8,0.3-5.9,0.3
			c-3.1,0.1-5.9,0.2-6.2,0.4c-1.8,0.8-0.6,2.6,2.1,3.4c1.2,0.3,7.3,0.4,7.3,0.1c0,0,1.1-0.2,2.6-0.3c1.4-0.1,2.7-0.3,2.9-0.5
			s0.9-0.2,1.4-0.2c0.6,0,1.5-0.2,2-0.4c0.5-0.3,1.4-0.5,1.9-0.5s1.2-0.2,1.4-0.5s0.7-0.4,1-0.3s0.5,0,0.5-0.2s0.2-0.3,0.5-0.2
			c0.3,0.1,0.6,0,0.8-0.2c0.1-0.2,0.7-0.4,1.3-0.4c1.4,0,4.4-0.7,5.6-1.4c0.5-0.3,1.2-0.5,1.5-0.4c0.6,0.1,2.4-0.4,3.5-0.9
			c0.5-0.2,1.2-0.4,1.7-0.3c0.5,0,0.9-0.1,0.9-0.3c0-0.2,0.3-0.4,0.6-0.4c0.8,0,3.6-1,4.6-1.6c0.4-0.3,1.4-0.6,2.2-0.8
			c0.8-0.1,1.5-0.4,1.6-0.6s0.7-0.3,1.3-0.3c0.6,0,1.1-0.2,1.1-0.3c0-0.3,1.5-0.8,3.2-1c0.4-0.1,1.2-0.3,1.6-0.6
			c0.5-0.3,1.9-0.9,3.2-1.4c1.2-0.4,2.3-1,2.3-1.2s0.3-0.3,0.7-0.2c0.5,0.1,0.7,0,0.7-0.3s0.2-0.5,0.5-0.5c0.7,0,6-3.6,6.7-4.5
			c0.8-1.1,0.7-2.6-0.3-3.5C99.6,350.9,99.4,350.8,98.4,351.1L98.4,351.1z"/>
	</g>
</g>
</svg>
