<svg xmlns="http://www.w3.org/2000/svg" viewBox="0 0 900 150"><style type="text/css">
  .st0{fill:#333333;}
  .st1{fill:#FF615E;}
  .st2{fill:#993131;}
</style><path class="st0" d="M854.3 22.3c-2.9-0.8-6-2.2-8.8-1.9 -8.3 0.6-16.5-1.2-24.8 0 -2.6 0.4-5.1 0.4-7.7 0.1 -6.3-0.6-12.7-1.6-19.5 1.1 -1.2 9.1-1.3 18.2-1.4 27.3 -0.2 22.8-0.2 45.6 0.1 68.4 0.1 5.5-0.8 11.4 2.6 16.6 7.7 1.6 15.1 2.2 22.6-0.6 3.5-10.2-0.2-20.7 2.8-32.1 7-0.3 13.4-0.7 19.8-0.7 7.4 0 14.3-1.5 21-4.5 11-5 18.4-13 21.3-25C887.7 48.1 876.7 28.9 854.3 22.3M857 61.8c-1 7.6-6.2 13.9-13.6 14.8 -1.5 0.2-3 0.4-4.5 0.5 0.3 0.7-15.8-0.1-19-1 -1.7-10.8-1.7-20.8-0.4-31.3 10-3.3 19.4-2.6 28.7 1.3C854.4 48.8 857.8 55.2 857 61.8"/><path class="st0" d="M757.4 102.5c0-15.5 0-30.9 0.1-46.4 -0.2 0-0.2-3.5 0-3.9 0-8 0-16 0-24 0-2.5-1-5-1.7-8.1 -7 0-13.4 0-19.9 0 -4.2 0-7.2 2-9.3 5.6 -3 4.9-6.2 9.6-9.2 14.4 -4.3 6.8-8.4 13.6-12.8 20.3 -1.1 1.7-1.8 4.3-5.6 4.3 -2-3-4.4-6.4-6.6-9.8 -5.8-9.3-11.7-18.7-17.3-28.2 -2.6-4.3-7.1-6.7-12.1-6.7 -4.9 0-9.9 0.1-14.9 0.2 -3.2 0-4.8 2.3-5.7 4.8 -0.6 1.7-0.5 3.7-0.5 5.6 0.1 8.4 0.4 16.7 0.4 25.1 -0.1 17.9-0.3 35.8-0.5 53.7 0 6.5 0 12.9 0.2 19.4 0.1 3.3 1.7 5.2 4.8 5.4 6.3 0.5 12.7 1.3 19-0.3 0.6-1.6 1.2-2.7 1.2-3.7 0.3-10.3 0.5-20.6 0.6-30.8 0.1-8.7 0-17.5-0.1-26.2 0-1.8 0.3-3.4 1.1-4.8 0-0.7 0.2-1.8 0.2-1.8l0.6-0.7c0 0 1.4-0.2 1.6-0.3 0.2-0.1 0.4 0 0.5 0.2 0.1 0.2 0.3 0.5 0.3 0.5l0.1 0.4c0 0 1 0.9 1.2 1.7 1.2 1.7 2.8 5.3 2.8 5.3l0.5 0.6c0 0 13.1 20.2 19.8 30.2 0.9 1.4 2.8 2.1 4.5 3.3 5.8-7 10.5-13.9 14.7-21 8.2-13.8 9.8-15.9 15.5-19 1.6 5.3 0.6 10.6 0.8 15.8 0.2 5.7 0 11.4 0 17.1 0 5.3-0.1 10.7 0.1 16 0.2 5.6-1.3 11.4 1.2 16.8 7.9 1.5 9.7 1.3 24-2.7 0.2-3.9 0.5-8.1 0.5-12.2C757.7 113.1 757.4 107.8 757.4 102.5"/><path class="st1" d="M615.9 131.9L545 16.8c-0.8-1.3-2.6-1.3-3.4 0 -9.8 16.2-60.1 98.3-70.3 115.1 -0.8 1.3 0.2 3 1.7 3l29.4 0h14.9c0.7 0 1.3-0.4 1.7-1 4.6-7.6 17.7-33.4 22.4-41.2 0.9-1.5 2.5-1.5 3.4 0l23.3 41.3c0.4 0.6 1 0.9 1.7 0.9h44.4C615.8 135 616.8 133.3 615.9 131.9zM538.3 86.8l-23.8 42.4c-0.1 0.1-0.2 0.2-0.3 0.1 -1.2-0.7-7.4-4.8-14.2-24.3 -0.1-0.2 0.1-0.3 0.2-0.3 2.3-0.1 16-1.3 37.8-18.2C538.2 86.3 538.5 86.5 538.3 86.8z"/><path class="st2" d="M538 86.5c-21.8 16.9-35.5 18.1-37.8 18.2 -0.2 0-0.3 0.2-0.2 0.3 6.8 19.5 13 23.6 14.2 24.3 0.1 0.1 0.3 0 0.3-0.1l23.8-42.4C538.5 86.5 538.2 86.3 538 86.5z"/><path class="st0" d="M429.2 100.2c4.3 4.2 7.9 7.6 11.3 11.2 3.6 3.9 3.5 6.3-0.3 9.6 -8.1 7.2-17.2 12.7-28 14.5 -12.9 2.1-25.8 2.5-38-3.5 -19.9-9.6-32.2-24.4-34.4-47.1 -1.5-15 1-28.6 9.6-41.2 10.1-14.8 24.3-22.8 41.6-25.3 12.6-1.8 25 0.4 36.8 5.7 7.6 3.4 10 5.6 14.5 12.8 -3.3 6.7-8.2 12.2-14.7 17.3 -3.6-2.3-7-4.6-10.6-6.7 -12.7-7.3-26.5-6.6-37.5 1.7 -4.1 3.1-7 7-9.3 11.4 -1.9 3.7-4.3 7.2-5.3 11.1 -0.8 3-0.5 6.6 0.3 9.7 1 4 2.7 7.9 4.4 11.7 7.3 16 24.1 23.3 40.9 17.5 3.2-1.1 6.2-2.9 9.1-4.6C422.6 104.4 425.4 102.5 429.2 100.2"/><path class="st0" d="M286.3 22.3c-2.9-0.8-6-2.2-8.8-1.9 -8.3 0.6-16.5-1.2-24.8 0 -2.6 0.4-5.1 0.4-7.7 0.1 -6.3-0.6-12.7-1.6-19.5 1.1 -1.2 9.1-1.3 18.2-1.4 27.3 -0.2 22.8-0.2 45.6 0.1 68.4 0.1 5.5-0.8 11.4 2.6 16.6 7.7 1.6 15.1 2.2 22.6-0.6 3.5-10.2-0.2-20.7 2.8-32.1 7-0.3 13.4-0.7 19.8-0.7 7.4 0 14.3-1.5 21-4.5 11-5 18.4-13 21.3-25C319.7 48.1 308.7 28.9 286.3 22.3M289 61.8c-1 7.6-6.2 13.9-13.6 14.8 -1.5 0.2-3 0.4-4.5 0.5 0.3 0.7-15.8-0.1-19-1 -1.7-10.8-1.7-20.8-0.4-31.3 10-3.3 19.4-2.6 28.7 1.3C286.4 48.8 289.8 55.2 289 61.8"/><path class="st0" d="M184.6 24.1c0-1-1-2-1.6-3.2 -6.4-1.7-12.8-0.7-19.2-0.5 -2.8 0.1-4.6 2.3-5.1 5.3 -0.2 1.1-0.2 2.3-0.2 3.4 0 32 0.1 64 0.1 96 0 3-0.1 6.1 2.7 9 7.1 1.1 14.5 1.4 22.2-0.6 0.6-1.6 1.5-3 1.5-4.4C185 94.1 184.9 59.1 184.6 24.1"/><path class="st0" d="M120.3 60.3c0-7.2-0.1-14.5 0.2-21.7 0.2-6.1-0.6-11.9-2.6-18 -7.9-0.6-15.3-1.5-23.1 0.8 -3.4 14.1 1.8 28.4-2.1 41.9 -8.9 2.9-30.7 3.2-42.1 0.6 -2.9-6.3-1.8-13.3-2.3-20 -0.6-7.1 2.1-14.3-0.9-21.8 -4-0.7-8-1.7-12-2 -3.3-0.3-6.7 0.3-10.4 0.5 -4.3 12.6-1.8 25.3-2.1 37.7C22.4 70.8 22.6 83.4 23 96c0.4 12.4-2 24.9 0.9 37.1 10.9 2.5 16.3 2.4 24.1-0.4 3-13.6-0.7-27.8 1.5-41.7 12.5-3.5 24.7-1.1 36.8-1.5 2.1-0.1 4.2 1.4 6.4 2.2 2.5 13.7-0.6 27.6 2.5 41 0.2-0.1 0.5-0.2 0.8 0 0.9 0.6 1.9 1 2.8 1.5 6.8 0.8 13.1 1.1 19.3-0.8 2.6-9 3.1-9.5 1.6-15 -1.1-3.9-0.7-7.4 0-11.1 1.7-8.3-0.7-36.7 0.9-38.8C120.5 65.7 120.3 63 120.3 60.3"/></svg>
