<svg xmlns="http://www.w3.org/2000/svg" viewBox="0 0 100 100" preserveAspectRatio="xMidYMid" width="200" height="200" xmlns:xlink="http://www.w3.org/1999/xlink" style="shape-rendering:auto;display:block;background-position-x:0%;background-position-y:0%;background-size:auto;background-origin:padding-box;background-clip:border-box;background:scroll rgb(255, 255, 255) none  repeat;width:200px;height:200px;;animation:none"><g><g transform="matrix(1,0,0,1,0,0)" style="transform:matrix(1, 0, 0, 1, 0, 0);;animation:none"><rect x="47" y="24" rx="3" ry="6" width="6" height="12" fill="#40d9ac" opacity="0.083334" style="fill:rgb(64, 217, 172);opacity:0.083334;;animation:none"></rect></g>
<g transform="matrix(0.8660254037844387,0.49999999999999994,-0.49999999999999994,0.8660254037844387,31.698729810778058,-18.30127018922194)" style="transform:matrix(0.866025, 0.5, -0.5, 0.866025, 31.6987, -18.3013);;animation:none"><rect x="47" y="24" rx="3" ry="6" width="6" height="12" fill="#40d9ac" opacity="0.166667" style="fill:rgb(64, 217, 172);opacity:0.166667;;animation:none"></rect></g>
<g transform="matrix(0.5000000000000001,0.8660254037844386,-0.8660254037844386,0.5000000000000001,68.30127018922192,-18.30127018922194)" style="transform:matrix(0.5, 0.866025, -0.866025, 0.5, 68.3013, -18.3013);;animation:none"><rect x="47" y="24" rx="3" ry="6" width="6" height="12" fill="#40d9ac" opacity="0.25" style="fill:rgb(64, 217, 172);opacity:0.25;;animation:none"></rect></g>
<g transform="matrix(6.123233995736766e-17,1,-1,6.123233995736766e-17,100,0)" style="transform:matrix(0, 1, -1, 0, 100, 0);;animation:none"><rect x="47" y="24" rx="3" ry="6" width="6" height="12" fill="#40d9ac" opacity="0.333334" style="fill:rgb(64, 217, 172);opacity:0.333334;;animation:none"></rect></g>
<g transform="matrix(-0.4999999999999998,0.8660254037844388,-0.8660254037844388,-0.4999999999999998,118.30127018922192,31.69872981077805)" style="transform:matrix(-0.5, 0.866025, -0.866025, -0.5, 118.301, 31.6987);;animation:none"><rect x="47" y="24" rx="3" ry="6" width="6" height="12" fill="#40d9ac" opacity="0.416667" style="fill:rgb(64, 217, 172);opacity:0.416667;;animation:none"></rect></g>
<g transform="matrix(-0.8660254037844387,0.49999999999999994,-0.49999999999999994,-0.8660254037844387,118.30127018922194,68.30127018922194)" style="transform:matrix(-0.866025, 0.5, -0.5, -0.866025, 118.301, 68.3013);;animation:none"><rect x="47" y="24" rx="3" ry="6" width="6" height="12" fill="#40d9ac" opacity="0.5" style="fill:rgb(64, 217, 172);opacity:0.5;;animation:none"></rect></g>
<g transform="matrix(-1,1.2246467991473532e-16,-1.2246467991473532e-16,-1,100,100)" style="transform:matrix(-1, 0, 0, -1, 100, 100);;animation:none"><rect x="47" y="24" rx="3" ry="6" width="6" height="12" fill="#40d9ac" opacity="0.583334" style="fill:rgb(64, 217, 172);opacity:0.583334;;animation:none"></rect></g>
<g transform="matrix(-0.8660254037844386,-0.5000000000000001,0.5000000000000001,-0.8660254037844386,68.30127018922192,118.30127018922194)" style="transform:matrix(-0.866025, -0.5, 0.5, -0.866025, 68.3013, 118.301);;animation:none"><rect x="47" y="24" rx="3" ry="6" width="6" height="12" fill="#40d9ac" opacity="0.666667" style="fill:rgb(64, 217, 172);opacity:0.666667;;animation:none"></rect></g>
<g transform="matrix(-0.5000000000000004,-0.8660254037844384,0.8660254037844384,-0.5000000000000004,31.698729810778104,118.30127018922194)" style="transform:matrix(-0.5, -0.866025, 0.866025, -0.5, 31.6987, 118.301);;animation:none"><rect x="47" y="24" rx="3" ry="6" width="6" height="12" fill="#40d9ac" opacity="0.75" style="fill:rgb(64, 217, 172);opacity:0.75;;animation:none"></rect></g>
<g transform="matrix(-1.8369701987210297e-16,-1,1,-1.8369701987210297e-16,7.105427357601002e-15,100)" style="transform:matrix(0, -1, 1, 0, 0, 100);;animation:none"><rect x="47" y="24" rx="3" ry="6" width="6" height="12" fill="#40d9ac" opacity="0.833334" style="fill:rgb(64, 217, 172);opacity:0.833334;;animation:none"></rect></g>
<g transform="matrix(0.5,-0.8660254037844386,0.8660254037844386,0.5,-18.301270189221924,68.30127018922192)" style="transform:matrix(0.5, -0.866025, 0.866025, 0.5, -18.3013, 68.3013);;animation:none"><rect x="47" y="24" rx="3" ry="6" width="6" height="12" fill="#40d9ac" opacity="0.916667" style="fill:rgb(64, 217, 172);opacity:0.916667;;animation:none"></rect></g>
<g transform="matrix(0.8660254037844384,-0.5000000000000004,0.5000000000000004,0.8660254037844384,-18.30127018922194,31.698729810778104)" style="transform:matrix(0.866025, -0.5, 0.5, 0.866025, -18.3013, 31.6987);;animation:none"><rect x="47" y="24" rx="3" ry="6" width="6" height="12" fill="#40d9ac" opacity="1" style="fill:rgb(64, 217, 172);;animation:none"></rect></g>
<g></g></g><!-- [ldio] generated by https://loading.io --></svg>